<svg
  width="51"
  height="50"
  viewBox="0 0 51 50"
  fill="none"
  xmlns="http://www.w3.org/2000/svg"
>
  <mask id="path-1-inside-1_7802:20094" fill="white">
    <path
      fill-rule="evenodd"
      clip-rule="evenodd"
      d="M46.3569 14C48.5661 14 50.3569 15.7909 50.3569 18V39.0909C50.3569 41.3 48.5661 43.0909 46.3569 43.0909H43.9154L42.5477 49.4732C42.4651 49.859 41.9891 50.0015 41.708 49.7247L34.9705 43.0909H22.3569C20.1478 43.0909 18.3569 41.3 18.3569 39.0909V18C18.3569 15.7909 20.1478 14 22.3569 14H46.3569Z"
    ></path>
  </mask>
  <path
    fill-rule="evenodd"
    clip-rule="evenodd"
    d="M46.3569 14C48.5661 14 50.3569 15.7909 50.3569 18V39.0909C50.3569 41.3 48.5661 43.0909 46.3569 43.0909H43.9154L42.5477 49.4732C42.4651 49.859 41.9891 50.0015 41.708 49.7247L34.9705 43.0909H22.3569C20.1478 43.0909 18.3569 41.3 18.3569 39.0909V18C18.3569 15.7909 20.1478 14 22.3569 14H46.3569Z"
    fill="#210309"
  ></path>
  <path
    d="M43.9154 43.0909L42.9376 42.8814L43.107 42.0909H43.9154V43.0909ZM42.5477 49.4732L43.5255 49.6827H43.5255L42.5477 49.4732ZM41.708 49.7247L41.0064 50.4373L41.708 49.7247ZM34.9705 43.0909V42.0909H35.3802L35.6722 42.3783L34.9705 43.0909ZM49.3569 18C49.3569 16.3431 48.0138 15 46.3569 15V13C49.1184 13 51.3569 15.2386 51.3569 18H49.3569ZM49.3569 39.0909V18H51.3569V39.0909H49.3569ZM46.3569 42.0909C48.0138 42.0909 49.3569 40.7478 49.3569 39.0909H51.3569C51.3569 41.8523 49.1184 44.0909 46.3569 44.0909V42.0909ZM43.9154 42.0909H46.3569V44.0909H43.9154V42.0909ZM41.5699 49.2637L42.9376 42.8814L44.8932 43.3004L43.5255 49.6827L41.5699 49.2637ZM42.4096 49.0122C42.1285 48.7354 41.6526 48.8779 41.5699 49.2637L43.5255 49.6827C43.2776 50.84 41.8498 51.2677 41.0064 50.4373L42.4096 49.0122ZM35.6722 42.3783L42.4096 49.0122L41.0064 50.4373L34.2689 43.8035L35.6722 42.3783ZM22.3569 42.0909H34.9705V44.0909H22.3569V42.0909ZM19.3569 39.0909C19.3569 40.7478 20.7001 42.0909 22.3569 42.0909V44.0909C19.5955 44.0909 17.3569 41.8523 17.3569 39.0909H19.3569ZM19.3569 18V39.0909H17.3569V18H19.3569ZM22.3569 15C20.7001 15 19.3569 16.3431 19.3569 18H17.3569C17.3569 15.2386 19.5955 13 22.3569 13V15ZM46.3569 15H22.3569V13H46.3569V15Z"
    fill="white"
    mask="url(#path-1-inside-1_7802:20094)"
  ></path>
  <mask id="path-3-inside-2_7802:20094" fill="white">
    <path
      fill-rule="evenodd"
      clip-rule="evenodd"
      d="M4.35693 0C2.14779 0 0.356934 1.79086 0.356934 4V25.0909C0.356934 27.3 2.14779 29.0909 4.35693 29.0909H6.7985L8.16614 35.4732C8.2488 35.859 8.72473 36.0015 9.00584 35.7247L15.7433 29.0909H28.3569C30.5661 29.0909 32.3569 27.3 32.3569 25.0909V4C32.3569 1.79086 30.5661 0 28.3569 0H4.35693Z"
    ></path>
  </mask>
  <path
    fill-rule="evenodd"
    clip-rule="evenodd"
    d="M4.35693 0C2.14779 0 0.356934 1.79086 0.356934 4V25.0909C0.356934 27.3 2.14779 29.0909 4.35693 29.0909H6.7985L8.16614 35.4732C8.2488 35.859 8.72473 36.0015 9.00584 35.7247L15.7433 29.0909H28.3569C30.5661 29.0909 32.3569 27.3 32.3569 25.0909V4C32.3569 1.79086 30.5661 0 28.3569 0H4.35693Z"
    fill="#F1023D"
  ></path>
  <path
    d="M6.7985 29.0909L7.7763 28.8814L7.60692 28.0909H6.7985V29.0909ZM8.16614 35.4732L7.18833 35.6827H7.18833L8.16614 35.4732ZM9.00584 35.7247L9.70745 36.4373L9.00584 35.7247ZM15.7433 29.0909V28.0909H15.3336L15.0417 28.3783L15.7433 29.0909ZM1.35693 4C1.35693 2.34315 2.70008 1 4.35693 1V-1C1.59551 -1 -0.643066 1.23858 -0.643066 4H1.35693ZM1.35693 25.0909V4H-0.643066V25.0909H1.35693ZM4.35693 28.0909C2.70008 28.0909 1.35693 26.7478 1.35693 25.0909H-0.643066C-0.643066 27.8523 1.59551 30.0909 4.35693 30.0909V28.0909ZM6.7985 28.0909H4.35693V30.0909H6.7985V28.0909ZM9.14394 35.2637L7.7763 28.8814L5.8207 29.3004L7.18833 35.6827L9.14394 35.2637ZM8.30424 35.0122C8.58535 34.7354 9.06128 34.8779 9.14394 35.2637L7.18833 35.6827C7.43632 36.84 8.86411 37.2677 9.70745 36.4373L8.30424 35.0122ZM15.0417 28.3783L8.30424 35.0122L9.70745 36.4373L16.4449 29.8035L15.0417 28.3783ZM28.3569 28.0909H15.7433V30.0909H28.3569V28.0909ZM31.3569 25.0909C31.3569 26.7478 30.0138 28.0909 28.3569 28.0909V30.0909C31.1184 30.0909 33.3569 27.8523 33.3569 25.0909H31.3569ZM31.3569 4V25.0909H33.3569V4H31.3569ZM28.3569 1C30.0138 1 31.3569 2.34315 31.3569 4H33.3569C33.3569 1.23858 31.1184 -1 28.3569 -1V1ZM4.35693 1H28.3569V-1H4.35693V1Z"
    fill="white"
    mask="url(#path-3-inside-2_7802:20094)"
  ></path>
</svg>
