<svg
  width="48"
  height="51"
  viewBox="0 0 48 51"
  fill="none"
  xmlns="http://www.w3.org/2000/svg"
>
  <path
    d="M26.8413 35.7812L30.786 36.4441L28.8096 48.2066C28.6265 49.2959 27.5951 50.0306 26.5058 49.8475V49.8475C25.4165 49.6645 24.6818 48.6331 24.8649 47.5438L26.8413 35.7812Z"
    fill="#F1023D"
  ></path>
  <path
    d="M31.7986 35.7329L36.5831 36.2929L42.4207 46.3507C42.9728 47.3019 42.6492 48.5205 41.6981 49.0726V49.0726C40.7411 49.628 39.5147 49.2967 38.9676 48.335L31.7986 35.7329Z"
    fill="#F1023D"
  ></path>
  <path
    fill-rule="evenodd"
    clip-rule="evenodd"
    d="M33.292 14.5074C31.1007 14.2271 29.0971 15.7764 28.8169 17.9677L26.5405 35.7695L25.5337 37H40.5337L35.604 27.9622L36.7523 18.9824C37.0325 16.7911 35.4833 14.7876 33.292 14.5074Z"
    fill="#F1023D"
  ></path>
  <path
    fill-rule="evenodd"
    clip-rule="evenodd"
    d="M9.43412 13.8864C7.2799 14.376 5.93039 16.5191 6.41991 18.6734L8.53356 27.9749V36.6067L0.939146 44.2011C0.162859 44.9774 0.162859 46.236 0.939146 47.0123C1.72213 47.7953 2.99398 47.7875 3.76736 46.995L13.0336 37.5001L12.9737 35.643L14.3053 35.3404L16.8718 46.6349C17.1163 47.7109 18.1867 48.3849 19.2627 48.1404C20.3403 47.8955 21.0144 46.8224 20.7672 45.7453L18.1771 34.4606L18.2096 34.4532L14.221 16.9007C13.7315 14.7464 11.5883 13.3969 9.43412 13.8864Z"
    fill="#210309"
  ></path>
  <circle cx="7.85693" cy="5.5" r="5.5" fill="#210309"></circle>
  <circle cx="35.8569" cy="5.5" r="5.5" fill="#F1023D"></circle>
  <path
    d="M47.981 14.5C48.0338 15 44.9811 15.2 42.9811 14C40.9811 12.8 41.0338 6 41.9811 6C42.9283 6 44.181 7.1 44.981 7.5C45.981 8 45.481 11.5 45.481 13C45.481 14.2 47.9283 14 47.981 14.5Z"
    fill="#F1023D"
  ></path>
  <path
    d="M17.0337 17.5L13.5337 14.5C13.5337 14.5 19.5337 9 21.5337 9C23.5337 9 30.0337 14.5 30.0337 14.5L26.5337 17.5C26.5337 17.5 23.9142 13.8801 21.5337 14C19.3102 14.112 17.0337 17.5 17.0337 17.5Z"
    fill="#F1023D"
    stroke="white"
    stroke-linecap="round"
  ></path>
  <path
    d="M9.53369 15C13.5337 18.5 24.2337 23.4 35.0337 15"
    stroke="white"
    stroke-width="6"
    stroke-linecap="round"
  ></path>
  <path
    d="M9.53369 15C13.5337 18.5 24.2337 23.4 35.0337 15"
    stroke="#210309"
    stroke-width="4"
    stroke-linecap="round"
  ></path>
</svg>
