<svg
  width="44"
  height="51"
  viewBox="0 0 44 51"
  fill="none"
  xmlns="http://www.w3.org/2000/svg"
>
  <circle cx="21.8572" cy="29.5" r="20.6731" fill="#F1023D"></circle>
  <path
    d="M14.4147 9.65381C14.4147 9.65381 7.79932 17.1953 7.79932 29.5C7.79932 41.8046 14.4147 49.3461 14.4147 49.3461"
    stroke="white"
    stroke-linecap="round"
  ></path>
  <path
    d="M29.2992 9.65381C29.2992 9.65381 35.9146 17.1953 35.9146 29.5C35.9146 41.8046 29.2992 49.3461 29.2992 49.3461"
    stroke="white"
    stroke-linecap="round"
  ></path>
  <line
    x1="22.3569"
    y1="8.5"
    x2="22.3569"
    y2="50.5"
    stroke="white"
    stroke-linecap="round"
  ></line>
  <line
    x1="0.856934"
    y1="29"
    x2="42.8569"
    y2="29"
    stroke="white"
    stroke-linecap="round"
  ></line>
  <mask id="path-6-inside-1_7802:20104" fill="white">
    <path
      fill-rule="evenodd"
      clip-rule="evenodd"
      d="M42.3569 8.5C42.3569 10.1011 41.9142 11.5989 41.1446 12.8775L34.723 24C34.3381 24.6667 33.3758 24.6667 32.9909 24L26.5694 12.8777C25.7997 11.599 25.3569 10.1012 25.3569 8.5C25.3569 3.80558 29.1625 0 33.8569 0C38.5514 0 42.3569 3.80558 42.3569 8.5ZM33.8569 11C35.2376 11 36.3569 9.88071 36.3569 8.5C36.3569 7.11929 35.2376 6 33.8569 6C32.4762 6 31.3569 7.11929 31.3569 8.5C31.3569 9.88071 32.4762 11 33.8569 11Z"
    ></path>
  </mask>
  <path
    fill-rule="evenodd"
    clip-rule="evenodd"
    d="M42.3569 8.5C42.3569 10.1011 41.9142 11.5989 41.1446 12.8775L34.723 24C34.3381 24.6667 33.3758 24.6667 32.9909 24L26.5694 12.8777C25.7997 11.599 25.3569 10.1012 25.3569 8.5C25.3569 3.80558 29.1625 0 33.8569 0C38.5514 0 42.3569 3.80558 42.3569 8.5ZM33.8569 11C35.2376 11 36.3569 9.88071 36.3569 8.5C36.3569 7.11929 35.2376 6 33.8569 6C32.4762 6 31.3569 7.11929 31.3569 8.5C31.3569 9.88071 32.4762 11 33.8569 11Z"
    fill="#210309"
  ></path>
  <path
    d="M41.1446 12.8775L40.2878 12.3617L40.2831 12.3696L40.2785 12.3775L41.1446 12.8775ZM34.723 24L35.589 24.5L34.723 24ZM32.9909 24L33.8569 23.5L32.9909 24ZM26.5694 12.8777L27.4354 12.3777L27.4309 12.3697L27.4262 12.3619L26.5694 12.8777ZM42.0013 13.3932C42.8621 11.9633 43.3569 10.2879 43.3569 8.5H41.3569C41.3569 9.91437 40.9664 11.2345 40.2878 12.3617L42.0013 13.3932ZM35.589 24.5L42.0106 13.3775L40.2785 12.3775L33.8569 23.5L35.589 24.5ZM32.1249 24.5C32.8947 25.8333 34.8192 25.8333 35.589 24.5L33.8569 23.5V23.5L32.1249 24.5ZM25.7034 13.3777L32.1249 24.5L33.8569 23.5L27.4354 12.3777L25.7034 13.3777ZM24.3569 8.5C24.3569 10.288 24.8518 11.9634 25.7127 13.3934L27.4262 12.3619C26.7475 11.2346 26.3569 9.91444 26.3569 8.5H24.3569ZM33.8569 -1C28.6102 -1 24.3569 3.25329 24.3569 8.5H26.3569C26.3569 4.35786 29.7148 1 33.8569 1V-1ZM43.3569 8.5C43.3569 3.25329 39.1036 -1 33.8569 -1V1C37.9991 1 41.3569 4.35786 41.3569 8.5H43.3569ZM35.3569 8.5C35.3569 9.32843 34.6854 10 33.8569 10V12C35.7899 12 37.3569 10.433 37.3569 8.5H35.3569ZM33.8569 7C34.6854 7 35.3569 7.67157 35.3569 8.5H37.3569C37.3569 6.567 35.7899 5 33.8569 5V7ZM32.3569 8.5C32.3569 7.67157 33.0285 7 33.8569 7V5C31.9239 5 30.3569 6.567 30.3569 8.5H32.3569ZM33.8569 10C33.0285 10 32.3569 9.32843 32.3569 8.5H30.3569C30.3569 10.433 31.9239 12 33.8569 12V10Z"
    fill="white"
    mask="url(#path-6-inside-1_7802:20104)"
  ></path>
</svg>
