<svg
  width="28"
  height="50"
  viewBox="0 0 28 50"
  fill="none"
  xmlns="http://www.w3.org/2000/svg"
>
  <path
    fill-rule="evenodd"
    clip-rule="evenodd"
    d="M9.86623 5.54901C11.1267 2.48438 14.6328 1.02178 17.6975 2.28221L22.3216 4.18404C25.3863 5.44447 26.8489 8.95063 25.5884 12.0153L18.3615 29.5871C17.101 32.6518 13.5949 34.1144 10.5302 32.8539L5.90606 30.9521C2.84142 29.6917 1.37882 26.1855 2.63925 23.1209L9.86623 5.54901Z"
    fill="#F1023D"
  ></path>
  <path
    fill-rule="evenodd"
    clip-rule="evenodd"
    d="M10.3228 29.6591L11.2766 28.8878C9.54016 26.7406 6.3919 26.4076 4.24473 28.144C2.09756 29.8804 1.76457 33.0287 3.50098 35.1759L5.08138 33.8978C4.77188 32.5457 5.22774 31.0734 6.37902 30.1424C7.53029 29.2114 9.0653 29.0736 10.3228 29.6591Z"
    fill="white"
  ></path>
  <path
    d="M7.16162 12.0806L14.544 15.1033C15.5662 15.5218 16.0556 16.6898 15.6371 17.712L14.8797 19.5617C14.4611 20.5839 13.2932 21.0733 12.271 20.6547L4.88859 17.632L7.16162 12.0806Z"
    fill="white"
  ></path>
  <path
    d="M6.78516 13L14.1886 16.0313C14.6997 16.2406 14.9444 16.8246 14.7351 17.3357L13.9773 19.1865C13.768 19.6976 13.184 19.9423 12.6729 19.733L5.2695 16.7017L6.78516 13Z"
    fill="#210309"
  ></path>
  <path
    d="M10.0479 5.01465L17.4303 8.03735C18.4525 8.45589 18.9418 9.62384 18.5233 10.646L17.7659 12.4958C17.3474 13.518 16.1794 14.0073 15.1572 13.5888L7.77482 10.5661L10.0479 5.01465Z"
    fill="white"
  ></path>
  <path
    d="M9.67139 5.93408L17.0748 8.9654C17.5859 9.17467 17.8306 9.75865 17.6214 10.2697L16.8635 12.1206C16.6543 12.6317 16.0703 12.8764 15.5592 12.6671L8.15573 9.63581L9.67139 5.93408Z"
    fill="#210309"
  ></path>
  <rect x="6.35693" y="33" width="4" height="17" rx="2" fill="#F1023D"></rect>
  <circle cx="8.35693" cy="32" r="4" fill="#210309"></circle>
</svg>
