<svg width="516" height="112" viewBox="0 0 516 112" fill="none" xmlns="http://www.w3.org/2000/svg">
<path d="M200.22 24.6667V80.9867H196.135V38.9905L196.623 28.7505H196.562L176.011 80.9867H172.048L151.497 28.7505H151.375L151.924 38.9905V80.9867H147.838V24.6667H154.241L171.194 67.3333L173.999 75.9276H174.121L176.865 67.3943L193.818 24.6667H200.22ZM233.638 37.4667C239.939 37.4667 244.899 39.4375 248.517 43.3791C252.135 47.3613 253.944 52.786 253.944 59.6534C253.944 66.5207 252.135 71.9454 248.517 75.9276C244.899 79.8692 239.939 81.84 233.638 81.84C227.296 81.84 222.316 79.8692 218.697 75.9276C215.079 71.9454 213.27 66.5207 213.27 59.6534C213.27 52.786 215.079 47.3613 218.697 43.3791C222.316 39.4375 227.296 37.4667 233.638 37.4667ZM233.638 41.1238C228.597 41.1238 224.653 42.7695 221.807 46.061C218.962 49.393 217.539 53.9238 217.539 59.6534C217.539 65.3829 218.962 69.9137 221.807 73.2457C224.653 76.5372 228.597 78.1829 233.638 78.1829C238.638 78.1829 242.561 76.5372 245.407 73.2457C248.253 69.9137 249.675 65.3829 249.675 59.6534C249.675 53.9238 248.253 49.393 245.407 46.061C242.561 42.7695 238.638 41.1238 233.638 41.1238ZM286.386 37.4667C291.264 37.4667 295.207 38.828 298.216 41.5505C301.184 44.273 302.667 48.1943 302.667 53.3143V80.9867H298.399V54.7162C298.399 50.1651 297.301 46.7721 295.106 44.5372C292.87 42.3429 289.821 41.2457 285.959 41.2457C283.235 41.2457 280.694 41.8553 278.336 43.0743C276.019 44.334 274.169 46.1626 272.787 48.56C271.364 50.9575 270.653 53.741 270.653 56.9105V80.9867H266.384V38.32H270.226L270.409 46.9143C271.791 43.8667 273.885 41.5302 276.69 39.9048C279.495 38.2794 282.727 37.4667 286.386 37.4667ZM352.976 58.6172C352.976 59.5924 352.915 60.527 352.793 61.421H318.888C319.173 66.6629 320.718 70.7467 323.523 73.6724C326.368 76.5981 330.149 78.061 334.865 78.061C338.239 78.061 341.126 77.3905 343.524 76.0495C345.963 74.668 347.711 72.7378 348.768 70.2591L352.366 72.0876C350.781 75.2165 348.504 77.6343 345.537 79.341C342.569 81.007 339.012 81.84 334.865 81.84C328.564 81.84 323.624 79.8692 320.047 75.9276C316.51 72.0267 314.741 66.6019 314.741 59.6534C314.741 52.7048 316.449 47.28 319.864 43.3791C323.319 39.4375 328.157 37.4667 334.377 37.4667C340.15 37.4667 344.703 39.3968 348.037 43.2572C351.33 47.1175 352.976 52.2375 352.976 58.6172ZM334.377 41.2457C329.743 41.2457 326.084 42.6679 323.401 45.5124C320.758 48.3975 319.254 52.4203 318.888 57.581H348.951C348.667 52.461 347.264 48.4584 344.744 45.5733C342.183 42.6883 338.727 41.2457 334.377 41.2457ZM397.675 38.32L377.124 88.8495C375.539 92.7099 373.77 95.4121 371.819 96.9562C369.908 98.541 367.469 99.3334 364.501 99.3334C360.965 99.3334 358.261 98.2768 356.391 96.1638L357.976 92.5067C359.359 94.5384 361.534 95.5543 364.501 95.5543C366.493 95.5543 368.181 95.0057 369.563 93.9086C370.945 92.8114 372.246 90.7797 373.466 87.8134L376.21 80.9867L371.758 70.381L358.159 38.32H363.038L376.088 70.6857L378.222 76.3543L380.539 70.2591L393.101 38.32H397.675ZM426.031 24.6667C435.015 24.6667 441.946 27.0438 446.825 31.7981C451.703 36.5524 454.142 43.4197 454.142 52.4C454.142 61.6241 451.703 68.6946 446.825 73.6114C441.946 78.5283 435.015 80.9867 426.031 80.9867H408.285V24.6667H426.031ZM426.396 77.0857C433.917 77.0857 439.67 74.9524 443.654 70.6857C447.679 66.4597 449.691 60.3645 449.691 52.4C449.691 44.7607 447.679 38.8889 443.654 34.7848C439.67 30.64 433.917 28.5676 426.396 28.5676H412.554V77.0857H426.396ZM484.694 37.4667C490.995 37.4667 495.955 39.4375 499.573 43.3791C503.191 47.3613 505 52.786 505 59.6534C505 66.5207 503.191 71.9454 499.573 75.9276C495.955 79.8692 490.995 81.84 484.694 81.84C478.392 81.84 473.433 79.8692 469.814 75.9276C466.196 71.9454 464.387 66.5207 464.387 59.6534C464.387 52.786 466.196 47.3613 469.814 43.3791C473.433 39.4375 478.392 37.4667 484.694 37.4667ZM484.694 41.1238C479.693 41.1238 475.77 42.7695 472.924 46.061C470.079 49.393 468.656 53.9238 468.656 59.6534C468.656 65.3829 470.079 69.9137 472.924 73.2457C475.77 76.5372 479.693 78.1829 484.694 78.1829C489.694 78.1829 493.617 76.5372 496.463 73.2457C499.309 69.9137 500.731 65.3829 500.731 59.6534C500.731 53.9238 499.309 49.393 496.463 46.061C493.617 42.7695 489.694 41.1238 484.694 41.1238Z" fill="#2A1B3C"/>
<path d="M101.008 30.5577C92.7925 26.9231 81.749 25.1731 81.749 25.1731C85.7893 23.8269 92.5231 25.8462 96.2941 26.7885C104.509 28.5385 113.263 27.8654 121.613 22.0769C128.482 17.3654 128.347 9.69231 128.347 9.69231C126.866 12.25 115.957 23.8269 96.0247 19.3846C87.2707 17.3654 78.9208 17.3654 73.9377 17.5C74.4764 12.5192 74.0724 6.32692 71.2442 0C71.2442 0 62.6248 21 47.945 23.9615C46.3289 26.9231 43.0967 32.0385 37.1709 36.3462C32.7265 39.7115 28.2822 41.4615 24.7806 42.5385C22.2217 43.3462 21.1443 46.3077 22.6257 48.4615C24.7806 51.6923 28.2822 55.4615 33.5346 57.0769C33.5346 57.0769 31.5144 52.3654 32.1878 50.0769C32.1878 50.0769 34.8814 53.3077 41.2112 53.0385C41.2112 53.0385 37.7096 50.8846 37.8443 47.5192C37.8443 47.5192 41.2112 50.4808 46.7329 50.0769C46.7329 50.0769 43.0967 49.1346 43.366 44.8269C43.366 44.8269 50.2345 43.8846 56.295 46.0385C54.9482 46.5769 53.4668 47.25 51.9853 48.1923C48.8878 49.9423 46.5983 51.8269 44.7128 53.5769C44.1741 53.9808 43.2313 54.6538 41.8846 55.0577C39.5951 55.5962 37.7096 54.7885 37.1709 54.5192C37.1709 54.5192 38.2483 56.8077 39.7297 57.4808C41.2112 58.1538 37.9789 59.0962 35.4201 58.5577C32.8612 58.1539 30.1677 56.9423 30.1677 56.9423C30.3023 57.2115 31.5144 62.4615 36.4975 64.2115C37.3055 64.4808 37.9789 64.6154 38.6523 64.75C41.6152 65.0192 44.4434 63.4038 45.6555 60.7115C45.6555 60.5769 45.7902 60.4423 45.9249 60.3077C45.9249 60.3077 47.2716 57.75 50.2345 55.4615C53.3321 53.0385 59.5273 51.0192 67.3385 51.0192C71.3788 53.3077 74.0724 57.8846 73.399 62.4615C72.995 65.1539 71.6482 67.4423 70.3014 69.5962C66.2611 76.0577 56.699 77.6731 49.8305 79.6923C44.0394 81.3077 38.1136 82.7885 32.1878 83.7308C27.3394 84.5385 22.6257 85.2115 18.0467 87.3654C12.2556 90.3269 7.27256 95.0385 3.90563 100.962C2.55886 103.385 1.48145 106.077 0.673385 108.769C0.538708 109.173 0.269354 111.865 0 112C15.0838 102.577 23.0298 105.269 47.8104 106.212C72.5909 107.288 81.2103 92.4808 81.2103 92.4808C80.5369 98.5385 71.3788 109.173 71.3788 109.173C87.2707 105.942 95.6207 78.0769 95.6207 78.0769C97.2368 87.6346 89.5602 100.962 89.5602 100.962C118.112 72.1538 96.6981 48.8654 96.6981 48.8654C105.317 51.9615 111.243 65.4231 111.243 65.4231C111.513 60.7115 111.109 55.8654 109.088 51.5577C108.011 49.2692 106.664 47.25 104.779 45.5C102.893 43.6154 100.604 42.2692 98.1796 41.0577C96.5634 40.25 94.9473 39.3077 93.3312 38.2308C92.5231 37.6923 91.7151 37.1538 91.0417 36.6154C90.3683 36.0769 89.2909 35.5385 88.7522 34.7308C89.4256 34.5962 90.3683 35 90.907 35.1346C91.7151 35.4038 92.3885 35.5385 93.0619 35.8077C94.5433 36.3462 95.8901 36.8846 97.3715 37.2885C98.9876 37.8269 100.604 38.2308 102.22 38.6346C119.324 42.9423 125.519 33.25 125.519 33.25C121.209 36.4808 109.223 34.1923 101.008 30.5577ZM56.0257 29.6154L55.7563 30.9615C55.487 31.9038 54.9482 32.8462 54.0055 33.25L50.3692 35C49.2918 35.5385 48.4837 34.1923 49.2918 33.3846L54.2749 28.6731C54.9482 27.8654 56.1603 28.5385 56.0257 29.6154Z" fill="url(#paint0_linear)"/>
<defs>
<linearGradient id="paint0_linear" x1="-5.07125" y1="0.249049" x2="111.232" y2="54.507" gradientUnits="userSpaceOnUse">
<stop stop-color="#3616AC"/>
<stop offset="1" stop-color="#E09BED"/>
</linearGradient>
</defs>
</svg>
