<svg
  width="63"
  height="51"
  viewBox="0 0 63 51"
  fill="none"
  xmlns="http://www.w3.org/2000/svg"
>
  <path
    fill-rule="evenodd"
    clip-rule="evenodd"
    d="M10.2564 29.7C4.78909 24.2327 4.78909 15.3684 10.2564 9.90104C15.7238 4.4337 24.5881 4.4337 30.0554 9.90105L41.0197 20.8653L48.8919 28.7376C50.1069 29.9525 50.1069 31.9224 48.8919 33.1374C47.677 34.3523 45.7071 34.3523 44.4922 33.1374L36.6199 25.2651L35.8866 25.9984L43.7589 33.8706C44.9738 35.0856 44.9738 37.0555 43.7589 38.2704C42.5439 39.4854 40.5741 39.4854 39.3591 38.2704L31.4868 30.3981L30.7535 31.1314L38.6258 39.0037C39.8408 40.2187 39.8408 42.1885 38.6258 43.4035C37.4108 44.6185 35.441 44.6185 34.226 43.4035L26.3538 35.5312L25.6205 36.2645L33.4927 44.1368C34.7077 45.3517 34.7077 47.3216 33.4927 48.5366C32.2778 49.7515 30.3079 49.7515 29.093 48.5366L21.2207 40.6643L10.2564 29.7Z"
    fill="#F1023D"
  ></path>
  <mask id="path-2-inside-1_7802:20120" fill="white">
    <path
      fill-rule="evenodd"
      clip-rule="evenodd"
      d="M52.1923 9.90104C57.6596 15.3684 57.6596 24.2327 52.1923 29.7L51.2558 30.6366C51.1361 30.7562 50.942 30.7562 50.8223 30.6366L35.708 15.5222L31.6996 19.5306C30.4654 20.7648 28.4643 20.7648 27.2301 19.5306C25.996 18.2964 25.996 16.2954 27.2301 15.0612L31.3594 10.9319L31.3609 10.9334L32.3933 9.90104C37.8606 4.4337 46.725 4.4337 52.1923 9.90104Z"
    ></path>
  </mask>
  <path
    fill-rule="evenodd"
    clip-rule="evenodd"
    d="M52.1923 9.90104C57.6596 15.3684 57.6596 24.2327 52.1923 29.7L51.2558 30.6366C51.1361 30.7562 50.942 30.7562 50.8223 30.6366L35.708 15.5222L31.6996 19.5306C30.4654 20.7648 28.4643 20.7648 27.2301 19.5306C25.996 18.2964 25.996 16.2954 27.2301 15.0612L31.3594 10.9319L31.3609 10.9334L32.3933 9.90104C37.8606 4.4337 46.725 4.4337 52.1923 9.90104Z"
    fill="#210309"
  ></path>
  <path
    d="M52.1923 29.7L52.8994 30.4071L52.1923 29.7ZM51.2558 30.6366L50.5487 29.9294L51.2558 30.6366ZM50.8223 30.6366L50.1152 31.3437L50.8223 30.6366ZM35.708 15.5222L35.0009 14.8151L35.708 14.108L36.4151 14.8151L35.708 15.5222ZM31.6996 19.5306L32.4067 20.2377L31.6996 19.5306ZM31.3594 10.9319L30.6523 10.2248L31.3594 9.51772L32.0665 10.2248L31.3594 10.9319ZM31.3609 10.9334L32.068 11.6405L31.3609 12.3477L30.6538 11.6405L31.3609 10.9334ZM51.4852 28.9929C56.562 23.9161 56.562 15.685 51.4852 10.6081L52.8994 9.19393C58.7573 15.0518 58.7573 24.5493 52.8994 30.4071L51.4852 28.9929ZM50.5487 29.9294L51.4852 28.9929L52.8994 30.4071L51.9629 31.3437L50.5487 29.9294ZM51.5294 29.9294C51.2586 29.6586 50.8195 29.6586 50.5487 29.9294L51.9629 31.3437C51.4527 31.8539 50.6255 31.8539 50.1152 31.3437L51.5294 29.9294ZM36.4151 14.8151L51.5294 29.9294L50.1152 31.3437L35.0009 16.2293L36.4151 14.8151ZM30.9924 18.8235L35.0009 14.8151L36.4151 16.2293L32.4067 20.2377L30.9924 18.8235ZM27.9373 18.8235C28.7809 19.6672 30.1488 19.6672 30.9924 18.8235L32.4067 20.2377C30.7819 21.8624 28.1478 21.8624 26.523 20.2377L27.9373 18.8235ZM27.9373 15.7683C27.0936 16.612 27.0936 17.9798 27.9373 18.8235L26.523 20.2377C24.8983 18.613 24.8983 15.9788 26.523 14.3541L27.9373 15.7683ZM32.0665 11.639L27.9373 15.7683L26.523 14.3541L30.6523 10.2248L32.0665 11.639ZM30.6538 11.6405L30.6523 11.639L32.0665 10.2248L32.068 10.2263L30.6538 11.6405ZM33.1004 10.6082L32.068 11.6405L30.6538 10.2263L31.6862 9.19394L33.1004 10.6082ZM51.4852 10.6081C46.4084 5.53133 38.1772 5.53133 33.1004 10.6082L31.6862 9.19394C37.5441 3.33607 47.0415 3.33607 52.8994 9.19393L51.4852 10.6081Z"
    fill="white"
    mask="url(#path-2-inside-1_7802:20120)"
  ></path>
  <path
    d="M16.6605 29.4764L13.8321 32.3048C12.8558 33.2811 12.8558 34.864 13.8321 35.8403C14.8084 36.8166 16.3913 36.8166 17.3676 35.8403L20.196 33.0119C21.1723 32.0356 21.1723 30.4527 20.196 29.4764C19.2197 28.5001 17.6368 28.5001 16.6605 29.4764Z"
    fill="#210309"
    stroke="white"
  ></path>
  <path
    d="M20.1956 33.012L17.3672 35.8404C16.3909 36.8168 16.3909 38.3997 17.3672 39.376C18.3435 40.3523 19.9264 40.3523 20.9028 39.376L23.7312 36.5476C24.7075 35.5712 24.7075 33.9883 23.7312 33.012C22.7549 32.0357 21.172 32.0357 20.1956 33.012Z"
    fill="#210309"
    stroke="white"
  ></path>
  <path
    d="M23.7313 36.5474L20.9029 39.3758C19.9266 40.3522 19.9266 41.9351 20.9029 42.9114C21.8792 43.8877 23.4621 43.8877 24.4384 42.9114L27.2668 40.083C28.2431 39.1066 28.2431 37.5237 27.2668 36.5474C26.2905 35.5711 24.7076 35.5711 23.7313 36.5474Z"
    fill="#210309"
    stroke="white"
  ></path>
  <path
    d="M27.6605 40.4764L24.8321 43.3048C23.8558 44.2811 23.8558 45.864 24.8321 46.8403C25.8084 47.8166 27.3913 47.8166 28.3676 46.8403L31.196 44.0119C32.1723 43.0356 32.1723 41.4527 31.196 40.4764C30.2197 39.5001 28.6368 39.5001 27.6605 40.4764Z"
    fill="#210309"
    stroke="white"
  ></path>
</svg>
