<svg viewBox="0 0 24 24" fill="none" xmlns="http://www.w3.org/2000/svg">
  <g clip-path="url(#clip0)">
    <path
      d="M0 12C-2.07487e-07 14.3734 0.703787 16.6935 2.02236 18.6668C3.34094 20.6402 5.21508 22.1783 7.4078 23.0866C9.60051 23.9948 12.0133 24.2324 14.3411 23.7694C16.6689 23.3064 18.8071 22.1635 20.4853 20.4853C22.1635 18.8071 23.3064 16.6689 23.7694 14.3411C24.2324 12.0133 23.9948 9.60051 23.0866 7.4078C22.1783 5.21509 20.6402 3.34094 18.6668 2.02237C16.6935 0.703788 14.3734 1.79185e-07 12 0L12 12L0 12Z"
      fill="white"
    />
    <circle cx="12" cy="12" r="11.5" stroke="white" />
  </g>
  <defs>
    <clipPath id="clip0">
      <rect width="24" height="24" fill="white" />
    </clipPath>
  </defs>
</svg>
