<svg width="24" height="24" viewBox="0 0 24 24" fill="none" xmlns="http://www.w3.org/2000/svg">
<path d="M23.993 0H0.00703125C0.003148 0 0 0.003148 0 0.00703125V23.993C0 23.9969 0.003148 24 0.00703125 24H23.993C23.9969 24 24 23.9969 24 23.993V0.00703125C24 0.003148 23.9969 0 23.993 0Z" fill="black"/>
<path fill-rule="evenodd" clip-rule="evenodd" d="M11.8664 3.38605C11.8931 3.38199 11.9204 3.37988 11.9482 3.37988C12.8404 3.37988 13.4605 3.72363 13.8553 4.08257C14.0492 4.25882 14.1858 4.43557 14.2752 4.57088C14.3201 4.63879 14.3537 4.69714 14.3773 4.74105C14.389 4.76303 14.3983 4.7815 14.4053 4.79585C14.4065 4.79828 14.4076 4.80059 14.4086 4.80279C16.7021 9.10411 17.6632 11.172 19.0987 14.3433C19.0997 14.3454 19.1009 14.3479 19.1022 14.3509C19.1054 14.3578 19.1096 14.367 19.1146 14.3785C19.1248 14.4014 19.1385 14.4333 19.1548 14.4733C19.1872 14.5534 19.2301 14.6666 19.275 14.8063C19.3642 15.0842 19.4639 15.4751 19.5019 15.9232C19.5781 16.8203 19.4064 18.0029 18.3453 18.9069C17.6604 19.4931 16.9295 19.7511 16.2072 19.7739C15.4961 19.7964 14.8279 19.5901 14.2515 19.3057C13.1644 18.7694 12.3104 17.9088 11.9476 17.5059C10.9932 18.5319 9.99948 19.2672 8.99722 19.5958C7.81881 19.9822 6.66212 19.7924 5.653 18.9426C4.56634 18.0296 3.90503 16.3571 4.81484 14.3468M12.7051 16.7354C12.6905 16.7187 12.6752 16.7012 12.6592 16.6831C14.0791 14.9369 14.8083 13.3698 14.7318 11.9709C14.696 11.3139 14.4758 10.6655 13.9968 10.178C13.5115 9.6842 12.817 9.41294 11.9494 9.4127C11.3069 9.41015 10.7875 9.5614 10.3762 9.81486C9.96673 10.0671 9.69359 10.4024 9.51309 10.7251C9.33392 11.0455 9.24257 11.359 9.19476 11.5851C9.17059 11.6993 9.15702 11.7938 9.14911 11.8586C9.14663 11.879 9.14466 11.8969 9.14327 11.9098C9.13829 11.9393 9.1357 11.9695 9.1357 12.0002C9.1357 13.2451 9.70172 14.4463 10.3002 15.3883C10.6137 15.8817 10.9486 16.3228 11.2409 16.6817C10.3281 17.6832 9.45295 18.3118 8.6613 18.5714C7.8278 18.8447 7.06282 18.7205 6.34707 18.1176L6.34654 18.1172C5.61448 17.5021 5.09455 16.3434 5.79712 14.7912L5.7972 14.791C7.25402 11.5692 8.83244 8.40768 10.5232 5.30168C10.5264 5.29591 10.5294 5.29008 10.5323 5.28419C10.5325 5.28393 10.5327 5.28356 10.5329 5.28309C10.5344 5.28028 10.5378 5.2739 10.5433 5.26445C10.5541 5.24548 10.5728 5.21459 10.5997 5.1757C10.6538 5.09729 10.7382 4.99038 10.8552 4.88349C11.0849 4.67357 11.4369 4.46448 11.9548 4.46269C11.9756 4.46262 11.9961 4.46137 12.0163 4.459C12.5659 4.4751 12.915 4.68473 13.1301 4.88032C13.2456 4.98532 13.3259 5.08982 13.3759 5.16545C13.4007 5.203 13.4175 5.23254 13.4269 5.25016C13.4316 5.25894 13.4344 5.26464 13.4355 5.26677C13.4355 5.26686 13.4356 5.26695 13.4356 5.26702C13.4403 5.27737 13.4453 5.28757 13.4507 5.29759C15.736 9.58314 16.6871 11.63 18.1181 14.7912C18.1193 14.7939 18.1205 14.7965 18.1217 14.7992C18.1218 14.7993 18.1218 14.7993 18.1218 14.7994C18.1219 14.7996 18.122 14.7997 18.122 14.7999C18.1221 14.8 18.1221 14.8001 18.1222 14.8002C18.1223 14.8003 18.1223 14.8004 18.1224 14.8006L18.1226 14.801C18.1237 14.8034 18.1257 14.8079 18.1287 14.8146C18.1346 14.8279 18.1439 14.8496 18.1557 14.8787C18.1794 14.9371 18.2128 15.0249 18.2484 15.1359C18.3202 15.3595 18.3983 15.6684 18.4277 16.0143C18.4863 16.7049 18.351 17.486 17.6456 18.0866L17.6445 18.0876C17.1413 18.5183 16.6442 18.6815 16.1732 18.6963C15.6912 18.7115 15.2009 18.5719 14.7285 18.3388C13.7751 17.8685 13.0016 17.072 12.7051 16.7354ZM11.8664 3.38605C11.0692 3.41125 10.497 3.75036 10.1279 4.08761C9.93904 4.26021 9.80261 4.43249 9.71228 4.56341C9.66689 4.62919 9.63247 4.68549 9.60832 4.72755C9.59622 4.74862 9.58665 4.76621 9.5795 4.77974C9.57676 4.78492 9.57438 4.78952 9.57235 4.79349C7.87091 7.91947 6.28194 11.1023 4.81492 14.3467M10.1731 11.7945C10.1707 11.7887 10.1682 11.7829 10.1656 11.7772C10.1686 11.7838 10.1711 11.7896 10.1731 11.7945ZM11.9505 15.8437C11.7113 15.5422 11.4535 15.193 11.2102 14.8101C10.6581 13.9411 10.225 12.9649 10.214 12.0362C10.2142 12.0349 10.2143 12.0337 10.2144 12.0324C10.2158 12.0198 10.2172 12.0067 10.2193 11.9892C10.2244 11.9473 10.2334 11.8847 10.2495 11.8082C10.2825 11.6526 10.3432 11.4497 10.454 11.2514C10.5636 11.0556 10.7184 10.8703 10.9417 10.7328C11.1627 10.5966 11.4803 10.4888 11.9459 10.4908L11.9482 10.4908C12.5847 10.4908 12.982 10.6836 13.2278 10.9337C13.48 11.1904 13.6301 11.5662 13.6553 12.0295L13.6553 12.0297C13.7081 12.9951 13.2164 14.2467 11.9505 15.8437Z" fill="white"/>
</svg>
