<svg width="25" height="25" viewBox="0 0 25 25" fill="none" class="stroke-current" xmlns="http://www.w3.org/2000/svg">
<path d="M15.432 17.3789H20.432L19.027 15.9739C18.8383 15.7852 18.6887 15.5611 18.5866 15.3146C18.4845 15.068 18.432 14.8038 18.432 14.5369V11.3789C18.4322 10.1378 18.0476 8.92725 17.3312 7.91379C16.6149 6.90034 15.602 6.13387 14.432 5.71991V5.37891C14.432 4.84847 14.2213 4.33977 13.8462 3.96469C13.4711 3.58962 12.9624 3.37891 12.432 3.37891C11.9016 3.37891 11.3929 3.58962 11.0178 3.96469C10.6427 4.33977 10.432 4.84847 10.432 5.37891V5.71991C8.10201 6.54391 6.43201 8.76691 6.43201 11.3789V14.5379C6.43201 15.0759 6.21801 15.5929 5.83701 15.9739L4.43201 17.3789H9.43201M15.432 17.3789V18.3789C15.432 19.1746 15.1159 19.9376 14.5533 20.5002C13.9907 21.0628 13.2277 21.3789 12.432 21.3789C11.6364 21.3789 10.8733 21.0628 10.3107 20.5002C9.74808 19.9376 9.43201 19.1746 9.43201 18.3789V17.3789M15.432 17.3789H9.43201" stroke="black" stroke-width="2" stroke-linecap="round" stroke-linejoin="round" />
</svg>
