<svg width="24" height="24" viewBox="0 0 24 24" fill="none" xmlns="http://www.w3.org/2000/svg">
<g clip-path="url(#clip0_9768_16572)">
<path d="M9.68812 0.0878906L17.5817 23.637C21.2945 22.5098 24.0001 18.8681 24.0001 14.5229V9.56491C24.0001 4.3147 20.0515 0.0878906 15.147 0.0878906H9.68812ZM5.40088 23.2574C5.66584 23.377 5.93724 23.4833 6.21478 23.5753C5.93733 23.4833 5.66576 23.3769 5.40088 23.2574ZM6.21509 23.5753C6.49255 23.6673 6.77604 23.7451 7.06462 23.808C6.77595 23.7451 6.49264 23.6673 6.21509 23.5753ZM17.579 23.6379C17.3086 23.7199 17.0326 23.788 16.7523 23.843C17.0328 23.7883 17.3085 23.72 17.579 23.6379ZM16.6442 23.8633C16.5692 23.877 16.494 23.8903 16.4183 23.9019C16.494 23.8903 16.5691 23.8769 16.6442 23.8633ZM7.50156 23.891C7.94209 23.9627 8.39341 23.9999 8.8532 23.9999C8.39341 23.9999 7.94209 23.9626 7.50156 23.891ZM16.0849 23.947C16.0398 23.9523 15.9943 23.9554 15.9491 23.9597C15.9943 23.9556 16.0398 23.952 16.0849 23.947ZM15.6808 23.9816C15.6342 23.9846 15.5875 23.9875 15.5407 23.9895C15.5876 23.9872 15.6342 23.9848 15.6808 23.9816Z" fill="#EEEDEE"/>
<path d="M8.85308 0.0878906C3.9486 0.0878906 0 4.31469 0 9.5649V14.5232C0 19.7734 3.9486 23.9999 8.85308 23.9999H15.1469C15.9923 23.9999 16.8084 23.8718 17.5816 23.637L9.688 0.0878906H8.85308Z" fill="#117FBA"/>
<path d="M21.1117 10.1191C21.0446 9.92115 20.8565 9.78027 20.6349 9.78027H16.9413C16.7197 9.78027 16.5351 9.92115 16.4645 10.1191L15.7661 12.1283V14.8117C15.7661 14.9961 15.9172 15.1471 16.1019 15.1471H16.4377C16.6223 15.1471 16.7734 14.9961 16.7734 14.8117V14.4762H20.8028V14.8117C20.8028 14.9961 20.9539 15.1471 21.1386 15.1471H21.4744C21.6591 15.1471 21.8102 14.9961 21.8102 14.8117V12.1283L21.1117 10.1191ZM16.9413 13.47C16.6626 13.47 16.4377 13.2452 16.4377 12.9668C16.4377 12.6884 16.6626 12.4637 16.9413 12.4637C17.22 12.4637 17.445 12.6884 17.445 12.9668C17.445 13.2452 17.22 13.47 16.9413 13.47ZM20.6349 13.47C20.3562 13.47 20.1312 13.2452 20.1312 12.9668C20.1312 12.6884 20.3562 12.4637 20.6349 12.4637C20.9136 12.4637 21.1386 12.6884 21.1386 12.9668C21.1386 13.2452 20.9136 13.47 20.6349 13.47ZM16.4377 11.7928L16.9413 10.2834H20.6349L21.1386 11.7928H16.4377Z" fill="#64808E"/>
<path opacity="0.35" d="M9.65869 0L9.66936 0.0314349L9.73086 0H9.65869ZM9.68821 0.0881973L17.5523 23.6266C21.265 22.4957 23.9707 18.842 23.9707 14.4825V14.1465L9.68821 0.0881973ZM16.6148 23.8537C16.5397 23.8675 16.4645 23.8808 16.3888 23.8924C16.4646 23.8808 16.5397 23.8673 16.6148 23.8537ZM16.0554 23.9376C16.0104 23.9429 15.9649 23.946 15.9196 23.9504C15.9649 23.9463 16.0104 23.9427 16.0554 23.9376ZM15.6514 23.9724C15.6048 23.9753 15.5581 23.9783 15.5113 23.9803C15.5581 23.9779 15.6047 23.9756 15.6514 23.9724Z" fill="#BFBFBF"/>
<path d="M12.0375 13.5931C11.7969 12.1449 10.4252 11.1707 8.98188 11.4175L9.40447 8.99184L7.8539 8.71582C7.72388 9.00807 7.13877 10.3394 6.85596 11.8331C7.43132 12.2228 7.8539 12.8398 7.98068 13.5866C8.11071 14.3757 7.88316 15.1453 7.40857 15.7168C7.52559 15.8597 7.65886 15.9896 7.8084 16.1065C8.40976 16.5806 9.14117 16.7657 9.8563 16.6455C11.3093 16.4052 12.2845 15.0349 12.0342 13.5931H12.0375Z" fill="#EEEDEE"/>
<path d="M6.83003 12.002L6.86254 11.8396C6.30993 11.463 5.6273 11.2941 4.91866 11.411L5.34124 8.98859L3.79393 8.71582C3.65741 9.01781 3.03328 10.4368 2.76673 11.9955C2.55219 13.2554 2.56194 14.6063 3.22182 15.5577C3.3681 15.7623 3.54038 15.9474 3.74843 16.1097C4.35304 16.5838 5.08769 16.7689 5.80283 16.6488C6.45946 16.5416 7.01532 16.1942 7.40865 15.7233L7.28512 15.5609C6.622 14.6128 6.61224 13.2619 6.83004 12.0052L6.83003 12.002Z" fill="#EEEDEE"/>
<path d="M7.98393 13.5933C7.85391 12.8465 7.43131 12.2295 6.85921 11.8398L6.8267 12.0022C6.61541 13.2621 6.62516 14.613 7.28829 15.5644L7.40857 15.7268C7.88316 15.1423 8.1172 14.3759 7.98067 13.5836L7.98393 13.5933Z" fill="#64808E"/>
</g>
<defs>
<clipPath id="clip0_9768_16572">
<rect width="24" height="24" fill="white"/>
</clipPath>
</defs>
</svg>
