<svg width="189" height="58" viewBox="0 0 189 58" fill="none" xmlns="http://www.w3.org/2000/svg">
<path d="M52.9102 15.3286H56.9569L60.0769 29.3771L62.888 19.14C63.2381 17.901 63.7529 16.9351 64.4325 16.2421C65.1327 15.5281 66.1007 15.2236 67.3363 15.3286L71.2595 29.3771L73.5145 19.1085C73.8235 17.7435 74.3589 16.7251 75.1209 16.0531C75.8829 15.3811 76.9743 15.1396 78.3953 15.3286L73.4837 37.3147H69.5605L65.6064 23.1088L61.7141 37.3147H57.8218L52.9102 15.3286Z" fill="#121212"/>
<path d="M91.4587 31.015C90.3466 31.309 89.3272 31.414 88.4004 31.33C87.4943 31.246 86.7426 31.0255 86.1454 30.6685C85.5688 30.2905 85.1775 29.797 84.9715 29.1881C84.7862 28.5581 84.848 27.8546 85.1569 27.0777C85.7953 27.6236 86.5367 27.9281 87.381 27.9911C88.2254 28.0331 89.0389 28.0121 89.8214 27.9281C90.4804 27.8651 90.9747 27.7181 91.3042 27.4871C91.6543 27.2561 91.8705 26.9937 91.9529 26.6997C92.0353 26.3847 92.0044 26.0592 91.8603 25.7232C91.7161 25.3872 91.4793 25.0827 91.1498 24.8097C90.8408 24.5368 90.4496 24.3163 89.9759 24.1483C89.5228 23.9803 89.0183 23.9068 88.4622 23.9278C87.865 23.9698 87.2987 24.1168 86.7632 24.3688C86.2278 24.6208 85.7541 24.9672 85.3422 25.4082C84.9303 25.8492 84.6008 26.3637 84.3537 26.9517C84.1066 27.5396 83.9727 28.1906 83.9521 28.9046C83.9315 29.4926 83.9933 30.07 84.1375 30.637C84.3022 31.204 84.5391 31.729 84.848 32.2119C85.1569 32.6739 85.5276 33.0729 85.96 33.4089C86.3925 33.7239 86.8868 33.9234 87.4428 34.0074C88.2254 34.1544 89.0286 34.1019 89.8523 33.8499C90.6761 33.5979 91.4072 33.1359 92.0456 32.4639L95.2892 34.0704C94.4448 35.3513 93.446 36.2753 92.2927 36.8423C91.1395 37.3882 89.8214 37.6612 88.3387 37.6612C86.9589 37.6612 85.7438 37.4197 84.6935 36.9368C83.6638 36.4328 82.7989 35.7713 82.0987 34.9523C81.4191 34.1334 80.9042 33.2094 80.5541 32.1804C80.2246 31.1305 80.0701 30.07 80.0907 28.9991C80.1113 27.9071 80.3173 26.8467 80.7086 25.8177C81.0998 24.7677 81.6662 23.8438 82.4076 23.0458C83.2313 22.1429 84.189 21.5024 85.2804 21.1244C86.3925 20.7464 87.5252 20.5574 88.6785 20.5574C89.9553 20.5574 91.0571 20.7779 91.9838 21.2189C92.9105 21.6599 93.6622 22.2268 94.2389 22.9198C94.8155 23.5918 95.1965 24.3478 95.3818 25.1877C95.5672 26.0067 95.5466 26.8047 95.3201 27.5816C95.1141 28.3586 94.6919 29.0621 94.0535 29.692C93.4151 30.301 92.5502 30.742 91.4587 31.015Z" fill="#121212"/>
<path d="M105.833 15.2656C106.759 15.2656 107.583 15.3916 108.304 15.6436C109.045 15.8956 109.715 16.1791 110.312 16.4941C111.527 17.1241 112.526 18.006 113.308 19.14C114.091 20.2529 114.657 21.4919 115.007 22.8568C115.357 24.2218 115.491 25.6392 115.409 27.1092C115.347 28.5581 115.059 29.9335 114.544 31.2355C114.05 32.5164 113.339 33.6609 112.413 34.6688C111.486 35.6558 110.353 36.3593 109.014 36.7793C108.479 36.9473 107.748 37.0733 106.821 37.1573C105.915 37.2202 104.947 37.2727 103.917 37.3147C102.888 37.3357 101.858 37.3357 100.828 37.3147C99.8192 37.3147 98.9337 37.3147 98.1717 37.3147V19.014C98.1717 18.489 98.2335 17.9955 98.357 17.5335C98.4806 17.0716 98.6763 16.6726 98.944 16.3366C99.2323 16.0006 99.603 15.7381 100.056 15.5491C100.53 15.3601 101.106 15.2656 101.786 15.2656H105.833ZM102.28 33.2199C103.186 33.2199 104.041 33.2199 104.844 33.2199C105.647 33.2199 106.378 33.1464 107.037 32.9994C107.717 32.8314 108.335 32.5479 108.891 32.149C109.447 31.75 109.931 31.1515 110.343 30.3535C110.672 29.7025 110.919 28.9571 111.084 28.1171C111.249 27.2771 111.3 26.4267 111.239 25.5657C111.197 24.7047 111.033 23.8858 110.744 23.1088C110.477 22.3108 110.065 21.6284 109.509 21.0614C109.035 20.5784 108.469 20.1899 107.81 19.8959C107.151 19.602 106.461 19.455 105.74 19.455H102.28V33.2199Z" fill="#121212"/>
<path d="M130.489 35.5193C129.706 36.2963 128.851 36.8633 127.925 37.2202C127.019 37.5772 126.102 37.7347 125.175 37.6927C124.249 37.6717 123.342 37.4617 122.457 37.0628C121.592 36.6638 120.82 36.0968 120.14 35.3618C119.481 34.6059 118.946 33.7134 118.534 32.6844C118.142 31.6345 117.947 30.448 117.947 29.1251C117.947 27.8651 118.163 26.6997 118.596 25.6287C119.028 24.5578 119.605 23.6443 120.325 22.8883C121.067 22.1324 121.901 21.5549 122.828 21.1559C123.775 20.7359 124.753 20.5469 125.762 20.5889C126.751 20.6309 127.544 20.8619 128.141 21.2819C128.738 21.6809 129.171 22.1534 129.438 22.6993C129.727 23.2453 129.871 23.8018 129.871 24.3688C129.891 24.9147 129.809 25.3557 129.624 25.6917C129.274 25.1667 128.779 24.8202 128.141 24.6523C127.503 24.4633 126.885 24.3688 126.287 24.3688C125.34 24.3688 124.547 24.6103 123.909 25.0932C123.27 25.5552 122.786 26.1432 122.457 26.8572C122.127 27.5711 121.952 28.3481 121.932 29.1881C121.932 30.007 122.086 30.7735 122.395 31.4875C122.725 32.2014 123.209 32.7999 123.847 33.2829C124.506 33.7449 125.32 33.9759 126.287 33.9759C127.111 33.9759 127.791 33.7869 128.326 33.4089C128.862 33.0309 129.284 32.5479 129.593 31.96C129.922 31.351 130.149 30.679 130.272 29.944C130.417 29.1881 130.489 28.4426 130.489 27.7076V20.9984H134.504V37.3147H130.489V35.5193Z" fill="#121212"/>
<path d="M141.585 22.8883C141.75 22.5103 141.997 22.1848 142.326 21.9119C142.677 21.6389 143.058 21.4079 143.469 21.2189C143.881 21.0299 144.303 20.8829 144.736 20.7779C145.168 20.6729 145.57 20.6099 145.941 20.5889C146.723 20.5469 147.496 20.6624 148.258 20.9354C149.02 21.1874 149.72 21.6389 150.358 22.2898C151.285 23.2768 151.748 24.6942 151.748 26.5422V37.3147H147.794C147.794 36.9578 147.794 36.4748 147.794 35.8658C147.815 35.2568 147.825 34.5954 147.825 33.8814C147.825 33.1464 147.825 32.3904 147.825 31.6135C147.825 30.8365 147.815 30.1015 147.794 29.4086C147.774 28.7156 147.743 28.0961 147.702 27.5501C147.66 27.0042 147.609 26.6052 147.547 26.3532C147.382 25.6812 147.063 25.1772 146.589 24.8412C146.136 24.5053 145.642 24.3373 145.107 24.3373C144.406 24.3373 143.861 24.5368 143.469 24.9357C143.078 25.3137 142.883 25.8177 142.883 26.4477C142.635 26.3637 142.388 26.1957 142.141 25.9437C141.894 25.6707 141.709 25.3872 141.585 25.0932V37.3147H137.6V20.9984H141.585V22.8883Z" fill="#121212"/>
<path d="M167.275 27.0462C167.11 26.4582 166.791 25.9647 166.317 25.5657C165.864 25.1667 165.329 24.8727 164.711 24.6837C164.093 24.4738 163.434 24.3793 162.734 24.4003C162.033 24.4003 161.364 24.5368 160.726 24.8097C160.108 25.0827 159.562 25.4922 159.089 26.0382C158.615 26.5632 158.285 27.2351 158.1 28.0541C157.956 28.7261 157.935 29.4086 158.038 30.1015C158.141 30.7945 158.378 31.4245 158.749 31.9915C159.119 32.5374 159.614 32.9889 160.231 33.3459C160.87 33.7029 161.632 33.8814 162.517 33.8814C164.186 33.8814 165.483 33.2619 166.41 32.023L169.344 34.1964C167.779 36.4433 165.524 37.5667 162.579 37.5667C161.035 37.5667 159.696 37.2727 158.563 36.6848C157.451 36.0758 156.545 35.2988 155.845 34.3539C155.145 33.3879 154.671 32.3169 154.424 31.141C154.177 29.944 154.146 28.7681 154.331 27.6131C154.537 26.4372 154.97 25.3347 155.629 24.3058C156.288 23.2558 157.184 22.4053 158.316 21.7544C159.161 21.2714 160.056 20.9459 161.004 20.7779C161.972 20.5889 162.94 20.5679 163.908 20.7149C165.184 20.9039 166.173 21.2924 166.873 21.8804C167.594 22.4683 168.068 23.1088 168.294 23.8018C168.521 24.4738 168.531 25.1247 168.325 25.7547C168.14 26.3637 167.79 26.7942 167.275 27.0462Z" fill="#121212"/>
<path d="M182.714 31.015C181.602 31.309 180.583 31.414 179.656 31.33C178.75 31.246 177.998 31.0255 177.401 30.6685C176.824 30.2905 176.433 29.797 176.227 29.1881C176.042 28.5581 176.104 27.8546 176.412 27.0777C177.051 27.6236 177.792 27.9281 178.637 27.9911C179.481 28.0331 180.294 28.0121 181.077 27.9281C181.736 27.8651 182.23 27.7181 182.56 27.4871C182.91 27.2561 183.126 26.9937 183.208 26.6997C183.291 26.3847 183.26 26.0592 183.116 25.7232C182.972 25.3872 182.735 25.0827 182.405 24.8097C182.096 24.5368 181.705 24.3163 181.231 24.1483C180.778 23.9803 180.274 23.9068 179.718 23.9278C179.121 23.9698 178.554 24.1168 178.019 24.3688C177.483 24.6208 177.01 24.9672 176.598 25.4082C176.186 25.8492 175.856 26.3637 175.609 26.9517C175.362 27.5396 175.228 28.1906 175.208 28.9046C175.187 29.4926 175.249 30.07 175.393 30.637C175.558 31.204 175.795 31.729 176.104 32.2119C176.412 32.6739 176.783 33.0729 177.216 33.4089C177.648 33.7239 178.142 33.9234 178.698 34.0074C179.481 34.1544 180.284 34.1019 181.108 33.8499C181.932 33.5979 182.663 33.1359 183.301 32.4639L186.545 34.0704C185.7 35.3513 184.702 36.2753 183.548 36.8423C182.395 37.3882 181.077 37.6612 179.594 37.6612C178.214 37.6612 176.999 37.4197 175.949 36.9368C174.919 36.4328 174.054 35.7713 173.354 34.9523C172.675 34.1334 172.16 33.2094 171.81 32.1804C171.48 31.1305 171.326 30.07 171.346 28.9991C171.367 27.9071 171.573 26.8467 171.964 25.8177C172.355 24.7677 172.922 23.8438 173.663 23.0458C174.487 22.1429 175.444 21.5024 176.536 21.1244C177.648 20.7464 178.781 20.5574 179.934 20.5574C181.211 20.5574 182.313 20.7779 183.239 21.2189C184.166 21.6599 184.918 22.2268 185.494 22.9198C186.071 23.5918 186.452 24.3478 186.637 25.1877C186.823 26.0067 186.802 26.8047 186.576 27.5816C186.37 28.3586 185.947 29.0621 185.309 29.692C184.671 30.301 183.806 30.742 182.714 31.015Z" fill="#121212"/>
<path d="M45.2825 18.7777C43.7514 11.8804 39.2993 7.31628 34.4559 5.13281C40.4783 10.5458 46.0261 21.0212 39.124 30.5655C36.2608 34.5267 30.535 36.092 28.1363 34.9876C28.1363 34.9876 31.8448 34.1841 34.1513 32.1266C38.6368 27.7947 40.1356 20.8164 36.5452 14.4724C36.0433 13.5843 35.4471 12.7553 34.7673 12.0004C34.7578 11.989 34.7498 11.9777 34.7403 11.9669C32.2171 8.8962 28.7518 7.06341 25.0285 6.50092C20.1945 5.57426 13.9613 6.77919 9.29317 11.1834C4.20396 15.9859 2.55576 22.2013 3.12458 27.5732C4.70764 19.545 10.8264 9.40627 22.3793 10.7306C27.174 11.2812 31.3644 15.5568 31.6271 18.2288C31.6271 18.2288 28.8323 13.7543 21.9005 13.7543C21.7734 13.7565 21.5048 13.7673 21.4974 13.7673L21.409 13.7727C16.9018 13.9526 12.5202 16.3576 9.84717 21.0812C9.34407 21.9686 8.93839 22.91 8.63749 23.8882L8.62266 23.9281C7.27793 27.6932 7.45483 31.6711 8.83822 35.2415C10.4689 39.9764 14.6091 44.8816 20.6813 46.803C27.3027 48.8984 33.403 47.246 37.6781 44.0586C30.0711 46.6722 18.4054 46.3367 13.7532 35.4679C11.8227 30.9562 13.3565 25.1158 15.4941 23.5478C15.4941 23.5478 13.0927 28.254 16.5597 34.3781C18.9335 38.4219 23.242 41.2176 28.7142 41.2176C28.9779 41.2176 31.0911 41.0495 31.8527 40.8756L31.8951 40.8696C35.763 40.1747 39.0515 38.0296 41.3903 35.0222C44.5946 31.215 46.6882 25.1039 45.2825 18.7777Z" fill="#F1023D"/>
<path d="M63.304 45.576V47.22H61.072V54H59.02V47.22H56.788V45.576H63.304ZM66.3858 48.42C66.6258 48.052 66.9258 47.764 67.2858 47.556C67.6458 47.34 68.0458 47.232 68.4858 47.232V49.404H67.9218C67.4098 49.404 67.0258 49.516 66.7698 49.74C66.5138 49.956 66.3858 50.34 66.3858 50.892V54H64.3338V47.304H66.3858V48.42ZM69.0587 50.64C69.0587 49.952 69.1867 49.348 69.4427 48.828C69.7067 48.308 70.0627 47.908 70.5107 47.628C70.9587 47.348 71.4587 47.208 72.0107 47.208C72.4827 47.208 72.8947 47.304 73.2467 47.496C73.6067 47.688 73.8827 47.94 74.0747 48.252V47.304H76.1267V54H74.0747V53.052C73.8747 53.364 73.5947 53.616 73.2347 53.808C72.8827 54 72.4707 54.096 71.9987 54.096C71.4547 54.096 70.9587 53.956 70.5107 53.676C70.0627 53.388 69.7067 52.984 69.4427 52.464C69.1867 51.936 69.0587 51.328 69.0587 50.64ZM74.0747 50.652C74.0747 50.14 73.9307 49.736 73.6427 49.44C73.3627 49.144 73.0187 48.996 72.6107 48.996C72.2027 48.996 71.8547 49.144 71.5667 49.44C71.2867 49.728 71.1467 50.128 71.1467 50.64C71.1467 51.152 71.2867 51.56 71.5667 51.864C71.8547 52.16 72.2027 52.308 72.6107 52.308C73.0187 52.308 73.3627 52.16 73.6427 51.864C73.9307 51.568 74.0747 51.164 74.0747 50.652ZM80.6232 52.08L82.0752 47.304H84.2592L81.8832 54H79.3512L76.9752 47.304H79.1712L80.6232 52.08ZM91.4349 50.544C91.4349 50.736 91.4229 50.936 91.3989 51.144H86.7549C86.7869 51.56 86.9189 51.88 87.1509 52.104C87.3909 52.32 87.6829 52.428 88.0269 52.428C88.5389 52.428 88.8949 52.212 89.0949 51.78H91.2789C91.1669 52.22 90.9629 52.616 90.6669 52.968C90.3789 53.32 90.0149 53.596 89.5749 53.796C89.1349 53.996 88.6429 54.096 88.0989 54.096C87.4429 54.096 86.8589 53.956 86.3469 53.676C85.8349 53.396 85.4349 52.996 85.1469 52.476C84.8589 51.956 84.7149 51.348 84.7149 50.652C84.7149 49.956 84.8549 49.348 85.1349 48.828C85.4229 48.308 85.8229 47.908 86.3349 47.628C86.8469 47.348 87.4349 47.208 88.0989 47.208C88.7469 47.208 89.3229 47.344 89.8269 47.616C90.3309 47.888 90.7229 48.276 91.0029 48.78C91.2909 49.284 91.4349 49.872 91.4349 50.544ZM89.3349 50.004C89.3349 49.652 89.2149 49.372 88.9749 49.164C88.7349 48.956 88.4349 48.852 88.0749 48.852C87.7309 48.852 87.4389 48.952 87.1989 49.152C86.9669 49.352 86.8229 49.636 86.7669 50.004H89.3349ZM94.5694 45.12V54H92.5174V45.12H94.5694ZM97.0165 54.096C96.6565 54.096 96.3605 53.992 96.1285 53.784C95.9045 53.568 95.7925 53.304 95.7925 52.992C95.7925 52.672 95.9045 52.404 96.1285 52.188C96.3605 51.972 96.6565 51.864 97.0165 51.864C97.3685 51.864 97.6565 51.972 97.8805 52.188C98.1125 52.404 98.2285 52.672 98.2285 52.992C98.2285 53.304 98.1125 53.568 97.8805 53.784C97.6565 53.992 97.3685 54.096 97.0165 54.096ZM111.526 45.576V54H109.474V48.948L107.59 54H105.934L104.038 48.936V54H101.986V45.576H104.41L106.774 51.408L109.114 45.576H111.526ZM119.314 50.544C119.314 50.736 119.302 50.936 119.278 51.144H114.634C114.666 51.56 114.798 51.88 115.03 52.104C115.27 52.32 115.562 52.428 115.906 52.428C116.418 52.428 116.774 52.212 116.974 51.78H119.158C119.046 52.22 118.842 52.616 118.546 52.968C118.258 53.32 117.894 53.596 117.454 53.796C117.014 53.996 116.522 54.096 115.978 54.096C115.322 54.096 114.738 53.956 114.226 53.676C113.714 53.396 113.314 52.996 113.026 52.476C112.738 51.956 112.594 51.348 112.594 50.652C112.594 49.956 112.734 49.348 113.014 48.828C113.302 48.308 113.702 47.908 114.214 47.628C114.726 47.348 115.314 47.208 115.978 47.208C116.626 47.208 117.202 47.344 117.706 47.616C118.21 47.888 118.602 48.276 118.882 48.78C119.17 49.284 119.314 49.872 119.314 50.544ZM117.214 50.004C117.214 49.652 117.094 49.372 116.854 49.164C116.614 48.956 116.314 48.852 115.954 48.852C115.61 48.852 115.318 48.952 115.078 49.152C114.846 49.352 114.702 49.636 114.646 50.004H117.214ZM126.708 50.544C126.708 50.736 126.696 50.936 126.672 51.144H122.028C122.06 51.56 122.192 51.88 122.424 52.104C122.664 52.32 122.956 52.428 123.3 52.428C123.812 52.428 124.168 52.212 124.368 51.78H126.552C126.44 52.22 126.236 52.616 125.94 52.968C125.652 53.32 125.288 53.596 124.848 53.796C124.408 53.996 123.916 54.096 123.372 54.096C122.716 54.096 122.132 53.956 121.62 53.676C121.108 53.396 120.708 52.996 120.42 52.476C120.132 51.956 119.988 51.348 119.988 50.652C119.988 49.956 120.128 49.348 120.408 48.828C120.696 48.308 121.096 47.908 121.608 47.628C122.12 47.348 122.708 47.208 123.372 47.208C124.02 47.208 124.596 47.344 125.1 47.616C125.604 47.888 125.996 48.276 126.276 48.78C126.564 49.284 126.708 49.872 126.708 50.544ZM124.608 50.004C124.608 49.652 124.488 49.372 124.248 49.164C124.008 48.956 123.708 48.852 123.348 48.852C123.004 48.852 122.712 48.952 122.472 49.152C122.24 49.352 122.096 49.636 122.04 50.004H124.608ZM131.523 52.26V54H130.479C129.735 54 129.155 53.82 128.739 53.46C128.323 53.092 128.115 52.496 128.115 51.672V49.008H127.299V47.304H128.115V45.672H130.167V47.304H131.511V49.008H130.167V51.696C130.167 51.896 130.215 52.04 130.311 52.128C130.407 52.216 130.567 52.26 130.791 52.26H131.523ZM133.626 54.096C133.266 54.096 132.97 53.992 132.738 53.784C132.514 53.568 132.402 53.304 132.402 52.992C132.402 52.672 132.514 52.404 132.738 52.188C132.97 51.972 133.266 51.864 133.626 51.864C133.978 51.864 134.266 51.972 134.49 52.188C134.722 52.404 134.838 52.672 134.838 52.992C134.838 53.304 134.722 53.568 134.49 53.784C134.266 53.992 133.978 54.096 133.626 54.096Z" fill="#121212"/>
<path d="M141.752 45.576C142.64 45.576 143.416 45.752 144.08 46.104C144.744 46.456 145.256 46.952 145.616 47.592C145.984 48.224 146.168 48.956 146.168 49.788C146.168 50.612 145.984 51.344 145.616 51.984C145.256 52.624 144.74 53.12 144.068 53.472C143.404 53.824 142.632 54 141.752 54H138.596V45.576H141.752ZM141.62 52.224C142.396 52.224 143 52.012 143.432 51.588C143.864 51.164 144.08 50.564 144.08 49.788C144.08 49.012 143.864 48.408 143.432 47.976C143 47.544 142.396 47.328 141.62 47.328H140.648V52.224H141.62ZM146.906 50.64C146.906 49.952 147.034 49.348 147.29 48.828C147.554 48.308 147.91 47.908 148.358 47.628C148.806 47.348 149.306 47.208 149.858 47.208C150.33 47.208 150.742 47.304 151.094 47.496C151.454 47.688 151.73 47.94 151.922 48.252V47.304H153.974V54H151.922V53.052C151.722 53.364 151.442 53.616 151.082 53.808C150.73 54 150.318 54.096 149.846 54.096C149.302 54.096 148.806 53.956 148.358 53.676C147.91 53.388 147.554 52.984 147.29 52.464C147.034 51.936 146.906 51.328 146.906 50.64ZM151.922 50.652C151.922 50.14 151.778 49.736 151.49 49.44C151.21 49.144 150.866 48.996 150.458 48.996C150.05 48.996 149.702 49.144 149.414 49.44C149.134 49.728 148.994 50.128 148.994 50.64C148.994 51.152 149.134 51.56 149.414 51.864C149.702 52.16 150.05 52.308 150.458 52.308C150.866 52.308 151.21 52.16 151.49 51.864C151.778 51.568 151.922 51.164 151.922 50.652ZM159.539 47.232C160.323 47.232 160.947 47.488 161.411 48C161.883 48.504 162.119 49.2 162.119 50.088V54H160.079V50.364C160.079 49.916 159.963 49.568 159.731 49.32C159.499 49.072 159.187 48.948 158.795 48.948C158.403 48.948 158.091 49.072 157.859 49.32C157.627 49.568 157.511 49.916 157.511 50.364V54H155.459V47.304H157.511V48.192C157.719 47.896 157.999 47.664 158.351 47.496C158.703 47.32 159.099 47.232 159.539 47.232ZM163.137 50.652C163.137 49.956 163.277 49.348 163.557 48.828C163.845 48.308 164.241 47.908 164.745 47.628C165.257 47.348 165.841 47.208 166.497 47.208C167.337 47.208 168.037 47.428 168.597 47.868C169.165 48.308 169.537 48.928 169.713 49.728H167.529C167.345 49.216 166.989 48.96 166.461 48.96C166.085 48.96 165.785 49.108 165.561 49.404C165.337 49.692 165.225 50.108 165.225 50.652C165.225 51.196 165.337 51.616 165.561 51.912C165.785 52.2 166.085 52.344 166.461 52.344C166.989 52.344 167.345 52.088 167.529 51.576H169.713C169.537 52.36 169.165 52.976 168.597 53.424C168.029 53.872 167.329 54.096 166.497 54.096C165.841 54.096 165.257 53.956 164.745 53.676C164.241 53.396 163.845 52.996 163.557 52.476C163.277 51.956 163.137 51.348 163.137 50.652ZM177.122 50.544C177.122 50.736 177.11 50.936 177.086 51.144H172.442C172.474 51.56 172.606 51.88 172.838 52.104C173.078 52.32 173.37 52.428 173.714 52.428C174.226 52.428 174.582 52.212 174.782 51.78H176.966C176.854 52.22 176.65 52.616 176.354 52.968C176.066 53.32 175.702 53.596 175.262 53.796C174.822 53.996 174.33 54.096 173.786 54.096C173.13 54.096 172.546 53.956 172.034 53.676C171.522 53.396 171.122 52.996 170.834 52.476C170.546 51.956 170.402 51.348 170.402 50.652C170.402 49.956 170.542 49.348 170.822 48.828C171.11 48.308 171.51 47.908 172.022 47.628C172.534 47.348 173.122 47.208 173.786 47.208C174.434 47.208 175.01 47.344 175.514 47.616C176.018 47.888 176.41 48.276 176.69 48.78C176.978 49.284 177.122 49.872 177.122 50.544ZM175.022 50.004C175.022 49.652 174.902 49.372 174.662 49.164C174.422 48.956 174.122 48.852 173.762 48.852C173.418 48.852 173.126 48.952 172.886 49.152C172.654 49.352 172.51 49.636 172.454 50.004H175.022ZM179.165 54.096C178.805 54.096 178.509 53.992 178.277 53.784C178.053 53.568 177.941 53.304 177.941 52.992C177.941 52.672 178.053 52.404 178.277 52.188C178.509 51.972 178.805 51.864 179.165 51.864C179.517 51.864 179.805 51.972 180.029 52.188C180.261 52.404 180.377 52.672 180.377 52.992C180.377 53.304 180.261 53.568 180.029 53.784C179.805 53.992 179.517 54.096 179.165 54.096Z" fill="#F1023D"/>
</svg>
