<svg
  viewBox="0 0 24 24"
  class="fill-current"
  xmlns="http://www.w3.org/2000/svg"
  width="24"
  height="24"
>
  <path
    d="M17 5H3C1.9 5 1 5.89 1 7V16H3C3 17.65 4.34 19 6 19C7.66 19 9 17.65 9 16H14.5C14.5 17.65 15.84 19 17.5 19C19.16 19 20.5 17.65 20.5 16H23V11L17 5ZM3 11V7H7V11H3ZM6 17.5C5.17 17.5 4.5 16.83 4.5 16C4.5 15.17 5.17 14.5 6 14.5C6.83 14.5 7.5 15.17 7.5 16C7.5 16.83 6.83 17.5 6 17.5ZM13 11H9V7H13V11ZM17.5 17.5C16.67 17.5 16 16.83 16 16C16 15.17 16.67 14.5 17.5 14.5C18.33 14.5 19 15.17 19 16C19 16.83 18.33 17.5 17.5 17.5ZM15 11V7H16L20 11H15Z"
  />
</svg>
