<svg width="86" height="87" viewBox="0 0 86 87" fill="none" xmlns="http://www.w3.org/2000/svg">
<g filter="url(#filter0_dd_4005_8082)">
<rect x="3" y="2.14844" width="80" height="80" rx="40" fill="white"/>
<path d="M61.8185 31.5235C57.3465 31.475 52.8744 31.4772 48.4024 31.4574C46.5561 31.4574 36.9988 31.3627 36.0357 31.4133C33.6237 31.5433 32.205 33.0813 32.1488 35.5225C32.1273 36.5779 32.4317 37.9836 31.8941 38.5917C31.3564 39.1998 29.9506 39.0786 28.9163 39.2152C27.7567 39.3695 26.5885 39.5634 25.4268 39.5435C24.8209 39.516 24.2164 39.6218 23.6541 39.8537C23.0919 40.0856 22.5852 40.4382 22.1683 40.8876C20.7733 42.3638 19.4863 43.9435 18.1108 45.4374C17.0642 46.6143 15.9578 47.7344 14.7962 48.793C13.1572 50.2362 12.6174 51.5802 13.2695 53.6843C14.2391 56.802 16.2127 59.0934 19.2488 60.1709C20.268 60.5344 21.6737 60.563 22.6303 60.1246C23.9477 59.5195 25.3846 59.2344 26.8282 59.2917C27.2561 59.292 27.6707 59.1401 28.0007 58.8621C28.2015 58.6792 28.2944 58.0931 28.154 57.8706C28.0391 57.6947 27.8906 57.5443 27.7173 57.4284C27.544 57.3126 27.3495 57.2337 27.1456 57.1964C25.4181 57.0686 23.7403 57.1193 22.0905 57.9918C21.3693 58.373 20.1363 58.2826 19.3611 57.9125C18.3434 57.4471 17.4441 56.7493 16.7327 55.8729C16.0213 54.9965 15.5169 53.965 15.2583 52.8581C15.1179 52.2808 15.2583 51.2365 15.6383 50.9853C18.249 49.2557 19.8556 46.6051 21.7969 44.2674C23.1508 42.6348 24.6429 41.5574 26.9232 41.5684C28.9616 41.5794 31 41.0748 33.0406 40.8215C33.9368 40.7113 34.2801 40.2266 34.2521 39.3254C34.2175 38.1334 34.2521 36.9414 34.2521 35.7495C34.2672 34.1521 34.7703 33.5924 36.3445 33.5792C38.9638 33.5572 41.581 33.5924 44.2003 33.6034C49.8017 33.6284 55.4016 33.6519 61.0002 33.6739C63.6994 33.6872 64.1593 34.2468 63.7512 37.1419L43.6237 37.056C42.1748 37.056 40.7237 37.056 39.2726 37.0252C38.4844 37.0252 37.7135 37.1353 37.7092 38.1268C37.7049 39.1183 38.5168 39.2064 39.2812 39.2108L62.1252 39.3012C62.6477 39.3012 63.1725 39.3122 63.8332 39.3188C63.8332 40.1715 63.8592 41.0153 63.857 41.8614C63.857 44.4525 63.8476 47.0421 63.8289 49.6303C63.8289 51.4348 63.3063 51.9768 61.5205 51.9724C54.9129 51.9547 48.3052 51.9276 41.6976 51.8909C39.8837 51.8909 38.072 51.8908 36.2581 51.86C35.3771 51.8468 34.5587 51.6793 34.2434 50.5138C35.688 49.6765 37.178 48.8877 38.5924 47.9778C40.3847 46.8233 40.6978 44.6927 39.1668 43.4346C38.5406 42.9212 37.4803 42.7604 36.6274 42.7868C35.7291 42.8154 34.8394 43.2517 33.9519 43.5227C32.2698 44.0361 30.6632 44.6244 28.7867 44.1374C27.802 43.884 26.5755 44.3578 25.5347 44.7191C25.1741 44.8469 24.7897 45.693 24.8631 46.1358C24.9841 46.8783 25.6448 46.8607 26.3229 46.6822C27.0895 46.4795 27.9661 46.1755 28.6722 46.376C30.6913 46.9444 32.4836 46.2394 34.3233 45.6775C35.0964 45.4418 35.8565 45.1355 36.6468 44.9901C37.0441 44.9152 37.4911 45.1267 37.9165 45.2104C37.6725 45.5872 37.5062 46.0918 37.165 46.3121C36.1523 46.9731 35.0186 47.4622 34.0296 48.1629C32.5686 49.1579 31.1761 50.2541 29.8621 51.4436C27.6552 53.5169 26.5863 53.7813 23.9281 52.4439C23.2458 52.1024 22.6325 52.0561 22.2849 52.7986C21.9372 53.5411 22.3799 54.0347 23.0017 54.3938C25.6772 55.9361 28.5362 55.6056 30.8165 53.4816C31.3197 53.0145 31.7904 52.51 32.3691 51.9393C33.6107 53.8386 35.4441 54.0589 37.4587 54.0545C45.3555 54.0369 53.2523 54.1074 61.147 54.125C61.8741 54.1451 62.6005 54.0643 63.3063 53.8848C65.0036 53.4001 65.9365 52.1442 65.9516 50.3596C65.9948 45.3845 66.0164 40.4102 66.0164 35.4366C66.025 33.0284 64.4313 31.55 61.8185 31.5235Z" fill="#F1023D"/>
<path d="M60.8007 47.4118C57.9847 47.3913 55.174 47.3804 52.3685 47.3789C51.5927 47.3789 50.7634 47.3921 50.7656 48.4351C50.7656 49.4452 51.566 49.5307 52.3552 49.5307C55.2452 49.5416 58.1352 49.5855 61.0363 49.5307C61.4943 49.5197 62.2256 49.3817 62.3568 48.7331C62.3719 48.712 62.3814 48.6875 62.3845 48.6619C62.3876 48.6363 62.3842 48.6103 62.3746 48.5863C62.4991 47.4162 61.1519 47.414 60.8007 47.4118Z" fill="#F1023D"/>
<path d="M43.633 19.6752C44.0591 19.5189 44.4619 19.3478 44.8838 19.2063C46.8934 18.4948 49.0394 18.2429 51.1612 18.4693C52.721 18.6668 54.2469 19.0717 55.6977 19.6731C55.8363 19.738 55.9869 19.7741 56.1401 19.7791C56.2933 19.7841 56.446 19.7579 56.5886 19.702C56.7312 19.6462 56.8607 19.562 56.9692 19.4546C57.0776 19.3472 57.1627 19.2188 57.2191 19.0775C57.4492 18.4968 57.1786 17.8928 56.5415 17.6267C54.3361 16.7038 52.0455 16.1611 49.8784 16.1484C47.4318 16.1472 45.0117 16.6507 42.7721 17.6267C42.6327 17.6764 42.505 17.7536 42.3967 17.8537C42.2883 17.9537 42.2016 18.0746 42.1419 18.2089C42.0821 18.3432 42.0504 18.4881 42.0489 18.6349C42.0473 18.7817 42.0759 18.9272 42.1329 19.0627C42.1871 19.2034 42.2698 19.3316 42.3758 19.4395C42.4818 19.5474 42.609 19.6326 42.7495 19.69C42.89 19.7473 43.0409 19.7756 43.1928 19.773C43.3447 19.7705 43.4945 19.7372 43.633 19.6752Z" fill="#F1023D"/>
<path d="M54.1876 24.7834C54.4236 24.7496 54.6431 24.6223 54.8106 24.422C54.9781 24.2218 55.0839 23.9603 55.1108 23.6799C55.1472 23.3868 55.0966 23.0878 54.9678 22.8341C54.8389 22.5804 54.6397 22.3879 54.4044 22.2894C52.9768 21.5902 51.4475 21.2304 49.9032 21.2305C49.1928 21.2678 48.4847 21.3504 47.7818 21.4779C46.8205 21.7224 45.8703 22.0255 44.9352 22.3859C44.674 22.4913 44.4587 22.7153 44.3365 23.0089C44.2142 23.3025 44.195 23.6417 44.283 23.9521C44.3626 24.2544 44.5326 24.5117 44.7611 24.6753C44.9895 24.839 45.2605 24.8976 45.5229 24.8403C45.713 24.7901 45.8997 24.7232 46.0814 24.6399C48.5632 23.6255 51.0431 23.5438 53.5208 24.6696C53.7324 24.7694 53.9609 24.8084 54.1876 24.7834Z" fill="#F1023D"/>
<path d="M52.0369 27.2829C50.4642 26.963 48.8303 26.963 47.2576 27.2829H47.2342C47.0939 27.3137 46.962 27.369 46.8462 27.4455C46.7303 27.5221 46.6328 27.6183 46.5593 27.7287C46.4858 27.8391 46.4379 27.9613 46.4183 28.0883C46.3987 28.2153 46.4078 28.3445 46.4451 28.4684C46.4774 28.5962 46.5387 28.7169 46.6253 28.823C46.7119 28.9291 46.822 29.0184 46.9488 29.0855C47.0756 29.1526 47.2164 29.1961 47.3627 29.2134C47.5091 29.2306 47.6579 29.2212 47.8 29.1857C49.0258 28.8864 50.3198 28.8864 51.5456 29.1857C51.6844 29.2202 51.8296 29.23 51.9727 29.2144C52.1158 29.1987 52.254 29.1581 52.3793 29.0947C52.5045 29.0313 52.6143 28.9464 52.7024 28.8451C52.7904 28.7437 52.8548 28.6279 52.892 28.5042C52.938 28.3792 52.954 28.2471 52.939 28.1163C52.9241 27.9855 52.8785 27.8589 52.8052 27.7446C52.7319 27.6303 52.6325 27.5309 52.5134 27.4527C52.3943 27.3745 52.2581 27.3192 52.1135 27.2905L52.0369 27.2829Z" fill="#F1023D"/>
</g>
<defs>
<filter id="filter0_dd_4005_8082" x="0" y="0.148438" width="86" height="86" filterUnits="userSpaceOnUse" color-interpolation-filters="sRGB">
<feFlood flood-opacity="0" result="BackgroundImageFix"/>
<feColorMatrix in="SourceAlpha" type="matrix" values="0 0 0 0 0 0 0 0 0 0 0 0 0 0 0 0 0 0 127 0" result="hardAlpha"/>
<feOffset dy="1"/>
<feGaussianBlur stdDeviation="1"/>
<feColorMatrix type="matrix" values="0 0 0 0 0 0 0 0 0 0 0 0 0 0 0 0 0 0 0.06 0"/>
<feBlend mode="normal" in2="BackgroundImageFix" result="effect1_dropShadow_4005_8082"/>
<feColorMatrix in="SourceAlpha" type="matrix" values="0 0 0 0 0 0 0 0 0 0 0 0 0 0 0 0 0 0 127 0" result="hardAlpha"/>
<feOffset dy="1"/>
<feGaussianBlur stdDeviation="1.5"/>
<feColorMatrix type="matrix" values="0 0 0 0 0 0 0 0 0 0 0 0 0 0 0 0 0 0 0.1 0"/>
<feBlend mode="normal" in2="effect1_dropShadow_4005_8082" result="effect2_dropShadow_4005_8082"/>
<feBlend mode="normal" in="SourceGraphic" in2="effect2_dropShadow_4005_8082" result="shape"/>
</filter>
</defs>
</svg>
