<svg width="24" height="24" viewBox="0 0 24 24" fill="none" xmlns="http://www.w3.org/2000/svg">
<path d="M16.0406 8.1112C16.3002 7.17079 16.2366 6.00997 15.7272 5.15528C15.0023 3.93569 14.0766 2.86549 12.7835 2.28018C11.9998 1.92753 8.78921 1.06304 6.51656 3.561C5.58105 4.52834 5.05941 5.66957 5.24309 7.03855C5.40962 8.26059 5.9239 9.36997 6.59737 10.3814C7.6088 11.8998 8.96799 13.0998 10.3982 14.2141C10.5304 14.3169 10.6284 14.2973 10.7582 14.2239C11.7157 13.6802 12.5998 13.0385 13.3884 12.2696C14.6006 11.0941 15.5827 9.76671 16.0406 8.1112Z" fill="black"/>
<path d="M15.8131 15.8891C14.8678 15.9258 13.9322 16.0556 13.0286 16.3666C12.9845 16.3838 12.9404 16.4034 12.8596 16.4377C12.9551 16.5405 13.031 16.6238 13.1069 16.7095C13.8833 17.5666 14.5273 18.5021 14.8776 19.6238C15.289 20.9487 14.7649 21.867 13.6947 22.5087C11.7673 23.6621 9.23755 22.5626 8.75265 20.3658C8.50775 19.2589 8.8702 18.3087 9.60245 17.5005C9.99184 17.0695 10.4645 16.7119 10.9004 16.3226C10.9665 16.2638 11.0424 16.2124 11.1453 16.1364C10.8759 15.9013 10.6286 15.6785 10.369 15.4728C10.32 15.4336 10.2073 15.4458 10.1388 15.4728C8.45143 16.0924 6.68816 16.2687 4.91265 16.3201C3.32327 16.3666 1.73388 16.3642 0.14449 16.3691C0.0955102 16.3715 0.0489796 16.3691 0 16.3666V22.7242C0 23.4295 0.570612 24.0001 1.27592 24.0001H22.7216C23.4269 24.0001 23.9976 23.4295 23.9976 22.7242V15.987C22.4914 15.9283 20.9853 15.8719 19.4767 15.8328C18.2596 15.8009 17.0351 15.8401 15.8131 15.8891Z" fill="black"/>
<path d="M4.1902 15.3404C5.96816 15.2522 7.75837 15.2449 9.49959 14.8041C9.50449 14.7771 9.51184 14.7502 9.51673 14.7233C9.16898 14.4392 8.82612 14.1478 8.47592 13.8686C7.29551 12.9306 6.2498 11.8629 5.45388 10.5747C4.75102 9.43592 4.28327 8.22612 4.30041 6.86694C4.31755 5.29959 4.9298 3.97714 6 2.85551C7.04082 1.76571 8.33388 1.2098 9.82286 1.0702C10.9371 0.967347 12.0318 1.03347 13.0751 1.46939C14.5469 2.08408 15.551 3.19837 16.3298 4.5551C17.3241 6.28653 17.1967 8.0351 16.3959 9.77633C15.382 11.9731 13.7143 13.5649 11.6522 14.7771C11.5665 14.8286 11.4833 14.88 11.4808 14.8727C11.6865 15.1249 11.8849 15.3796 12.1004 15.6245C12.1347 15.6637 12.24 15.671 12.2988 15.6514C13.4033 15.289 14.542 15.1029 15.6931 15.0073C16.4327 14.9461 17.182 14.9339 17.9265 14.9363C19.9518 14.9437 21.9747 14.9486 23.9976 14.9951V1.27592C23.9976 0.570612 23.4269 0 22.7216 0H1.27592C0.570612 0 0 0.570612 0 1.27592V15.3331C1.39837 15.4139 2.79429 15.409 4.1902 15.3404Z" fill="black"/>
<path d="M11.7969 16.957C10.6973 17.6623 9.90631 18.6125 9.62468 19.9055C9.41896 20.8508 9.83529 21.6076 10.6826 21.8941C10.9863 21.997 11.3194 22.0141 11.5814 22.0606C11.939 22.0166 12.2353 22.0117 12.5169 21.9406C12.8132 21.8672 13.1169 21.7692 13.379 21.6174C14.1553 21.1643 14.3316 20.3855 13.9079 19.4231C13.4843 18.4606 12.7863 17.7064 12.0541 16.9766C12.0051 16.93 11.8557 16.9202 11.7969 16.957Z" fill="black"/>
</svg>
