<svg width="175" height="129" viewBox="0 0 175 129" fill="none" xmlns="http://www.w3.org/2000/svg">
<g clip-path="url(#clip0_1450_6328)">
<g clip-path="url(#clip1_1450_6328)">
<mask id="mask0_1450_6328" style="mask-type:alpha" maskUnits="userSpaceOnUse" x="4" y="-5" width="167" height="134">
<path d="M170.766 -4.15918H4.23389V128.932H170.766V-4.15918Z" fill="white"/>
</mask>
<g mask="url(#mask0_1450_6328)">
<path fill-rule="evenodd" clip-rule="evenodd" d="M147.752 120.676C147.68 120.658 147.602 120.634 147.53 120.616C147.26 119.252 146.959 117.894 146.61 116.549C146.226 114.975 145.775 113.419 145.3 111.863C144.807 110.319 144.26 108.787 143.654 107.279C143.028 105.783 142.379 104.287 141.592 102.863C141.772 103.17 141.953 103.476 142.127 103.788C142.151 103.831 142.175 103.879 142.199 103.921C142.379 104.239 142.548 104.557 142.716 104.882C142.896 105.224 143.071 105.573 143.245 105.921C143.587 106.618 143.911 107.327 144.218 108.048C144.375 108.408 144.525 108.775 144.669 109.141C144.813 109.508 144.958 109.874 145.096 110.247C145.234 110.613 145.366 110.992 145.492 111.364C145.612 111.712 145.727 112.067 145.841 112.415C145.853 112.451 145.865 112.487 145.877 112.523C145.979 112.86 146.082 113.196 146.178 113.533C146.291 113.893 146.394 114.26 146.49 114.626C146.61 115.065 146.725 115.509 146.833 115.954C146.838 115.984 146.844 116.008 146.851 116.032C146.953 116.464 147.055 116.897 147.145 117.33C147.199 117.588 147.254 117.84 147.302 118.092C147.332 118.225 147.356 118.363 147.38 118.495C147.439 118.819 147.5 119.138 147.554 119.456C147.626 119.865 147.692 120.267 147.752 120.676Z" fill="#EDB39D"/>
<path fill-rule="evenodd" clip-rule="evenodd" d="M233.619 62.3418C232.561 71.5875 229.574 80.5808 224.922 88.637C223.714 90.7336 222.391 92.7582 220.974 94.7167C210.221 109.531 194.342 119.282 176.252 122.153C170.537 123.06 160.734 122.285 154.243 121.553C156.587 115.719 159.964 107.861 162.423 104.419C166.204 104.659 170.025 104.467 173.8 103.83C186.83 101.637 198.243 94.5605 206.014 83.8609C213.28 73.8403 216.526 61.7591 215.312 49.5637C215.029 46.7762 212.553 45.3644 211.892 42.9073C211.484 41.3814 212.908 41.1651 213.695 41.3994C215.552 41.9401 217.121 42.7992 218.341 44.271C217.704 42.4087 216.688 40.5583 215.871 38.738C213.743 33.98 211.844 29.1319 213.352 27.8042C214.001 27.2455 215.901 31.6791 218.335 36.0406C218.678 36.6534 219.026 37.2722 219.386 37.8669C219.207 37.1701 219.032 36.4371 218.863 35.6742C217.505 29.6906 216.448 22.2833 217.344 21.8748C218.269 21.4723 220.636 28.5732 222.753 34.3465C222.92 34.7971 223.089 35.2176 223.239 35.6441L223.456 35.6081C223.378 35.1876 223.312 34.749 223.233 34.2984C222.241 28.6153 221.358 22.4455 222.187 22.2232C223.095 21.9589 225.529 29.1019 227.38 35.0133C227.602 35.7403 227.825 36.4552 228.029 37.134C228.023 36.5212 227.993 35.9025 227.957 35.2837C227.615 30.003 226.269 24.6863 227.001 24.7644C227.609 24.8245 228.192 26.5667 228.384 26.9932C229.195 28.7835 229.856 30.6398 230.47 32.5022C231.467 35.536 232.267 38.6539 232.855 41.8079C234.111 48.5724 234.394 55.5292 233.619 62.3418Z" fill="#EDB39D"/>
<path fill-rule="evenodd" clip-rule="evenodd" d="M148.131 123.74C147.938 122.7 147.745 121.655 147.53 120.616C147.259 119.252 146.959 117.894 146.61 116.549C146.225 114.975 145.775 113.419 145.3 111.863C144.807 110.319 144.26 108.787 143.653 107.279C143.028 105.783 142.379 104.287 141.592 102.863C141.772 103.17 141.952 103.476 142.126 103.788C142.15 103.831 142.175 103.879 142.199 103.921C142.379 104.239 142.547 104.557 142.715 104.882C142.896 105.224 143.07 105.573 143.244 105.921C143.586 106.618 143.911 107.327 144.218 108.048C144.374 108.408 144.524 108.775 144.669 109.141C144.812 109.508 144.957 109.874 145.095 110.247C145.234 110.613 145.365 110.992 145.492 111.364C145.612 111.712 145.727 112.067 145.84 112.415C145.853 112.451 145.864 112.487 145.877 112.523C145.979 112.86 146.081 113.196 146.177 113.533C146.291 113.893 146.393 114.26 146.49 114.626C146.61 115.065 146.724 115.509 146.832 115.954C146.838 115.984 146.844 116.008 146.85 116.032C146.953 116.464 147.055 116.897 147.144 117.33C147.199 117.588 147.253 117.84 147.301 118.092C147.331 118.225 147.355 118.363 147.379 118.495C147.439 118.819 147.499 119.138 147.554 119.456C147.626 119.865 147.692 120.267 147.752 120.676C147.866 121.439 147.968 122.202 148.046 122.965C148.064 123.091 148.094 123.379 148.131 123.74Z" fill="#2A8C79"/>
<path fill-rule="evenodd" clip-rule="evenodd" d="M148.131 123.74C147.938 122.7 147.745 121.655 147.53 120.616C147.259 119.252 146.959 117.894 146.61 116.549C146.225 114.975 145.775 113.419 145.3 111.863C144.807 110.319 144.26 108.787 143.653 107.279C143.028 105.783 142.379 104.287 141.592 102.863C141.772 103.17 141.952 103.476 142.126 103.788C142.15 103.831 142.175 103.879 142.199 103.921C142.379 104.239 142.547 104.557 142.715 104.882C142.896 105.224 143.07 105.573 143.244 105.921C143.586 106.618 143.911 107.327 144.218 108.048C144.374 108.408 144.524 108.775 144.669 109.141C144.812 109.508 144.957 109.874 145.095 110.247C145.234 110.613 145.365 110.992 145.492 111.364C145.612 111.712 145.727 112.067 145.84 112.415C145.853 112.451 145.864 112.487 145.877 112.523C145.979 112.86 146.081 113.196 146.177 113.533C146.291 113.893 146.393 114.26 146.49 114.626C146.61 115.065 146.724 115.509 146.832 115.954C146.838 115.984 146.844 116.008 146.85 116.032C146.953 116.464 147.055 116.897 147.144 117.33C147.199 117.588 147.253 117.84 147.301 118.092C147.331 118.225 147.355 118.363 147.379 118.495C147.439 118.819 147.499 119.138 147.554 119.456C147.626 119.865 147.692 120.267 147.752 120.676C147.866 121.439 147.968 122.202 148.046 122.965C148.064 123.091 148.094 123.379 148.131 123.74Z" fill="#EDB39D"/>
<path fill-rule="evenodd" clip-rule="evenodd" d="M87.4344 172.004C86.8274 171.974 86.2504 171.848 85.6795 171.698C85.1145 171.554 84.5856 171.296 84.0387 171.079C82.9449 170.659 81.857 170.214 80.7752 169.758C80.7572 169.752 80.7512 169.734 80.7572 169.722C80.7632 169.704 80.7812 169.697 80.7932 169.704C81.9291 169.992 83.0651 170.304 84.189 170.629C84.7539 170.791 85.3309 170.899 85.8718 171.133C86.4127 171.356 86.9476 171.602 87.4524 171.95C87.4645 171.956 87.4711 171.974 87.4584 171.992C87.4524 171.998 87.4404 172.004 87.4344 172.004ZM103.265 133.304L93.3904 129.242L85.8417 126.143L51.422 213.433C51.0314 214.081 50.6527 214.742 50.2921 215.427C49.0541 217.824 48.0143 220.365 47.1068 222.786C45.7785 226.319 44.4323 229.887 43.3084 233.492C43.1161 234.117 40.9945 241.722 42.509 241.08C44.4022 240.281 48.1285 231.954 49.9375 229.659L50.19 227.965C50.3402 227.01 50.4664 226.067 50.6527 225.111C50.6648 225.063 50.7128 225.033 50.7609 225.039C50.8096 225.051 50.8391 225.099 50.833 225.147L50.827 225.159C50.6353 226.085 50.4965 227.04 50.3348 227.989L50.0998 229.461C50.1539 229.401 50.2086 229.347 50.2561 229.299C50.1178 230.392 49.613 232.945 49.1682 235.456L49.1442 235.577L49 236.52C49 236.532 48.9879 236.544 48.9759 236.538H48.9699C48.5071 239.241 48.1826 241.632 48.5432 241.758C49.7632 242.185 51.969 238.496 53.5737 233.426L53.2136 234.291C53.2136 234.297 53.201 234.303 53.195 234.297C53.1896 234.297 53.183 234.285 53.1896 234.279L53.76 232.819L53.8147 232.669C53.9222 232.344 54.0845 231.93 54.2889 231.449L54.3369 231.335L55.1303 229.311C55.8034 227.665 56.5787 226.031 57.7326 224.643C58.3096 223.952 58.9707 223.327 59.71 222.816C60.4552 222.306 61.2305 221.867 61.9938 221.423C63.5382 220.552 65.0708 219.626 66.1947 218.233C66.2007 218.227 66.2127 218.227 66.2187 218.233C66.2247 218.239 66.2247 218.245 66.2187 218.251C65.2337 219.765 63.6644 220.78 62.1501 221.681C61.9283 221.813 61.6993 221.939 61.4775 222.066C61.9638 222.06 62.4085 222.282 62.8058 222.804C63.6284 223.91 63.1716 227.358 62.8533 230.41C62.6309 232.471 62.4566 234.339 62.7691 235.21C64.7829 240.839 68.0218 231.359 68.5867 229.491C70.3657 223.603 70.564 217.199 73.3407 211.63C73.509 211.288 77.8723 199.934 83.6841 184.771C87.5486 174.696 92.0502 162.939 96.3835 151.603V151.597C98.8115 145.259 101.18 139.053 103.361 133.346L103.265 133.304Z" fill="#EDB39D"/>
<path fill-rule="evenodd" clip-rule="evenodd" d="M143.245 105.921C143.593 106.618 143.918 107.327 144.219 108.048C143.911 107.327 143.587 106.618 143.245 105.921ZM144.952 97.3422C140.324 95.2876 135.312 91.7854 130.088 91.6833C129.782 91.6773 129.476 91.6773 129.163 91.6893C128.67 91.5091 128.159 91.3529 127.636 91.2207L127.955 91.8094L135.354 105.56L120.358 97.0899L117.924 95.7141L110.177 91.3403C108.103 91.6292 103.554 92.8067 103.302 92.8247C97.3872 93.2513 94.0161 98.4296 91.582 103.236C88 110.301 85.8003 117.606 82.7532 124.881L83.817 125.307L85.8424 126.143L93.3911 129.242L103.265 133.304L103.362 133.345L103.542 133.418L96.3835 151.597V151.603L85.1332 181.526L84.0994 196.575C84.0994 196.575 138.689 204.282 154.592 194.04C154.592 194.04 157.345 191.511 157.056 187.216C156.263 175.596 151.31 155.357 151.142 153.687C150.992 152.209 150.842 150.732 150.697 149.248C150.703 149.41 150.709 149.572 150.715 149.734C150.703 149.56 150.697 149.386 150.691 149.212V149.188C150.673 149.188 150.661 149.176 150.661 149.158C150.649 148.911 150.625 148.666 150.619 148.419C150.479 142.389 149.629 136.015 148.987 129.701C148.98 129.641 148.914 129.359 148.902 129.305C148.902 129.263 148.829 129.015 148.817 128.979C148.685 128.084 148.636 126.539 148.671 126.761C149.712 127.374 150.667 127.993 151.515 128.618C151.515 128.618 152.639 125.566 154.243 121.553C156.587 115.719 159.965 107.861 162.423 104.419C162.459 104.371 162.495 104.317 162.531 104.269C162.549 104.251 162.561 104.227 162.579 104.203C156.629 102.094 150.727 99.9134 144.952 97.3422Z" fill="#96DAD5"/>
<path fill-rule="evenodd" clip-rule="evenodd" d="M148.719 129.47C148.713 129.41 148.702 129.356 148.689 129.302C148.683 129.212 148.671 129.116 148.665 129.025C148.659 128.923 148.647 128.827 148.635 128.731C148.587 128.251 148.545 127.782 148.497 127.319C148.569 128.034 148.647 128.749 148.719 129.47Z" fill="#2A8C79"/>
<path fill-rule="evenodd" clip-rule="evenodd" d="M116.127 108.204C115.982 109.532 115.688 110.835 115.351 112.121C114.654 114.692 113.729 117.197 112.725 119.66C111.727 122.124 110.664 124.563 109.449 126.936C108.223 129.291 106.955 131.634 105.513 133.868C105.507 133.88 105.483 133.886 105.471 133.874C105.459 133.868 105.453 133.85 105.459 133.838C106.6 131.435 107.785 129.068 108.915 126.665C110.051 124.274 111.228 121.901 112.28 119.474C113.332 117.041 114.311 114.578 115.062 112.043C115.436 110.775 115.766 109.49 115.952 108.18C116.127 106.882 116.192 105.525 115.741 104.275C115.736 104.257 115.741 104.239 115.76 104.233C115.772 104.227 115.796 104.239 115.802 104.251C116.295 105.507 116.264 106.888 116.127 108.204Z" fill="#2A8C79"/>
<path fill-rule="evenodd" clip-rule="evenodd" d="M135.354 105.56L120.358 97.0897L117.924 95.714L110.177 91.3406C113.608 90.866 117.515 90.794 121.939 90.6137C122.221 90.6017 122.503 90.5957 122.78 90.5957C124.198 90.5957 125.539 90.7459 126.795 91.0162C127.077 91.0763 127.36 91.1424 127.636 91.2205L127.955 91.8092L135.354 105.56Z" fill="#EDB39D"/>
<path fill-rule="evenodd" clip-rule="evenodd" d="M150.691 149.187V149.157C150.667 148.911 150.643 148.664 150.619 148.418C150.277 142.074 149.676 135.742 148.719 129.47C148.647 128.749 148.569 128.034 148.497 127.319C148.545 127.782 148.587 128.251 148.635 128.731C148.647 128.827 148.659 128.923 148.665 129.026C148.665 129.074 148.671 129.128 148.671 129.182C148.539 128.287 148.395 127.398 148.239 126.508C148.221 126.388 148.197 126.274 148.179 126.154L148.173 126.118V126.094C147.794 124.22 147.439 122.339 147.043 120.477H147.037C146.766 119.203 146.466 117.93 146.117 116.674C145.288 113.562 144.296 110.492 143.1 107.506C141.874 104.539 140.45 101.637 138.586 99.0238C137.205 97.0893 135.557 95.2931 133.604 93.9233C133.599 93.9113 133.586 93.9053 133.575 93.8993C133.575 93.8933 133.568 93.8933 133.568 93.8933C132.913 93.4367 132.216 93.0222 131.488 92.6678C131.471 92.6617 131.464 92.6437 131.471 92.6257C131.482 92.6137 131.495 92.6077 131.512 92.6137C133.003 93.2385 134.403 94.1156 135.641 95.1729C136.26 95.7016 136.855 96.2603 137.402 96.8671C137.673 97.1734 137.949 97.4738 138.214 97.7802L138.971 98.7414C139.927 100.027 140.774 101.379 141.543 102.779C141.562 102.809 141.573 102.833 141.591 102.863C142.379 104.286 143.028 105.782 143.653 107.278C144.26 108.786 144.807 110.318 145.3 111.862C145.774 113.418 146.225 114.974 146.61 116.548C146.958 117.894 147.259 119.251 147.529 120.615C147.746 121.654 147.938 122.7 148.13 123.739C148.275 124.514 148.419 125.289 148.563 126.064V126.094C148.6 126.316 148.635 126.538 148.671 126.761C149.849 134.18 150.45 141.666 150.721 149.157C150.721 149.175 150.709 149.187 150.691 149.187Z" fill="#2A4D52"/>
<path fill-rule="evenodd" clip-rule="evenodd" d="M148.719 129.47C148.713 129.41 148.702 129.356 148.689 129.302C148.689 129.26 148.683 129.218 148.671 129.182C148.671 129.128 148.665 129.074 148.665 129.025C148.659 128.923 148.647 128.827 148.635 128.731C148.587 128.251 148.545 127.782 148.497 127.319C148.569 128.034 148.647 128.749 148.719 129.47Z" fill="#2A4D52"/>
<path fill-rule="evenodd" clip-rule="evenodd" d="M116.127 108.204C115.982 109.532 115.688 110.835 115.351 112.121C114.654 114.692 113.729 117.197 112.725 119.66C111.727 122.124 110.664 124.563 109.449 126.936C108.223 129.291 106.955 131.634 105.513 133.868C105.507 133.88 105.483 133.886 105.471 133.874C105.459 133.868 105.453 133.85 105.459 133.838C106.6 131.435 107.785 129.068 108.915 126.665C110.051 124.274 111.228 121.901 112.28 119.474C113.332 117.041 114.311 114.578 115.062 112.043C115.436 110.775 115.766 109.49 115.952 108.18C116.127 106.882 116.192 105.525 115.741 104.275C115.736 104.257 115.741 104.239 115.76 104.233C115.772 104.227 115.796 104.239 115.802 104.251C116.295 105.507 116.264 106.888 116.127 108.204Z" fill="#2A4D52"/>
<path fill-rule="evenodd" clip-rule="evenodd" d="M150.876 61.805C150.612 61.6789 150.365 61.4986 150.149 61.2944C150.042 60.7176 151.136 61.7119 151.399 61.7443C151.878 62.1474 151.014 61.9101 150.876 61.805ZM113.8 60.5734L113.751 60.6936C112.198 59.4506 109.944 61.5377 112.159 62.5139L112.147 62.556C109.892 61.7107 111.871 59.3322 113.631 60.3812C113.742 55.0651 103.286 57.5276 108.241 64.4664L108.204 64.4964C101.994 57.1046 114.617 54.4325 113.8 60.5734ZM153.827 57.3594C148.914 50.2224 151.002 40.5742 146.405 33.1729C142.387 39.6448 137.808 37.3932 132.971 39.8401C131.674 41.7931 130.618 44.2694 128.2 44.9777C128.436 49.269 125.15 49.7321 123.457 52.2703C122.255 57.3191 115.334 58.7321 112.231 54.716C112.165 54.6319 111.648 54.674 111.539 54.674C100.212 55.199 101.71 71.8683 113.012 70.2637C117.651 75.3966 137.032 87.318 143.537 82.1172C149.109 77.504 152.438 69.4779 152.102 62.3517C155.537 63.4199 156.37 59.1628 153.827 57.3594Z" fill="#EDB39D"/>
<path fill-rule="evenodd" clip-rule="evenodd" d="M113.8 60.5734L113.751 60.6936C112.197 59.4506 109.943 61.5379 112.159 62.5141L112.147 62.5562C109.892 61.7109 111.87 59.3323 113.631 60.3812C113.742 55.0657 103.287 57.5276 108.24 64.4666L108.204 64.4966C101.994 57.1052 114.616 54.4325 113.8 60.5734Z" fill="#EED3C7"/>
<path fill-rule="evenodd" clip-rule="evenodd" d="M150.876 61.8045C150.612 61.6783 150.365 61.4981 150.149 61.2938C150.042 60.717 151.136 61.7114 151.399 61.7438C151.878 62.1469 151.014 61.9096 150.876 61.8045Z" fill="#EED3C7"/>
<path fill-rule="evenodd" clip-rule="evenodd" d="M150.876 61.8045C150.612 61.6783 150.365 61.4981 150.149 61.2938C150.042 60.717 151.136 61.7114 151.399 61.7438C151.878 62.1469 151.014 61.9096 150.876 61.8045Z" fill="#672348"/>
<path fill-rule="evenodd" clip-rule="evenodd" d="M113.8 60.5734L113.751 60.6936C112.197 59.4506 109.943 61.5379 112.159 62.5141L112.147 62.5562C109.892 61.7109 111.87 59.3323 113.631 60.3812C113.742 55.0657 103.287 57.5276 108.24 64.4666L108.204 64.4966C101.994 57.1052 114.616 54.4325 113.8 60.5734Z" fill="#672348"/>
<path fill-rule="evenodd" clip-rule="evenodd" d="M152.721 38.5014C153.472 40.9044 152.481 43.9503 150.359 47.3025C149.572 42.4171 148.978 37.5282 146.404 33.1727C142.387 39.6446 137.808 37.393 132.971 39.8405C131.674 41.7929 130.618 44.2693 128.2 44.9776C128.436 49.2688 125.15 49.7319 123.457 52.2701C122.255 57.3189 115.334 58.7319 112.231 54.7158C112.165 54.6317 111.648 54.6738 111.539 54.6738C100.212 55.1988 101.71 71.8681 113.012 70.2635L113.174 77.6468C108.496 79.5638 107.277 77.7471 105.788 74.4328C97.7339 78.9985 87.3015 69.1191 90.5884 60.6513C84.3512 60.7078 81.6292 55.5605 86.5917 51.2915C79.5329 45.3777 81.2307 35.8947 90.3901 32.5899C86.6765 29.5813 87.4596 26.7373 92.457 27.856C91.1173 13.9202 105.098 2.34057 116.594 10.5301C121.792 3.31319 132.504 5.83337 136.229 13.3837C138.486 9.94077 140.188 9.6482 139.343 13.6781C150.375 12.9193 160.988 30.7871 152.721 38.5014Z" fill="#561D3E"/>
<path fill-rule="evenodd" clip-rule="evenodd" d="M127.031 84.0337L126.971 79.2937C126.885 79.3202 113.093 70.2836 113.015 70.2607C113.124 75.7336 113.408 88.5358 113.623 93.8441H127.151L127.031 84.0337Z" fill="#EDB39D"/>
<path fill-rule="evenodd" clip-rule="evenodd" d="M127.068 84.0517C124.393 82.998 113.381 70.6536 113.014 70.2607C113.114 70.2932 126.867 79.3166 126.977 79.2937C126.988 79.9582 127.024 83.472 127.068 84.0517Z" fill="#E5A38C"/>
<path fill-rule="evenodd" clip-rule="evenodd" d="M144.74 53.6983C143.566 50.2478 138.802 50.5022 136.959 53.5579C136.347 48.6418 144.805 49.2025 144.74 53.6983Z" fill="#561D3E"/>
<path fill-rule="evenodd" clip-rule="evenodd" d="M143.917 43.3432C141.733 42.8391 138.722 44.0393 137.528 45.8889C139.164 39.49 147.322 41.9226 143.917 43.3432Z" fill="#561D3E"/>
<path fill-rule="evenodd" clip-rule="evenodd" d="M143.396 69.3183C141.599 69.3183 139.835 68.4266 138.779 66.7856C138.689 66.6449 138.727 66.4568 138.865 66.3643C139.002 66.2724 139.188 66.3108 139.279 66.4526C140.765 68.7583 143.816 69.4034 146.08 67.8927C146.217 67.8008 146.403 67.8392 146.494 67.9804C146.585 68.121 146.546 68.3097 146.408 68.4016C145.478 69.0218 144.431 69.3183 143.396 69.3183Z" fill="#561D3E"/>
<path fill-rule="evenodd" clip-rule="evenodd" d="M143.321 50.0709C143.062 49.6048 142.574 49.4462 142.336 48.9942C142.437 48.4437 144.127 50.3217 143.321 50.0709Z" fill="#561D3E"/>
<path fill-rule="evenodd" clip-rule="evenodd" d="M99.3204 154.394C98.6702 153.787 98.127 153.246 97.7233 152.771C95.3436 150.001 93.169 147.014 91.7109 143.666C91.3975 142.945 91.1147 142.212 90.8681 141.466C89.3673 136.995 88.9456 132.174 88.3555 127.463C87.168 117.979 86.4997 103.783 79.9862 96.3182C77.4922 93.4571 68.6723 86.5394 58.9778 91.4678C58.8581 91.5278 58.7366 91.5879 58.6163 91.6541C58.6163 91.6541 58.7974 92.0387 59.038 92.5616C59.0681 92.6277 59.1048 92.6998 59.1348 92.7659C59.4657 93.4811 59.888 94.3766 60.1593 94.9659C60.8944 96.5525 61.6288 98.1391 62.3639 99.7197C63.0214 101.138 63.6952 102.605 63.7072 104.167C63.7072 104.317 63.7018 104.461 63.6891 104.6C63.6831 104.63 63.6831 104.66 63.6831 104.69C63.6777 104.78 63.6651 104.871 63.647 104.955C63.635 105.027 63.6236 105.099 63.6055 105.165C63.5809 105.285 63.5514 105.405 63.5147 105.519C63.4846 105.616 63.4491 105.712 63.4124 105.802C63.4124 105.808 63.4124 105.814 63.4064 105.814C63.3763 105.892 63.3457 105.964 63.3096 106.031C63.2314 106.193 63.1411 106.349 63.0389 106.493C62.9661 106.595 62.8879 106.691 62.8097 106.788C62.7315 106.878 62.6479 106.968 62.5564 107.046C62.4301 107.166 62.2918 107.274 62.1474 107.37C62.1408 107.382 62.1287 107.388 62.1173 107.388C61.9784 107.485 61.8334 107.569 61.677 107.641C61.6174 107.671 61.5567 107.701 61.4911 107.725C61.4117 107.761 61.3335 107.791 61.2493 107.822C61.1711 107.852 61.0869 107.882 61.002 107.9C60.9479 107.918 60.8884 107.936 60.8276 107.948C60.744 107.966 60.6586 107.984 60.5743 108.002C60.5148 108.014 60.448 108.02 60.3885 108.026C60.2916 108.05 60.2008 108.056 60.0985 108.062C59.9722 108.074 59.8453 108.08 59.7189 108.08C59.4657 108.08 59.213 108.068 58.9544 108.032C58.0442 107.912 57.1883 107.527 56.4171 107.046C54.767 106.013 53.4232 104.51 52.255 102.977C49.4524 99.2932 46.645 95.6147 43.8376 91.9305C43.8075 91.9185 43.772 91.9065 43.7419 91.9005C43.6565 91.8704 43.5669 91.8464 43.476 91.8223H43.4706C43.3858 91.7983 43.301 91.7803 43.2108 91.7683C43.1265 91.7562 43.0363 91.7442 42.9461 91.7382C42.6567 91.7141 42.362 91.7261 42.0781 91.7803C41.9938 91.7923 41.9102 91.8103 41.8314 91.8283C41.5902 91.8825 41.355 91.9606 41.1264 92.0567C40.2409 91.8403 38.5723 91.8343 37.5966 91.8584C26.7393 92.0868 19.7199 106.007 16.4853 111.963C9.79136 124.259 13.551 124.265 8.05049 137.109C4.42919 145.577 -6.49389 161.606 -8.21094 170.67C-9.56652 177.834 -13.1272 191.05 -9.83162 197.872C-9.12673 199.333 -8.25311 202.656 -7.28312 205.276C-6.78907 206.623 -6.25832 207.783 -5.72247 208.408C-2.72257 211.894 0.271917 215.385 3.26641 218.872C4.30888 220.08 6.29699 221.594 8.18945 222.189C10.2612 222.856 12.2072 222.405 12.6228 219.208C12.7076 218.547 12.7919 217.886 12.8881 217.224C13.0445 217.387 13.2075 217.549 13.37 217.712C13.7375 218.072 14.1231 218.42 14.5153 218.751C14.6657 218.878 14.8167 219.004 14.9671 219.124C15.3821 219.466 15.8038 219.791 16.2375 220.104C18.7327 221.919 21.5215 223.337 24.4624 224.275C31.7279 226.594 39.548 225.964 47.1755 225.933C48.7841 225.927 50.4046 225.951 52.0258 225.976C52.0733 225.976 52.1154 225.976 52.1581 225.982C52.3813 225.982 52.6045 225.982 52.8265 225.988C52.8866 225.988 52.9468 225.988 53.0015 225.994C61.4971 226.126 87.2306 227.912 91.7109 211.95C94.3102 202.688 86.1015 180.172 86.0961 180.076H86.1015V180.082C93.6328 184.403 108.592 191.285 109.967 191.087C110.672 190.984 119.75 185.16 126.275 183.075C127.227 182.768 127.945 182.167 128.402 181.416C129.33 179.89 129.155 177.78 127.607 176.457C120.895 170.736 105.345 160.002 99.3204 154.394Z" fill="#FF90A0"/>
<path fill-rule="evenodd" clip-rule="evenodd" d="M12.4664 215.239L12.5025 215.242L12.5428 215.254C12.6691 215.302 12.7954 215.447 12.8075 215.584C12.8436 215.903 12.8315 216.214 12.7774 216.521C12.5909 217.553 11.8979 218.465 10.9162 218.897C10.7231 218.981 10.3802 218.495 10.6209 218.387C11.5605 217.985 12.2354 217.031 12.3557 216.023C12.3798 215.818 12.3798 215.608 12.3557 215.405C12.3467 215.306 12.3882 215.241 12.4664 215.239ZM-8.06516 190.663L-8.0299 190.665L-7.99375 190.672C-7.85516 190.708 -7.75879 190.876 -7.72865 191.002C-7.18648 193.031 -6.41542 194.999 -5.45782 196.865C-5.25871 197.253 -5.05659 197.633 -4.84364 198.009L-4.62649 198.384C-1.241 204.295 3.7049 209.193 8.53049 213.934L8.56177 213.97L8.58643 214.004L8.60629 214.038C8.62193 214.068 8.63335 214.099 8.64057 214.129L8.6508 214.189L8.6514 214.229L8.64478 214.274L8.62914 214.311L8.6135 214.332C8.60388 214.341 8.59606 214.346 8.58703 214.35L8.56177 214.356C8.51665 214.359 8.4559 214.332 8.3795 214.258C6.84977 212.752 5.31945 211.24 3.83183 209.691C0.638828 206.36 -2.43326 202.777 -4.77086 198.792C-6.24073 196.301 -7.42144 193.661 -8.17446 190.822C-8.20724 190.715 -8.14528 190.665 -8.06516 190.663ZM43.5229 105.656L43.5554 105.662L43.6108 105.682L43.6673 105.713L43.7503 105.772L43.8093 105.825L43.8381 105.856L43.876 105.906L43.8893 105.928L43.8971 105.944L43.9103 105.977C44.1804 106.961 44.4577 107.946 44.7236 108.93C44.892 109.554 45.0599 110.178 45.2235 110.802V110.808C45.4948 111.823 45.7535 112.849 45.9947 113.875C47.3981 119.829 48.2709 125.933 47.3499 132.018C46.832 135.463 45.7535 138.848 43.9464 141.836C42.0846 144.921 39.1268 147.256 37.5237 150.497C36.0614 153.465 35.9182 156.826 36.0139 160.069L36.0241 160.394C36.133 163.821 36.4939 167.289 35.9525 170.699C35.7732 171.844 35.4773 172.964 35.0466 174.039L34.8432 174.53L34.7837 174.659C34.6754 174.912 34.5545 175.157 34.4282 175.398C33.5662 177.036 32.4521 178.525 31.554 180.145C29.6814 183.53 29.1929 187.389 28.4224 191.116C27.7107 194.549 26.56 197.82 24.7656 200.839C23.0181 203.767 20.7707 206.378 18.1329 208.545L18.1011 208.563L18.0662 208.571L18.0289 208.57L17.9802 208.556L17.9362 208.534C17.914 208.52 17.8911 208.503 17.8701 208.484L17.8262 208.44L17.7883 208.393L17.7516 208.334L17.7305 208.292L17.7179 208.256L17.707 208.203L17.7064 208.171L17.7119 208.138C17.7191 208.114 17.7329 208.093 17.7534 208.077C18.4163 207.536 19.0545 206.966 19.6633 206.366C22.1386 203.953 24.1749 201.09 25.6504 197.963C27.0027 195.098 27.6933 192.084 28.3135 189.01L28.5902 187.623C28.9397 185.846 29.3259 184.064 29.9401 182.359C30.5272 180.726 31.385 179.254 32.3053 177.793L32.5189 177.456C33.103 176.538 33.6811 175.613 34.1569 174.647L34.2194 174.521L34.2778 174.395C34.5485 173.843 34.7777 173.273 34.9636 172.685C35.4767 171.064 35.6872 169.366 35.7534 167.68C36.0181 161.09 34.1382 153.906 38.2955 148.126C39.326 146.698 40.5489 145.42 41.663 144.051C42.8011 142.659 43.7714 141.141 44.554 139.514C46.0969 136.309 46.9042 132.798 47.1689 129.263C47.5485 124.3 46.8501 119.397 45.7474 114.566C45.5189 113.533 45.2656 112.507 45.0003 111.487V111.481L44.6274 110.051C44.3741 109.1 44.1136 108.153 43.8514 107.209L43.455 105.782L43.4483 105.751V105.71L43.4598 105.679L43.4754 105.665L43.4886 105.659L43.4971 105.657C43.5049 105.655 43.5139 105.655 43.5229 105.656ZM-6.06677 184.607L-6.03103 184.614C-5.88468 184.657 -5.70265 184.874 -5.73453 185.006C-5.97575 185.996 -5.80702 187.041 -5.22863 187.887C-5.18051 187.959 -5.13239 188.139 -5.25871 188.175C-5.39165 188.211 -5.51798 188.055 -5.58415 187.965C-6.22269 187.023 -6.46366 185.817 -6.19261 184.712C-6.17252 184.631 -6.12451 184.602 -6.06677 184.607ZM121.7 182.029C120.549 182.857 119.331 183.572 118.048 184.178C113.844 186.158 109.073 186.891 104.476 186.225C104.079 186.17 103.682 186.098 103.289 186.02C103.085 185.978 102.813 185.456 103.09 185.51C103.326 185.558 103.561 185.6 103.795 185.636C103.795 185.636 103.795 185.642 103.802 185.642C104.946 185.835 106.102 185.942 107.266 185.954C112.266 186.026 117.266 184.478 121.32 181.561C121.512 181.423 121.886 181.897 121.7 182.029ZM-7.95429 181.543L-7.9179 181.548C-7.88127 181.555 -7.84517 181.569 -7.81907 181.586C-7.70459 181.658 -7.60822 181.801 -7.60822 181.939V183.776C-7.60822 183.84 -7.64149 183.868 -7.6854 183.876L-7.71993 183.878C-7.76769 183.876 -7.82039 183.857 -7.85516 183.836C-7.96963 183.758 -8.066 183.62 -8.066 183.482V181.646C-8.066 181.565 -8.01397 181.541 -7.95429 181.543ZM74.4219 114.044C74.784 114.614 75.1269 115.196 75.4523 115.784C78.0732 120.519 79.6451 125.741 80.7651 131.004C81.97 136.699 82.7593 142.491 83.5064 148.264C83.8246 150.708 84.1115 153.156 84.3774 155.608L84.5844 157.543L84.7576 159.258L84.9326 161.096L84.9218 160.974C84.8153 159.829 84.7029 158.686 84.5849 157.543L84.6926 158.299V158.323L84.7654 158.821C84.8737 159.583 84.9765 160.346 85.0722 161.102C85.0963 161.306 85.1203 161.51 85.151 161.714L85.2376 162.448L85.3194 163.178C85.4 163.894 85.4746 164.608 85.5462 165.322L85.6569 166.449L85.6629 166.497H85.6569V166.491C85.5546 166.371 85.4644 166.245 85.3682 166.125L85.4097 166.648C85.7044 170.398 85.9366 174.157 86.1189 177.917L86.2055 179.797C86.2759 181.497 85.6719 177.596 85.5998 176.49L85.5534 175.59L85.4704 174.077C85.4337 173.441 85.3976 172.799 85.3555 172.163C85.2515 170.488 85.1342 168.818 85.006 167.144L84.8743 165.471C84.8436 165.069 84.8135 164.673 84.7774 164.271C84.4039 159.848 83.9521 155.424 83.4222 151.02C83.4161 151.002 83.4162 150.99 83.4162 150.978C83.2176 149.339 83.0065 147.706 82.7899 146.074C82.0368 140.456 81.247 134.815 79.9759 129.294C78.747 123.982 76.976 118.767 74.0724 114.122C73.8564 113.779 74.2655 113.791 74.4219 114.044ZM113.576 171.758L113.612 171.763C113.649 171.77 113.685 171.785 113.711 171.803C113.826 171.875 113.922 172.013 113.922 172.157V173.993C113.922 174.057 113.889 174.086 113.845 174.093L113.81 174.096C113.763 174.093 113.71 174.075 113.675 174.053C113.56 173.976 113.465 173.838 113.465 173.693V171.863C113.465 171.783 113.516 171.757 113.576 171.758ZM115.434 172.367C115.632 172.367 115.895 172.819 115.679 172.872L115.633 172.877C115.422 172.877 115.139 172.367 115.434 172.367ZM24.6092 107.04C24.2657 107.442 23.9276 107.85 23.6148 108.276C21.1569 111.595 19.7956 115.544 18.7718 119.493C17.7173 123.544 16.9942 127.679 15.7779 131.694C14.5002 135.914 12.5849 139.904 10.4705 143.764C8.34401 147.646 6.01844 151.421 3.90341 155.311C1.795 159.187 -0.107686 163.196 -1.34326 167.439C-1.35108 167.466 -1.36431 167.483 -1.38056 167.494L-1.40762 167.503H-1.43951C-1.58568 167.483 -1.82871 167.21 -1.78299 167.05C-1.62599 166.528 -1.47018 166.011 -1.29453 165.495C0.102856 161.276 2.12043 157.303 4.2896 153.432C6.45817 149.549 8.78975 145.756 10.8675 141.825C12.9103 137.948 14.6446 133.939 15.7959 129.708C16.9034 125.627 17.627 121.456 18.8019 117.392C19.934 113.485 21.5359 109.68 24.229 106.571C24.3734 106.416 24.7656 106.86 24.6092 107.04ZM24.3595 165.3L24.392 165.302C24.4353 165.307 24.481 165.326 24.5123 165.345C24.6332 165.411 24.7229 165.561 24.7229 165.699V167.05C24.7229 167.107 24.6964 167.135 24.6585 167.144L24.629 167.149C24.5773 167.15 24.5153 167.128 24.4762 167.104C24.3619 167.038 24.2651 166.887 24.2651 166.749V165.399C24.2651 165.327 24.3078 165.301 24.3595 165.3ZM25.3737 164.373C25.5127 164.391 25.639 164.535 25.6805 164.655L26.1208 166.005C26.1437 166.08 26.1527 166.187 26.0878 166.223L26.0553 166.233H26.0126C25.8796 166.221 25.7473 166.072 25.7046 165.951L25.2655 164.601C25.2354 164.505 25.2354 164.355 25.3737 164.373ZM85.0006 114.956C84.9453 115.418 84.9038 115.88 84.8617 116.342C84.5483 120.099 84.6812 123.886 85.2352 127.607C85.3555 128.411 85.4945 129.216 85.6509 130.014C85.6509 130.02 85.6569 130.02 85.6569 130.02C86.2169 132.895 87.0296 135.721 88.0727 138.464C89.4039 141.975 91.1087 145.342 93.1389 148.493C95.1866 151.662 97.5789 154.621 100.265 157.273C102.181 159.157 104.242 160.886 106.434 162.429C107.308 163.053 108.199 163.635 109.109 164.193C109.275 164.292 109.37 164.62 109.237 164.653L109.207 164.656C109.174 164.654 109.132 164.639 109.079 164.607C108.663 164.355 108.253 164.097 107.85 163.833L107.7 163.733L107.555 163.635C107.549 163.635 107.549 163.629 107.549 163.629C104.458 161.594 101.615 159.199 99.0605 156.523C96.4282 153.768 94.0966 150.731 92.1091 147.485C90.115 144.226 88.4643 140.757 87.1993 137.156C86.1748 134.245 85.4043 131.25 84.9098 128.208C84.7895 127.493 84.6872 126.767 84.597 126.047C84.1392 122.271 84.1145 118.443 84.5422 114.662C84.5729 114.373 85.0247 114.752 85.0006 114.956ZM62.1269 94.5742C62.2352 94.5922 62.3314 94.6583 62.3982 94.7364C62.4403 94.7844 62.4764 94.8385 62.4944 94.8806C63.4942 97.1791 64.3737 99.5196 65.0847 101.89C65.3403 102.75 65.5804 103.609 65.7987 104.472L65.9581 105.119C66.0664 105.581 66.1993 106.043 66.3076 106.511C66.4279 107.039 66.5242 107.568 66.5362 108.096C66.5669 108.858 66.2535 109.626 65.374 110.046C65.1809 110.136 64.9764 110.208 64.7713 110.262C64.3857 110.364 63.97 110.413 63.5664 110.419C63.327 110.419 63.0948 110.408 62.8686 110.388L62.4373 110.343L62.2231 110.316C61.8797 110.268 61.5368 110.208 61.1993 110.136H61.1867C59.5848 109.794 58.0304 109.2 56.6691 108.528C55.8137 108.107 55.007 107.639 54.2593 107.117L54.2539 107.111C53.6024 106.667 52.9942 106.181 52.4342 105.665C52.4228 105.653 52.4162 105.647 52.4101 105.635C52.181 105.437 51.9638 105.221 51.7533 105.005C51.6751 104.933 51.6209 104.789 51.7418 104.729V104.723C51.7472 104.717 51.7533 104.717 51.7659 104.711C51.9048 104.657 52.0673 104.784 52.1617 104.872L52.3283 105.037L52.4643 105.167C53.8743 106.541 55.6092 107.682 57.5846 108.522C58.5242 108.924 59.506 109.26 60.5304 109.518C60.8691 109.604 61.2113 109.686 61.5548 109.752L61.8977 109.812C62.1389 109.848 62.3801 109.878 62.6208 109.903C62.7693 109.91 62.9155 109.918 63.0623 109.921L63.2837 109.921C63.3198 109.921 63.3619 109.921 63.404 109.915C63.8076 109.903 64.2173 109.842 64.5788 109.716C65.0486 109.56 65.4462 109.308 65.6808 108.924C66.0724 108.294 65.9581 107.556 65.8077 106.872L65.7115 106.449C65.6953 106.381 65.679 106.314 65.6628 106.247C64.8435 102.484 63.6452 98.7873 62.0968 95.1924L61.9097 94.7424C61.8436 94.6042 61.9946 94.5561 62.1269 94.5742ZM68.8137 107.045L70.4703 109.356L70.5118 109.421C70.5642 109.51 70.6147 109.633 70.5305 109.698C70.4282 109.776 70.2658 109.65 70.2111 109.566L69.3803 108.411L68.5544 107.256C68.5003 107.183 68.386 106.997 68.4942 106.92C68.5965 106.842 68.7535 106.967 68.8137 107.045ZM67.1811 105.455C67.3922 105.455 67.6743 105.965 67.3802 105.965C67.1684 105.965 66.8863 105.455 67.1811 105.455ZM43.5368 93.6141C43.5969 93.8181 43.6565 94.0161 43.7287 94.2143C44.2352 95.6543 45.0304 96.9748 46.0969 98.091V98.097L46.2359 98.2466L46.3803 98.3914C46.4585 98.4635 46.5902 98.6317 46.5246 98.7512C46.4952 98.7993 46.4549 98.8131 46.4121 98.8101L46.3742 98.8053C46.3333 98.7921 46.2924 98.7681 46.2618 98.7422L46.2353 98.7152C44.8469 97.3605 43.7972 95.685 43.2059 93.8383L43.1211 93.5601C43.1151 93.5481 43.1151 93.5361 43.1151 93.5301C43.0369 93.194 43.4706 93.386 43.5368 93.6141Z" fill="#D24D71"/>
<path fill-rule="evenodd" clip-rule="evenodd" d="M64.0019 103.861C64.0019 104.011 63.9959 104.155 63.9839 104.293C63.9778 104.323 63.9778 104.353 63.9778 104.383C63.9718 104.473 63.9598 104.563 63.9412 104.647C63.9303 104.719 63.9183 104.791 63.9002 104.857C63.8762 104.977 63.8461 105.097 63.81 105.211C63.7805 105.307 63.7444 105.403 63.7083 105.493C63.7083 105.499 63.7084 105.505 63.7023 105.505C63.6723 105.583 63.6422 105.655 63.6067 105.721C63.5285 105.883 63.4389 106.039 63.3372 106.183C63.265 106.284 63.1874 106.381 63.1092 106.477C63.0316 106.567 62.9474 106.657 62.8578 106.734C62.732 106.855 62.5937 106.963 62.4505 107.059C62.4439 107.071 62.4325 107.077 62.4204 107.077C62.2827 107.172 62.1389 107.257 61.9831 107.329C61.9236 107.359 61.8634 107.389 61.7978 107.413C61.719 107.449 61.642 107.479 61.5578 107.509C61.4802 107.539 61.3954 107.568 61.3124 107.586C61.2583 107.604 61.1987 107.622 61.1386 107.634C61.0549 107.652 60.9701 107.67 60.8871 107.688C60.827 107.7 60.7614 107.706 60.7012 107.712C60.6056 107.731 60.5099 107.743 60.4137 107.749C60.288 107.761 60.1623 107.767 60.0365 107.767C59.7851 107.767 59.5336 107.755 59.2756 107.718C58.3715 107.598 57.5209 107.214 56.7533 106.734C55.1129 105.703 53.7769 104.203 52.6147 102.673C49.8295 98.9955 47.0384 95.3243 44.2466 91.6464C44.2171 91.6345 44.181 91.6224 44.1509 91.6164C47.4576 91.1965 51.183 91.1245 55.3884 90.9505C56.7659 90.8905 58.9405 91.3705 58.9405 91.3705C58.9405 91.3705 59.1198 91.7544 59.3598 92.2764C59.3899 92.3423 59.4254 92.4144 59.4554 92.4803C59.7851 93.1943 60.2044 94.0879 60.4738 94.676C61.2047 96.2596 61.9356 97.8438 62.6659 99.4214C63.3192 100.837 63.9893 102.301 64.0019 103.861Z" fill="#975445"/>
<path fill-rule="evenodd" clip-rule="evenodd" d="M64.6035 104.322C64.6035 104.477 64.5969 104.627 64.5836 104.769C64.5776 104.801 64.5776 104.832 64.5776 104.863C64.571 104.956 64.5578 105.049 64.5373 105.136C64.5253 105.211 64.512 105.285 64.4922 105.354C64.4663 105.478 64.4338 105.602 64.3941 105.72C64.3617 105.819 64.3226 105.919 64.2835 106.012C64.2835 106.018 64.2835 106.025 64.2768 106.025C64.2444 106.105 64.2107 106.18 64.1722 106.248C64.0874 106.416 63.9893 106.578 63.878 106.727C63.7998 106.832 63.715 106.932 63.6296 107.031C63.5448 107.124 63.4533 107.218 63.3553 107.299C63.2181 107.423 63.0671 107.535 62.9107 107.634C62.9041 107.646 62.8915 107.653 62.8782 107.653C62.7279 107.752 62.5715 107.839 62.4012 107.914C62.3363 107.945 62.2707 107.976 62.1985 108.001C62.1131 108.038 62.0289 108.069 61.9374 108.1C61.8526 108.131 61.7606 108.162 61.6697 108.181C61.6108 108.2 61.5452 108.218 61.4797 108.23C61.3882 108.249 61.2962 108.268 61.2054 108.287C61.1404 108.299 61.0682 108.305 61.0026 108.311C60.8986 108.33 60.7939 108.343 60.6892 108.349C60.5521 108.361 60.4149 108.367 60.2778 108.367C60.0029 108.367 59.7286 108.355 59.4476 108.317C58.4611 108.193 57.5329 107.795 56.6962 107.299C54.906 106.23 53.449 104.676 52.181 103.092C49.1426 99.2833 46.0976 95.4805 43.0525 91.6715C43.0195 91.659 42.9804 91.6466 42.9479 91.6404C46.5547 91.2055 50.6194 91.1309 55.2067 90.9507C56.7094 90.8886 59.0819 91.3856 59.0819 91.3856C59.0819 91.3856 59.278 91.7833 59.5391 92.3239C59.5716 92.3923 59.6113 92.4668 59.6437 92.5352C60.0029 93.2746 60.4606 94.2002 60.7548 94.8094C61.5518 96.4495 62.3489 98.0901 63.1465 99.7242C63.8588 101.191 64.5896 102.707 64.6035 104.322Z" fill="#975445"/>
<path fill-rule="evenodd" clip-rule="evenodd" d="M39.4203 69.9756C39.3842 69.9635 39.3541 69.9515 39.3181 69.9335C39.4564 70.0056 39.6008 70.0657 39.7452 70.1197C39.6369 70.0777 39.5286 70.0296 39.4203 69.9756ZM40.3527 70.324C40.3226 70.318 40.2926 70.312 40.2685 70.306C40.3166 70.324 40.3708 70.342 40.4189 70.348C40.3948 70.342 40.3708 70.336 40.3527 70.324ZM41.1167 70.5223H41.0926C41.2129 70.5463 41.3332 70.5703 41.4596 70.5823C41.3453 70.5643 41.231 70.5463 41.1167 70.5223ZM42.5844 70.6664C42.3571 70.6676 42.1315 70.6586 41.9047 70.6364C42.1453 70.6664 42.3859 70.6724 42.6265 70.6724C42.6145 70.6724 42.5965 70.6724 42.5844 70.6664ZM43.3304 70.6424C43.3123 70.6484 43.3003 70.6484 43.2882 70.6484C43.3183 70.6484 43.3484 70.6484 43.3845 70.6424H43.3304ZM44.0041 74.0427C44.0041 74.0247 43.9433 70.5805 43.9439 70.5643C43.7911 70.5961 43.6492 70.6118 43.4988 70.6304C43.571 70.6244 43.6432 70.6184 43.7153 70.6064C43.7268 71.7238 43.8008 74.1875 43.8417 75.3223C43.9018 75.3163 43.962 75.3163 44.0221 75.3103L44.0041 74.0427ZM79.2728 36.0508C79.4292 36.5494 79.5675 37.0721 79.742 37.5707C79.6036 37.042 79.4532 36.5374 79.2728 36.0508ZM80.163 39.4691C80.157 39.427 80.151 39.385 80.133 39.3429C80.133 39.361 80.133 39.373 80.139 39.379C80.151 39.4451 80.1691 39.5051 80.1811 39.5652C80.1751 39.5352 80.169 39.4991 80.163 39.4691ZM81.0593 44.6356C80.8771 43.6005 80.7303 42.5077 80.53 41.4636C80.7814 43.0839 81.0076 44.7305 81.3782 46.3598C81.2639 45.8011 81.1616 45.2243 81.0593 44.6356ZM80.4879 41.1813C80.4819 41.1752 80.4819 41.1752 80.4819 41.1692C80.5005 41.2533 80.5119 41.3314 80.5246 41.4095C80.5119 41.3314 80.5005 41.2594 80.4879 41.1813ZM81.5225 47.0326C81.6549 47.6154 81.7872 48.1801 81.9196 48.7148C81.7812 48.156 81.6489 47.5973 81.5225 47.0326ZM83.4776 54.0074C82.9001 52.3013 82.3888 50.5651 81.9436 48.8049C82.8928 52.118 83.1064 53.9437 84.1753 55.3351C83.9107 54.9086 83.6761 54.464 83.4776 54.0074Z" fill="#672348"/>
<path fill-rule="evenodd" clip-rule="evenodd" d="M12.8382 11.9305C18.3333 1.69898 32.5532 -1.56313 40.7799 7.33466C40.2145 6.92614 39.6129 6.52967 38.9633 6.1572C30.0574 0.856716 18.5426 3.54331 12.8382 11.9305ZM9.39735 22.1313C9.20004 26.4075 10.4085 30.6723 12.8262 34.1825C14.1598 36.1374 15.8255 37.8009 17.7769 39.1628C19.1033 40.0838 20.5506 40.8653 22.0839 41.3796C21.8614 41.3556 21.6448 41.3315 21.4222 41.2955C12.5085 40.1739 8.12027 30.2488 9.39735 22.1313ZM71.0617 22.8102C68.2531 21.539 65.2195 20.9412 62.1468 20.7676C62.1408 20.7736 62.1408 20.7736 62.1348 20.7676C58.105 20.5477 53.884 21.0331 49.8212 21.6147C52.7946 20.3194 53.4779 15.5356 50.8678 13.6961C50.5183 13.6823 50.5292 14.0289 50.6212 14.2614C52.1708 16.7395 50.9996 19.804 48.2752 20.7736C48.8304 20.3519 48.268 19.0422 47.8361 17.8059C47.5684 17.1534 47.2863 16.495 46.9879 15.8714C46.9891 15.863 46.9837 15.8534 46.9758 15.8474C45.9598 13.5903 44.9523 11.4318 43.511 9.41929C23.035 -17.1684 -7.4176 25.0246 17.2956 40.887V40.893C19.2657 41.8854 21.4613 42.4339 23.666 42.503C21.4253 49.4123 22.2073 57.3477 25.621 63.7398C29.1172 70.4731 36.0374 75.8006 43.8418 75.3224C43.8009 74.181 56.0334 74.0668 56.0225 72.9434C54.3701 73.1609 79.6818 47.395 84.1754 55.3352C90.5391 54.9711 93.1197 47.0105 94.0768 41.74C96.5991 31.4623 87.3569 18.7659 76.1508 21.6928C82.6125 19.3396 89.9989 20.2636 95.5867 24.5584C96.2165 25.1255 96.6027 24.3031 95.9235 23.7413C88.8331 18.2474 78.1371 17.467 71.0617 22.8102Z" fill="#561D3E"/>
<path fill-rule="evenodd" clip-rule="evenodd" d="M37.4955 68.6055C37.5455 68.6523 37.6116 68.7064 37.67 68.7436C37.6098 68.6896 37.5497 68.6475 37.4955 68.6055Z" fill="#975445"/>
<path fill-rule="evenodd" clip-rule="evenodd" d="M39.1556 69.627C39.2699 69.681 39.3963 69.7291 39.5166 69.7711C39.4011 69.7207 39.2693 69.6792 39.1556 69.627ZM39.6609 69.8312C39.7572 69.8673 39.8534 69.9033 39.9557 69.9273C39.86 69.8943 39.7584 69.8564 39.6609 69.8312ZM40.455 70.0715C40.5091 70.0955 40.5693 70.1076 40.6234 70.1136C40.5681 70.1034 40.5109 70.0817 40.455 70.0715ZM40.852 70.1736C40.9663 70.1977 41.0806 70.2157 41.1949 70.2337C41.0505 70.2097 40.9001 70.1797 40.7557 70.1496C40.7858 70.1556 40.8219 70.1676 40.852 70.1736ZM41.64 70.2878C41.7603 70.3058 41.8806 70.3118 42.0009 70.3178C41.9949 70.3178 41.9889 70.3178 41.9829 70.3118C41.8686 70.3058 41.7543 70.2998 41.64 70.2878ZM44.9545 69.9033L45.0387 69.9634C45.0207 69.9393 44.9966 69.9213 44.9786 69.8973C44.9726 69.8973 44.9605 69.9033 44.9545 69.9033ZM57.8817 78.7765C57.8552 78.7657 57.8246 78.7465 57.7975 78.7404L57.8035 78.9087H57.8095C58.2426 79.1189 58.6758 79.3292 59.1089 79.5334L57.8817 78.7765Z" fill="#975445"/>
<path fill-rule="evenodd" clip-rule="evenodd" d="M57.8097 78.9085H57.8036L57.7976 78.7403C57.8933 78.7553 59.0218 79.4943 59.109 79.5333C58.6759 79.3291 58.2428 79.1188 57.8097 78.9085ZM44.9547 69.9032C44.9607 69.9032 44.9727 69.8972 44.9787 69.8972C44.9968 69.9212 45.0208 69.9392 45.0389 69.9632L44.9547 69.9032ZM41.6401 70.2877C41.7544 70.2997 41.8687 70.3057 41.983 70.3117C41.989 70.3177 41.9951 70.3177 42.0011 70.3177C41.8808 70.3117 41.7605 70.3057 41.6401 70.2877ZM40.8521 70.1735C40.822 70.1675 40.786 70.1555 40.7559 70.1495C40.9002 70.1795 41.0506 70.2096 41.195 70.2336C41.0807 70.2156 40.9664 70.1975 40.8521 70.1735ZM40.4551 70.0714C40.511 70.0822 40.5682 70.1032 40.6235 70.1134C40.5694 70.1074 40.5092 70.0954 40.4551 70.0714ZM39.6611 69.8311C39.7585 69.8569 39.8602 69.8942 39.9558 69.9272C39.8536 69.9032 39.7573 69.8671 39.6611 69.8311ZM39.1558 69.6268C39.2695 69.6797 39.4012 69.7211 39.5167 69.771C39.3964 69.7289 39.2701 69.6809 39.1558 69.6268ZM37.5797 68.6776C37.5496 68.6536 37.5196 68.6296 37.4955 68.6055C37.5496 68.6476 37.6098 68.6896 37.67 68.7437C37.6399 68.7257 37.6098 68.7017 37.5797 68.6776ZM86.9424 59.4017C86.5815 57.7989 84.834 56.8389 84.1753 55.3346C81.9971 51.7919 81.0623 44.0776 80.1389 39.3784C79.8694 35.6844 76.9038 31.3235 74.0874 29.5801C75.1629 30.653 71.1302 44.1959 70.0871 40.61C71.1958 37.3491 73.1797 34.2053 73.2994 30.6795C72.4698 33.4982 70.605 37.1881 68.0359 40.9945C65.1978 45.1932 61.8827 49.193 58.2247 52.7213C56.4496 54.4388 54.5896 56.0573 52.5762 57.4913C50.9496 58.2194 49.3568 59.517 48.7865 61.3484C46.9223 65.0779 49.6888 67.5872 53.4304 67.2178C56.8496 69.3727 44.3826 68.5911 47.8481 60.7294C47.9582 60.4476 48.0803 60.1652 48.221 59.9003C45.5231 53.4728 36.5481 53.8897 34.8427 61.6367C34.6424 63.0011 34.8 64.4158 35.3179 65.6979C35.3179 65.7039 35.3239 65.7099 35.3239 65.7099C35.3811 65.8769 35.4478 66.0199 35.5285 66.1785C35.6464 66.441 35.8022 66.7143 35.9556 66.9655C36.0368 67.088 36.1204 67.2262 36.2142 67.3379C36.2142 67.3379 36.2142 67.3439 36.2202 67.3439C36.2202 67.3499 36.2202 67.3499 36.2262 67.356C36.2293 67.3812 36.2605 67.4058 36.2744 67.428C36.2744 67.4341 36.2804 67.4341 36.2804 67.4401L36.3044 67.4641C36.3044 67.4701 36.3044 67.4701 36.3105 67.4761C36.352 67.5284 36.3917 67.5927 36.4428 67.6443C36.4458 67.6533 36.4518 67.6593 36.4548 67.6684C36.4609 67.6744 36.4669 67.6864 36.4789 67.6924C36.9728 68.325 37.5797 68.8819 38.2474 69.3325C38.2733 69.3415 38.2847 69.3631 38.3136 69.3745C38.4826 69.4911 38.6619 69.601 38.849 69.6989C38.855 69.7049 38.861 69.7109 38.873 69.7109C40.3336 70.5123 42.0654 70.8307 43.7155 70.6C43.8641 77.3153 44.2436 86.7538 44.4433 93.4709H57.9841C57.9919 90.3788 58.0232 82.0829 57.8097 79.1248C63.1008 81.5056 69.9403 85.8184 75.5792 81.9424C81.0443 77.2042 84.1801 69.0927 83.67 61.9792C85.3633 62.777 87.0441 61.0834 86.9424 59.4017Z" fill="#975445"/>
<path fill-rule="evenodd" clip-rule="evenodd" d="M45.0389 69.9635L44.9547 69.9035C44.9607 69.9035 44.9727 69.8975 44.9787 69.8975C44.9968 69.9215 45.0208 69.9395 45.0389 69.9635Z" fill="#975445"/>
<path fill-rule="evenodd" clip-rule="evenodd" d="M45.0389 69.9635L44.9547 69.9035C44.9607 69.9035 44.9727 69.8975 44.9787 69.8975C44.9968 69.9215 45.0208 69.9395 45.0389 69.9635Z" fill="#975445"/>
<path fill-rule="evenodd" clip-rule="evenodd" d="M37.67 68.7436C37.6116 68.7064 37.5455 68.6523 37.4955 68.6055C37.5497 68.6475 37.6098 68.6896 37.67 68.7436Z" fill="#975445"/>
<path fill-rule="evenodd" clip-rule="evenodd" d="M39.5166 69.7711C39.3963 69.7291 39.27 69.681 39.1557 69.627C39.2694 69.6798 39.4011 69.7213 39.5166 69.7711Z" fill="#975445"/>
<path fill-rule="evenodd" clip-rule="evenodd" d="M39.9557 69.9272C39.8534 69.9031 39.7572 69.8671 39.6609 69.8311C39.7584 69.8563 39.8601 69.8941 39.9557 69.9272Z" fill="#975445"/>
<path fill-rule="evenodd" clip-rule="evenodd" d="M40.6234 70.1133C40.5692 70.1073 40.5091 70.0953 40.455 70.0713C40.5109 70.0815 40.568 70.1031 40.6234 70.1133Z" fill="#975445"/>
<path fill-rule="evenodd" clip-rule="evenodd" d="M41.195 70.2335C41.0482 70.2101 40.8996 70.1885 40.7559 70.1494C40.9002 70.1795 41.0506 70.2095 41.195 70.2335Z" fill="#975445"/>
<path fill-rule="evenodd" clip-rule="evenodd" d="M42.0009 70.3181C41.8806 70.3121 41.7603 70.3061 41.64 70.2881C41.7543 70.3001 41.8686 70.3061 41.9829 70.3121C41.9889 70.3181 41.9949 70.3181 42.0009 70.3181Z" fill="#975445"/>
<path fill-rule="evenodd" clip-rule="evenodd" d="M59.1089 79.5332C58.6757 79.329 58.2426 79.1187 57.8095 78.9084H57.8035L57.7975 78.7402C57.8931 78.7553 59.0216 79.4942 59.1089 79.5332Z" fill="#975445"/>
<path fill-rule="evenodd" clip-rule="evenodd" d="M57.9839 83.5202C55.3491 82.529 43.7874 70.1113 43.7874 70.1113L57.7974 78.7322V78.7382H57.8034C57.8281 79.402 57.958 82.9411 57.9839 83.5202Z" fill="#84473D"/>
<path fill-rule="evenodd" clip-rule="evenodd" d="M82.4368 61.4628C82.2137 61.398 81.247 60.7621 81.8774 60.7837C82.2251 61.0465 84.1145 61.9621 82.4368 61.4628Z" fill="#672348"/>
<path fill-rule="evenodd" clip-rule="evenodd" d="M45.3036 61.1207L45.2554 61.2408C43.6619 60.0451 41.4777 62.1846 43.7095 63.1032L43.6974 63.1452C41.4176 62.3576 43.3491 59.9268 45.1351 60.9344C45.0888 55.6055 34.717 58.3498 39.8355 65.1518L39.7994 65.1818C33.4092 57.9347 45.9683 54.9681 45.3036 61.1207Z" fill="#672348"/>
<path fill-rule="evenodd" clip-rule="evenodd" d="M74.2255 51.2343C74.2748 52.5609 73.6416 53.664 72.8129 53.6979C71.9836 53.7317 71.2718 52.6837 71.2231 51.357C71.1743 50.0303 71.807 48.9273 72.6363 48.8934C73.4655 48.8596 74.1767 49.9076 74.2255 51.2343Z" fill="#561D3E"/>
<path fill-rule="evenodd" clip-rule="evenodd" d="M68.5103 52.4963C68.4824 52.4963 68.4538 52.4927 68.4258 52.4834C68.2686 52.4353 68.1781 52.2643 68.2252 52.1011C69.029 49.2889 71.8973 47.679 74.6162 48.5095C74.774 48.5575 74.8639 48.7287 74.8175 48.8918C74.771 49.0549 74.6043 49.1491 74.4477 49.0999C72.0426 48.3643 69.5072 49.79 68.7956 52.2759C68.7575 52.4095 68.639 52.4963 68.5103 52.4963Z" fill="#561D3E"/>
<path fill-rule="evenodd" clip-rule="evenodd" d="M69.0403 46.5794C71.6271 47.7079 74.4118 46.903 75.2576 44.781C75.3212 44.6201 75.3724 44.4574 75.4107 44.2923C75.5762 43.5878 74.6998 43.1811 74.2857 43.7641C73.6921 44.6004 72.8215 45.3209 71.7495 45.7807C70.5404 46.3008 69.2841 46.4007 68.2127 46.1418C68.4731 46.3045 68.7499 46.4524 69.0403 46.5794Z" fill="#561D3E"/>
<path fill-rule="evenodd" clip-rule="evenodd" d="M74.6874 69.3183C72.8885 69.3183 71.1237 68.4266 70.0662 66.7856C69.9759 66.6449 70.0142 66.4568 70.1524 66.3643C70.2895 66.2724 70.4756 66.3108 70.5665 66.4526C72.0537 68.7583 75.1075 69.4034 77.3738 67.8927C77.5114 67.8008 77.697 67.8392 77.7885 67.9804C77.8789 68.121 77.8405 68.3097 77.7023 68.4016C76.7717 69.0218 75.7239 69.3183 74.6874 69.3183Z" fill="#561D3E"/>
</g>
</g>
</g>
<defs>
<clipPath id="clip0_1450_6328">
<rect width="174.532" height="128.932" fill="white" transform="translate(0.233887)"/>
</clipPath>
<clipPath id="clip1_1450_6328">
<rect width="166.532" height="128.932" fill="white" transform="translate(4.23389)"/>
</clipPath>
</defs>
</svg>
