<svg
  width="88"
  height="87"
  viewBox="0 0 88 87"
  fill="none"
  xmlns="http://www.w3.org/2000/svg"
>
  <path
    d="M86.8394 28.2333C83.7025 14.3821 74.5812 5.21644 64.6581 0.831612C76.9966 11.702 88.3629 32.7385 74.2221 51.9055C68.3561 59.8602 56.6253 63.0037 51.7109 60.7858C51.7109 60.7858 59.3087 59.1723 64.0342 55.0403C73.2238 46.3411 76.2946 32.3273 68.9388 19.5873C67.9105 17.8038 66.689 16.139 65.2962 14.623C65.2766 14.6003 65.2604 14.5775 65.2408 14.5558C60.0715 8.38923 52.9718 4.70862 45.3436 3.57905C35.4401 1.71813 22.6697 4.13786 13.1058 12.9824C2.67919 22.6266 -0.697596 35.1083 0.467785 45.8963C3.7111 29.7741 16.2471 9.41355 39.916 12.0731C49.7393 13.1788 58.3245 21.7651 58.8627 27.1308C58.8627 27.1308 53.1367 18.1452 38.9351 18.1452C38.6747 18.1496 38.1246 18.1713 38.1094 18.1713L37.9282 18.1821C28.6941 18.5434 19.7172 23.3732 14.2408 32.859C13.21 34.6412 12.3789 36.5316 11.7624 38.496L11.7321 38.5763C8.97702 46.1371 9.33944 54.1255 12.1737 61.2958C15.5147 70.8044 23.9968 80.6548 36.4373 84.5133C50.003 88.7213 62.501 85.4031 71.2598 79.0022C55.6747 84.2508 31.7746 83.5769 22.2433 61.7504C18.2881 52.69 21.4305 40.9613 25.8099 37.8124C25.8099 37.8124 20.8902 47.2635 27.9931 59.5618C32.8565 67.6826 41.6836 73.2968 52.8947 73.2968C53.4351 73.2968 57.7646 72.9594 59.3249 72.61L59.4118 72.598C67.3361 71.2026 74.0734 66.8948 78.8651 60.8552C85.4299 53.2097 89.7193 40.9374 86.8394 28.2333V28.2333Z"
    fill="url(#paint0_linear)"
  />
  <defs>
    <linearGradient
      id="paint0_linear"
      x1="-5.45366"
      y1="4.06106"
      x2="73.8509"
      y2="41.0414"
      gradientUnits="userSpaceOnUse"
    >
      <stop stop-color="#EA1F59" />
      <stop offset="1" stop-color="#FA9169" />
    </linearGradient>
  </defs>
</svg>
