<svg viewBox="0 0 500 500" fill="none" xmlns="http://www.w3.org/2000/svg">
  <path
    d="M459.956 181.677C444.09 111.578 397.957 65.1912 347.769 43C410.174 98.0139 467.662 204.478 396.141 301.48C366.472 341.738 307.14 357.647 282.285 346.422C282.285 346.422 320.712 338.256 344.613 317.345C391.092 273.319 406.623 202.397 369.419 137.921C364.218 128.895 358.04 120.469 350.996 112.797C350.897 112.682 350.814 112.566 350.716 112.457C324.57 81.2484 288.662 62.6212 250.08 56.9045C199.99 47.4866 135.401 59.7326 87.0287 104.494C34.2935 153.302 17.2145 216.471 23.1088 271.068C39.5127 189.475 102.917 86.4323 222.629 99.892C272.313 105.488 315.735 148.942 318.457 176.098C318.457 176.098 289.496 130.623 217.668 130.623C216.35 130.644 213.568 130.754 213.491 130.754L212.575 130.809C165.871 132.638 120.468 157.081 92.7693 205.087C87.5561 214.107 83.3524 223.674 80.2344 233.616L80.0808 234.022C66.1465 272.287 67.9795 312.715 82.3144 349.003C99.2123 397.125 142.113 446.977 205.034 466.505C273.646 487.801 336.858 471.008 381.158 438.614C302.333 465.176 181.452 461.766 133.244 351.304C113.24 305.45 129.133 246.092 151.283 230.156C151.283 230.156 126.4 277.987 162.326 340.228C186.923 381.326 231.569 409.739 288.272 409.739C291.005 409.739 312.903 408.032 320.795 406.263L321.234 406.203C361.313 399.141 395.389 377.34 419.624 346.774C452.827 308.081 474.522 245.972 459.956 181.677V181.677Z"
    fill="#F1023D"
  />
</svg>
