<svg
  viewBox="0 0 24 24"
  class="fill-current"
  xmlns="http://www.w3.org/2000/svg"
>
  <g clip-path="url(#clip0)">
    <path
      fill-rule="evenodd"
      clip-rule="evenodd"
      d="M-0.0187589 9.26978C-0.0653621 5.01034 -0.084309 3.27862 1.49999 1.633C3.1627 -0.0910152 4.97846 -0.0758533 11.3368 -0.0227598C12.6535 -0.0117658 14.1649 0.000854563 15.91 -3.16995e-06C18.725 0.00490446 18.8849 0.0281165 19.4184 0.105566L19.449 0.109997C21.888 0.460997 23.739 2.194 23.975 5.201C24.007 5.603 24.007 18.394 23.976 18.788C23.754 21.611 22.13 23.23 20.134 23.745C18.639 24.132 5.37499 24.132 3.87799 23.747C-0.243473 22.6818 -0.144637 18.6425 -0.0357947 14.1941C-0.0180339 13.4683 -6.75589e-06 12.7315 -6.75589e-06 11.995C-6.75589e-06 10.9837 -0.00988428 10.0809 -0.0187589 9.26978ZM11.122 3.13479C11.4122 3.13689 11.7045 3.139 11.998 3.139H11.994C12.3431 3.139 12.6808 3.13672 13.0074 3.13451C15.8383 3.1154 17.8439 3.10186 19.368 4.626C20.8862 6.14331 20.8754 8.11606 20.8595 11.0396C20.8578 11.3492 20.856 11.6695 20.856 12.001C20.856 12.3076 20.8571 12.6028 20.8582 12.8875C20.8662 15.0237 20.8719 16.5608 20.391 17.805C19.1747 20.9255 16.0836 20.8974 12.9104 20.8685C12.6058 20.8658 12.3005 20.863 11.996 20.863C11.7043 20.863 11.4135 20.8651 11.1246 20.8672C7.84356 20.8912 4.80967 20.9133 3.60201 17.805C3.12198 16.5692 3.12837 14.7316 3.13532 12.7319C3.13616 12.4904 3.13701 12.2465 3.13701 12.001C3.13701 11.6988 3.13594 11.4072 3.1349 11.1257C3.12706 8.98855 3.12133 7.42949 3.60201 6.196C4.81254 3.08923 7.82347 3.11097 11.122 3.13479ZM12.6289 4.72652C12.1821 4.73073 11.7077 4.7352 11.204 4.736V4.734C5.29601 4.74 4.73601 4.852 4.73601 11.997C4.73601 19.06 4.93901 19.262 11.999 19.262C12.3553 19.262 12.7054 19.2658 13.0477 19.2696C16.4256 19.3067 19.0384 19.3354 19.21 15.579C19.7066 4.65986 18.8996 4.66746 12.6289 4.72652ZM15.665 7.27C15.665 6.683 16.141 6.207 16.728 6.207C17.315 6.207 17.791 6.683 17.791 7.27C17.791 7.857 17.315 8.333 16.728 8.333C16.141 8.333 15.665 7.857 15.665 7.27ZM7.44801 12.001C7.44801 9.488 9.48501 7.45 11.998 7.45C14.511 7.45 16.547 9.488 16.547 12.001C16.547 14.514 14.511 16.551 11.998 16.551C9.48501 16.551 7.44801 14.514 7.44801 12.001ZM11.998 9.047C15.903 9.047 15.908 14.955 11.998 14.955C8.09401 14.955 8.08801 9.047 11.998 9.047Z"
    />
  </g>
  <defs>
    <clipPath id="clip0">
      <rect width="24" height="24" />
    </clipPath>
  </defs>
</svg>
