<svg
  viewBox="0 0 24 24"
  class="fill-current"
  xmlns="http://www.w3.org/2000/svg"
>
  <path
    d="M5.64 16.3601C4.38021 15.1019 3.52193 13.4983 3.17376 11.7521C2.82558 10.006 3.00316 8.19581 3.68402 6.55062C4.36488 4.90544 5.51842 3.49917 6.99871 2.50974C8.47899 1.52031 10.2195 0.992187 12 0.992188C13.7805 0.992187 15.521 1.52031 17.0013 2.50974C18.4816 3.49917 19.6351 4.90544 20.316 6.55062C20.9968 8.19581 21.1744 10.006 20.8263 11.7521C20.4781 13.4983 19.6198 15.1019 18.36 16.3601L12.71 22.0201C12.617 22.1138 12.5064 22.1882 12.3846 22.239C12.2627 22.2898 12.132 22.3159 12 22.3159C11.868 22.3159 11.7373 22.2898 11.6154 22.239C11.4936 22.1882 11.383 22.1138 11.29 22.0201L5.64 16.3601ZM16.95 14.9501C17.9289 13.9711 18.5955 12.7238 18.8656 11.366C19.1356 10.0081 18.9969 8.6007 18.4671 7.32166C17.9373 6.04262 17.04 4.94941 15.8889 4.18028C14.7378 3.41114 13.3844 3.00061 12 3.00061C10.6156 3.00061 9.26222 3.41114 8.11109 4.18028C6.95996 4.94941 6.06275 6.04262 5.53292 7.32166C5.00308 8.6007 4.86442 10.0081 5.13445 11.366C5.40449 12.7238 6.07111 13.9711 7.05 14.9501L12 19.9001L16.95 14.9501ZM12 14.0001C10.9391 14.0001 9.92172 13.5787 9.17158 12.8285C8.42143 12.0784 8 11.061 8 10.0001C8 8.93924 8.42143 7.92183 9.17158 7.17168C9.92172 6.42153 10.9391 6.00011 12 6.00011C13.0609 6.00011 14.0783 6.42153 14.8284 7.17168C15.5786 7.92183 16 8.93924 16 10.0001C16 11.061 15.5786 12.0784 14.8284 12.8285C14.0783 13.5787 13.0609 14.0001 12 14.0001ZM12 12.0001C12.5304 12.0001 13.0391 11.7894 13.4142 11.4143C13.7893 11.0392 14 10.5305 14 10.0001C14 9.46967 13.7893 8.96097 13.4142 8.58589C13.0391 8.21082 12.5304 8.00011 12 8.00011C11.4696 8.00011 10.9609 8.21082 10.5858 8.58589C10.2107 8.96097 10 9.46967 10 10.0001C10 10.5305 10.2107 11.0392 10.5858 11.4143C10.9609 11.7894 11.4696 12.0001 12 12.0001Z"
  />
</svg>
