<svg
  width="149"
  height="39"
  viewBox="0 0 1944 500"
  fill="none"
  xmlns="http://www.w3.org/2000/svg"
>
  <path
    d="M539 146.64H580.933L613.263 289.418L642.392 185.376C646.02 172.784 651.355 162.967 658.397 155.924C665.653 148.668 675.682 145.573 688.486 146.64L729.139 289.418L752.506 185.056C755.707 171.184 761.255 160.833 769.151 154.003C777.047 147.174 788.357 144.719 803.082 146.64L752.186 370.091H711.533L670.561 225.712L630.228 370.091H589.896L539 146.64Z"
    fill="#2A1B3C"
  />
  <path
    d="M938.446 306.065C926.923 309.053 916.359 310.12 906.756 309.266C897.367 308.413 889.578 306.172 883.389 302.544C877.414 298.702 873.359 293.687 871.225 287.497C869.305 281.095 869.945 273.945 873.146 266.049C879.761 271.598 887.444 274.692 896.193 275.333C904.942 275.759 913.372 275.546 921.481 274.692C928.31 274.052 933.431 272.558 936.846 270.21C940.473 267.863 942.714 265.195 943.568 262.207C944.421 259.006 944.101 255.698 942.607 252.283C941.114 248.868 938.659 245.774 935.245 242.999C932.044 240.225 927.99 237.984 923.081 236.277C918.387 234.569 913.158 233.822 907.396 234.036C901.208 234.463 895.339 235.957 889.791 238.518C884.243 241.079 879.334 244.6 875.066 249.082C870.798 253.564 867.384 258.792 864.823 264.768C862.263 270.744 860.875 277.36 860.662 284.616C860.449 290.592 861.089 296.461 862.583 302.223C864.29 307.986 866.744 313.321 869.945 318.23C873.146 322.925 876.987 326.98 881.468 330.395C885.95 333.596 891.071 335.624 896.833 336.477C904.942 337.971 913.265 337.438 921.801 334.877C930.337 332.316 937.913 327.62 944.528 320.791L978.138 337.118C969.389 350.136 959.039 359.527 947.089 365.289C935.138 370.838 921.481 373.612 906.116 373.612C891.818 373.612 879.228 371.158 868.344 366.249C857.674 361.127 848.712 354.405 841.456 346.081C834.414 337.758 829.079 328.367 825.451 317.91C822.037 307.239 820.436 296.461 820.65 285.577C820.863 274.479 822.997 263.701 827.052 253.244C831.106 242.573 836.975 233.182 844.657 225.072C853.193 215.895 863.116 209.386 874.426 205.544C885.95 201.703 897.687 199.782 909.637 199.782C922.868 199.782 934.285 202.023 943.888 206.505C953.491 210.986 961.28 216.749 967.255 223.792C973.23 230.621 977.178 238.304 979.099 246.841C981.019 255.164 980.806 263.274 978.458 271.171C976.324 279.067 971.95 286.217 965.334 292.62C958.719 298.809 949.756 303.291 938.446 306.065Z"
    fill="#2A1B3C"
  />
  <path
    d="M1087.39 146C1097 146 1105.53 147.281 1113 149.842C1120.68 152.403 1127.62 155.284 1133.81 158.485C1146.4 164.888 1156.75 173.851 1164.86 185.376C1172.97 196.687 1178.83 209.279 1182.46 223.151C1186.09 237.024 1187.48 251.43 1186.62 266.369C1185.98 281.095 1183 295.074 1177.66 308.306C1172.54 321.325 1165.18 332.956 1155.57 343.2C1145.97 353.231 1134.23 360.38 1120.36 364.649C1114.81 366.356 1107.24 367.637 1097.64 368.49C1088.25 369.131 1078.22 369.664 1067.55 370.091C1056.88 370.304 1046.21 370.304 1035.54 370.091C1025.08 370.091 1015.9 370.091 1008.01 370.091V184.095C1008.01 178.76 1008.65 173.745 1009.93 169.049C1011.21 164.354 1013.24 160.299 1016.01 156.884C1019 153.47 1022.84 150.802 1027.53 148.881C1032.44 146.96 1038.42 146 1045.46 146H1087.39ZM1050.58 328.474C1059.97 328.474 1068.83 328.474 1077.15 328.474C1085.47 328.474 1093.05 327.727 1099.88 326.233C1106.92 324.526 1113.32 321.645 1119.08 317.59C1124.84 313.535 1129.86 307.452 1134.13 299.342C1137.54 292.726 1140.1 285.15 1141.81 276.613C1143.52 268.076 1144.05 259.433 1143.41 250.683C1142.98 241.932 1141.28 233.609 1138.29 225.712C1135.51 217.602 1131.25 210.666 1125.48 204.904C1120.58 199.995 1114.71 196.047 1107.88 193.059C1101.05 190.071 1093.9 188.577 1086.43 188.577H1050.58V328.474Z"
    fill="#2A1B3C"
  />
  <path
    d="M1342.88 351.844C1334.77 359.74 1325.92 365.503 1316.31 369.131C1306.92 372.759 1297.43 374.359 1287.82 373.933C1278.22 373.719 1268.83 371.585 1259.66 367.53C1250.69 363.475 1242.69 357.713 1235.65 350.243C1228.82 342.56 1223.27 333.49 1219 323.032C1214.95 312.361 1212.92 300.303 1212.92 286.857C1212.92 274.052 1215.16 262.207 1219.64 251.323C1224.12 240.438 1230.1 231.155 1237.57 223.471C1245.25 215.788 1253.89 209.919 1263.5 205.864C1273.31 201.596 1283.45 199.675 1293.91 200.102C1304.15 200.529 1312.37 202.876 1318.55 207.145C1324.74 211.2 1329.22 216.002 1332 221.551C1334.99 227.1 1336.48 232.755 1336.48 238.518C1336.69 244.067 1335.84 248.548 1333.92 251.963C1330.29 246.628 1325.17 243.106 1318.55 241.399C1311.94 239.478 1305.54 238.518 1299.35 238.518C1289.53 238.518 1281.32 240.972 1274.7 245.881C1268.08 250.576 1263.07 256.552 1259.66 263.808C1256.24 271.064 1254.43 278.961 1254.21 287.497C1254.21 295.821 1255.81 303.611 1259.02 310.867C1262.43 318.123 1267.44 324.206 1274.06 329.114C1280.89 333.81 1289.32 336.157 1299.35 336.157C1307.88 336.157 1314.93 334.236 1320.47 330.395C1326.02 326.553 1330.4 321.645 1333.6 315.669C1337.01 309.48 1339.36 302.65 1340.64 295.181C1342.13 287.497 1342.88 279.921 1342.88 272.451V204.264H1384.49V370.091H1342.88V351.844Z"
    fill="#2A1B3C"
  />
  <path
    d="M1457.86 223.471C1459.57 219.63 1462.13 216.322 1465.55 213.547C1469.17 210.773 1473.12 208.425 1477.39 206.505C1481.66 204.584 1486.03 203.09 1490.51 202.023C1495 200.956 1499.16 200.315 1503 200.102C1511.11 199.675 1519.11 200.849 1527.01 203.623C1534.9 206.184 1542.16 210.773 1548.77 217.389C1558.38 227.42 1563.18 241.826 1563.18 260.607V370.091H1522.2C1522.2 366.463 1522.2 361.554 1522.2 355.365C1522.42 349.176 1522.52 342.453 1522.52 335.197C1522.52 327.727 1522.52 320.044 1522.52 312.148C1522.52 304.251 1522.42 296.781 1522.2 289.738C1521.99 282.696 1521.67 276.4 1521.24 270.851C1520.82 265.302 1520.28 261.247 1519.64 258.686C1517.94 251.856 1514.63 246.734 1509.72 243.32C1505.03 239.905 1499.9 238.197 1494.36 238.197C1487.1 238.197 1481.44 240.225 1477.39 244.28C1473.34 248.121 1471.31 253.244 1471.31 259.646C1468.75 258.792 1466.19 257.085 1463.63 254.524C1461.07 251.75 1459.14 248.868 1457.86 245.881V370.091H1416.57V204.264H1457.86V223.471Z"
    fill="#2A1B3C"
  />
  <path
    d="M1724.06 265.729C1722.36 259.753 1719.05 254.738 1714.14 250.683C1709.45 246.628 1703.9 243.64 1697.5 241.719C1691.09 239.585 1684.27 238.624 1677.01 238.838C1669.75 238.838 1662.82 240.225 1656.2 242.999C1649.8 245.774 1644.15 249.936 1639.24 255.484C1634.33 260.82 1630.92 267.649 1628.99 275.973C1627.5 282.802 1627.29 289.738 1628.35 296.781C1629.42 303.824 1631.88 310.227 1635.72 315.989C1639.56 321.538 1644.68 326.127 1651.08 329.755C1657.7 333.383 1665.59 335.197 1674.77 335.197C1692.05 335.197 1705.5 328.901 1715.1 316.309L1745.51 338.398C1729.29 361.234 1705.93 372.652 1675.41 372.652C1659.4 372.652 1645.53 369.664 1633.8 363.688C1622.27 357.499 1612.88 349.603 1605.63 339.999C1598.37 330.182 1593.46 319.297 1590.9 307.346C1588.34 295.181 1588.02 283.229 1589.94 271.491C1592.08 259.539 1596.56 248.335 1603.39 237.877C1610.22 227.206 1619.5 218.563 1631.24 211.947C1639.98 207.038 1649.27 203.73 1659.08 202.023C1669.11 200.102 1679.14 199.889 1689.17 201.383C1702.4 203.303 1712.65 207.252 1719.9 213.227C1727.37 219.203 1732.28 225.712 1734.63 232.755C1736.97 239.585 1737.08 246.201 1734.95 252.603C1733.03 258.792 1729.4 263.168 1724.06 265.729Z"
    fill="#2A1B3C"
  />
  <path
    d="M1884.05 306.065C1872.53 309.053 1861.96 310.12 1852.36 309.266C1842.97 308.413 1835.18 306.172 1828.99 302.544C1823.02 298.702 1818.96 293.687 1816.83 287.497C1814.91 281.095 1815.55 273.945 1818.75 266.049C1825.37 271.598 1833.05 274.692 1841.8 275.333C1850.55 275.759 1858.98 275.546 1867.09 274.692C1873.91 274.052 1879.04 272.558 1882.45 270.21C1886.08 267.863 1888.32 265.195 1889.17 262.207C1890.03 259.006 1889.71 255.698 1888.21 252.283C1886.72 248.868 1884.26 245.774 1880.85 242.999C1877.65 240.225 1873.59 237.984 1868.69 236.277C1863.99 234.569 1858.76 233.822 1853 234.036C1846.81 234.463 1840.94 235.957 1835.4 238.518C1829.85 241.079 1824.94 244.6 1820.67 249.082C1816.4 253.564 1812.99 258.792 1810.43 264.768C1807.87 270.744 1806.48 277.36 1806.27 284.616C1806.05 290.592 1806.69 296.461 1808.19 302.223C1809.89 307.986 1812.35 313.321 1815.55 318.23C1818.75 322.925 1822.59 326.98 1827.07 330.395C1831.55 333.596 1836.68 335.624 1842.44 336.477C1850.55 337.971 1858.87 337.438 1867.41 334.877C1875.94 332.316 1883.52 327.62 1890.13 320.791L1923.74 337.118C1914.99 350.136 1904.64 359.527 1892.69 365.289C1880.74 370.838 1867.09 373.612 1851.72 373.612C1837.42 373.612 1824.83 371.158 1813.95 366.249C1803.28 361.127 1794.32 354.405 1787.06 346.081C1780.02 337.758 1774.68 328.367 1771.06 317.91C1767.64 307.239 1766.04 296.461 1766.25 285.577C1766.47 274.479 1768.6 263.701 1772.66 253.244C1776.71 242.573 1782.58 233.182 1790.26 225.072C1798.8 215.895 1808.72 209.386 1820.03 205.544C1831.55 201.703 1843.29 199.782 1855.24 199.782C1868.47 199.782 1879.89 202.023 1889.49 206.505C1899.1 210.986 1906.88 216.749 1912.86 223.792C1918.84 230.621 1922.78 238.304 1924.7 246.841C1926.62 255.164 1926.41 263.274 1924.06 271.171C1921.93 279.067 1917.55 286.217 1910.94 292.62C1904.32 298.809 1895.36 303.291 1884.05 306.065Z"
    fill="#2A1B3C"
  />
  <path
    d="M459.956 181.677C444.09 111.578 397.957 65.1912 347.769 43C410.174 98.0139 467.662 204.478 396.141 301.48C366.472 341.738 307.14 357.647 282.285 346.422C282.285 346.422 320.712 338.256 344.613 317.345C391.092 273.319 406.623 202.397 369.419 137.921C364.218 128.895 358.04 120.469 350.996 112.797C350.897 112.682 350.814 112.566 350.716 112.457C324.57 81.2484 288.662 62.6212 250.08 56.9045C199.99 47.4866 135.401 59.7326 87.0287 104.494C34.2935 153.302 17.2145 216.471 23.1088 271.068C39.5127 189.475 102.917 86.4323 222.629 99.892C272.313 105.488 315.735 148.942 318.457 176.098C318.457 176.098 289.496 130.623 217.668 130.623C216.35 130.644 213.568 130.754 213.491 130.754L212.575 130.809C165.871 132.638 120.468 157.081 92.7693 205.087C87.5561 214.107 83.3524 223.674 80.2344 233.616L80.0808 234.022C66.1465 272.287 67.9795 312.715 82.3144 349.003C99.2123 397.125 142.113 446.977 205.034 466.505C273.646 487.801 336.858 471.008 381.158 438.614C302.333 465.176 181.452 461.766 133.244 351.304C113.24 305.45 129.133 246.092 151.283 230.156C151.283 230.156 126.4 277.987 162.326 340.228C186.923 381.326 231.569 409.739 288.272 409.739C291.005 409.739 312.903 408.032 320.795 406.263L321.234 406.203C361.313 399.141 395.389 377.34 419.624 346.774C452.827 308.081 474.522 245.972 459.956 181.677V181.677Z"
    fill="#F1023D"
  />
</svg>
