<svg viewBox="0 0 339 151" fill="none" xmlns="http://www.w3.org/2000/svg">
  <path
    fill-rule="evenodd"
    clip-rule="evenodd"
    d="M49.6359 0.316672C49.2234 0.592172 48.0154 0.821173 46.9514 0.825673C44.8909 0.833673 40.1639 2.17467 33.4394 4.65867C31.5809 5.34517 24.1594 9.61867 23.6359 10.3042C23.4984 10.4842 22.5984 11.1772 21.6359 11.8447C20.6734 12.5122 17.8609 15.1147 15.3859 17.6277C8.68436 24.4332 3.52636 33.5422 1.53886 42.0832C0.183855 47.9057 -0.00964455 49.6342 0.000355448 55.8332C0.0128554 63.3792 0.700855 68.3642 2.51986 74.0832C3.61536 77.5262 9.71036 88.6797 11.1269 89.8332C11.2959 89.9707 11.9829 90.8707 12.6534 91.8332C14.2139 94.0737 17.3954 97.2552 19.6359 98.8157C20.5984 99.4862 21.4984 100.177 21.6359 100.349C22.4109 101.324 30.1984 106.133 32.3509 106.967C43.3649 111.231 44.6834 111.486 55.6359 111.486C65.0894 111.486 67.5084 111.167 72.8859 109.205C78.9084 107.009 79.8364 106.614 81.6949 105.458C84.0539 103.991 84.3554 104.029 85.7029 105.958C86.3274 106.852 87.1974 107.921 87.6359 108.333C88.0744 108.746 88.9744 109.871 89.6359 110.833C90.2974 111.796 91.1974 112.921 91.6359 113.333C92.0744 113.746 92.9764 114.871 93.6404 115.833C94.3039 116.796 95.4269 118.146 96.1359 118.833C96.8449 119.521 97.9679 120.871 98.6314 121.833C99.2954 122.796 100.197 123.921 100.636 124.333C101.074 124.746 101.974 125.871 102.636 126.833C103.297 127.796 104.197 128.921 104.636 129.333C105.074 129.746 105.982 130.871 106.653 131.833C108.319 134.224 111.762 137.62 113.746 138.83C116.001 140.204 120.296 140.189 122.577 138.798C123.508 138.231 125.894 136.104 127.881 134.071C130.947 130.935 131.537 130.051 131.779 128.23C132.134 125.565 131.552 122.292 130.414 120.556C129.237 118.76 117.807 107.376 115.636 105.836C113.659 104.435 100.135 91.0042 100.138 90.4452C100.139 90.2462 100.827 89.0707 101.667 87.8332C103.449 85.2052 108.059 76.2597 108.751 74.0832C109.287 72.3997 109.937 69.7892 110.741 66.0832C111.41 63.0032 111.435 50.1592 110.78 46.0832C109.243 36.5142 103.295 25.1522 95.8859 17.6277C93.4109 15.1147 90.5984 12.5122 89.6359 11.8447C88.6734 11.1772 87.7734 10.4842 87.6359 10.3042C87.1124 9.61867 79.6909 5.34517 77.8324 4.65867C71.6214 2.36417 67.8764 1.26567 64.3859 0.714673C59.8184 -0.00632739 50.4959 -0.257828 49.6359 0.316672ZM63.8859 11.7452C65.2609 12.0342 67.2859 12.4737 68.3859 12.7217C70.7184 13.2482 78.8889 17.2787 82.1174 19.4957C86.8809 22.7662 93.2909 30.3132 96.3459 36.2487C97.4869 38.4647 99.1464 43.4882 99.7599 46.5832C100.545 50.5462 100.784 61.8032 100.13 64.0832C97.3409 73.8147 96.0499 76.7802 91.9719 82.8247C89.1879 86.9522 88.2279 88.0142 85.6359 89.8332C84.6734 90.5087 83.3629 91.5792 82.7239 92.2117C81.3059 93.6152 71.7374 98.4127 68.6359 99.2752C67.3984 99.6192 65.6949 100.111 64.8504 100.367C62.8729 100.967 48.4329 100.975 46.4214 100.377C36.3114 97.3697 31.2294 94.9537 27.7744 91.5127C27.1629 90.9037 26.0124 90.0212 25.2174 89.5517C24.4219 89.0822 23.3869 88.0472 22.9174 87.2517C22.4479 86.4567 21.5654 85.3062 20.9564 84.6947C17.0284 80.7507 14.2414 74.8987 11.1414 64.0832C10.7819 62.8297 10.6519 59.6572 10.7924 55.5832C11.0314 48.6467 11.5204 45.2907 12.7589 42.0832C13.1834 40.9832 13.9704 38.9427 14.5074 37.5482C16.6624 31.9532 23.7734 23.1892 29.1544 19.4967C34.1579 16.0627 44.2354 11.8432 47.4739 11.8257C48.2504 11.8212 49.2234 11.5922 49.6359 11.3167C50.5474 10.7077 60.3544 11.0022 63.8859 11.7452ZM52.8589 29.3767C52.3564 30.1897 53.1559 30.7007 55.3859 30.9912C59.0974 31.4747 61.3724 32.1642 64.4989 33.7532C71.2629 37.1912 75.1784 43.2292 76.5474 52.3332C76.7754 53.8497 77.1304 54.5832 77.6359 54.5832C78.2064 54.5832 78.4214 53.8377 78.5344 51.4692C78.6874 48.2682 77.9909 45.4692 76.1384 41.8377C75.1154 39.8332 69.2839 33.6027 67.1114 32.1927C63.4649 29.8272 53.7649 27.9107 52.8589 29.3767ZM304.872 42.4407C304.736 42.7942 304.684 53.5457 304.755 66.3332L304.886 89.5832H310.136H315.386L315.522 80.5152C315.657 71.4847 315.663 71.4422 316.965 70.1402C318.006 69.0997 318.754 68.8332 320.636 68.8332C322.518 68.8332 323.266 69.0997 324.307 70.1402C325.608 71.4422 325.614 71.4847 325.75 80.5152L325.886 89.5832H330.636H335.386L335.521 78.6687C335.649 68.2622 335.605 67.6647 334.57 65.8232C333.814 64.4782 332.614 63.4277 330.615 62.3627C328.085 61.0142 327.26 60.8332 323.643 60.8332C320.262 60.8332 319.278 61.0202 318.049 61.8947C317.165 62.5247 316.376 62.7732 316.108 62.5057C315.86 62.2577 315.596 57.5612 315.522 52.0692L315.386 42.0832L310.252 41.9407C306.425 41.8342 305.055 41.9617 304.872 42.4407ZM158.887 51.4392C158.759 51.7937 158.594 53.9957 158.52 56.3332L158.386 60.5832L156.636 60.8332L154.886 61.0832V64.8332V68.5832L156.636 68.8332L158.386 69.0832L158.689 76.3332C158.855 80.3207 159.156 84.1677 159.357 84.8822C159.837 86.5837 161.463 88.4392 163.636 89.7632C166.867 91.7317 175.178 90.7907 175.541 88.4147C175.696 87.4017 174.582 83.6017 173.583 81.7347C173.281 81.1707 172.758 80.8782 172.347 81.0442C171.956 81.2032 171.313 81.4637 170.92 81.6237C169.448 82.2207 168.589 79.1922 168.743 73.9482L168.886 69.0832L171.636 68.8332L174.386 68.5832V64.8332V61.0832L171.636 60.8332L168.886 60.5832L168.636 55.8332L168.386 51.0832L163.752 50.9392C160.321 50.8327 159.059 50.9627 158.887 51.4392ZM217.136 60.7857C212.5 61.5132 208.188 64.7892 205.886 69.3332C204.914 71.2512 204.637 72.5547 204.643 75.1917C204.659 82.1797 207.328 86.1292 214.491 89.7647C218.351 91.7237 227.164 90.8852 230.55 88.2372C231.792 87.2652 234.636 84.1867 234.636 83.8132C234.636 82.9892 229.511 79.8332 228.173 79.8332C227.897 79.8332 226.606 80.5082 225.305 81.3332C222.691 82.9907 221.75 83.1192 219.069 82.1852C216.354 81.2392 215.563 80.3942 215.735 78.6257L215.886 77.0832L225.636 76.8332L235.386 76.5832L235.538 74.4812C235.695 72.3287 234.697 68.6882 233.306 66.3327C232.101 64.2927 226.311 60.8332 224.101 60.8332C223.089 60.8332 221.614 60.7432 220.823 60.6327C220.033 60.5227 218.373 60.5912 217.136 60.7857ZM249.093 60.7892C246.052 61.2157 243.201 63.1922 240.232 66.9317C238.97 68.5207 237.636 73.0962 237.636 75.8332C237.636 78.5652 238.964 83.1262 240.232 84.7472C245.179 91.0727 253.17 92.7017 259.36 88.6462C260.772 87.7207 260.798 87.7227 261.605 88.7927C262.353 89.7837 262.802 89.8627 266.904 89.7292L271.386 89.5832L271.519 76.1317C271.678 60.0707 271.939 60.8332 266.291 60.8332C263.716 60.8332 262.223 61.0807 261.351 61.6517C260.209 62.3997 259.943 62.4027 258.244 61.6867C255.977 60.7307 252.17 60.3572 249.093 60.7892ZM120.463 61.7477C119.762 62.5227 119.636 63.9522 119.636 71.1297C119.636 78.2682 119.788 80.0142 120.607 82.2542C122.215 86.6537 123.815 88.2537 128.215 89.8622C133.39 91.7537 143.167 90.8872 146.548 88.2372C150.48 85.1542 151.154 82.7492 151.474 70.6497C151.736 60.7877 151.76 60.8332 146.136 60.8332C140.585 60.8332 140.64 60.7342 140.618 70.8727C140.598 80.1332 140.325 81.1032 137.459 82.0887C135.998 82.5907 135.274 82.5907 133.813 82.0887C130.942 81.1017 130.673 80.1407 130.653 70.7857C130.632 60.7117 130.7 60.8332 125.049 60.8332C122.043 60.8332 121.125 61.0162 120.463 61.7477ZM178.869 61.4462C178.732 61.8047 178.679 68.2817 178.752 75.8402L178.886 89.5832H183.636H188.386L188.636 81.8082C188.847 75.2527 189.037 73.8017 189.848 72.5582C191.482 70.0537 192.093 69.8002 196.136 69.9467L199.886 70.0832L201.805 66.4207C203.643 62.9122 203.687 62.7182 202.852 61.7957C202.137 61.0062 201.298 60.8337 198.183 60.8352C194.383 60.8367 192.342 61.5557 190.278 63.6197C189.176 64.7217 188.713 64.4787 188.542 62.7082L188.386 61.0832L183.752 60.9392C180.302 60.8322 179.055 60.9617 178.869 61.4462ZM284.81 61.7977C281.052 64.0892 279.204 66.0282 277.208 69.7732C273.855 76.0642 275.891 82.8807 282.724 88.2372C286.63 91.2992 296.468 91.6697 299.828 88.8812C300.928 87.9682 300.85 87.2232 299.344 84.2507L298.052 81.7017L295.457 81.9697C291.767 82.3507 290.355 81.9522 288.376 79.9732C286.887 78.4847 286.636 77.8972 286.638 75.9082C286.64 73.0897 287.972 70.7022 290.178 69.5612C291.722 68.7627 293.501 68.7722 296.727 69.5947C297.978 69.9137 298.177 69.7237 299.661 66.7837C300.72 64.6852 301.105 63.3972 300.813 62.9332C299.987 61.6237 296.49 60.8482 291.386 60.8427C287.327 60.8382 286.089 61.0177 284.81 61.7977ZM222.636 67.8982C224.357 68.9417 225.113 69.7182 225.128 70.4582C225.141 71.0677 216.237 70.9017 215.856 70.2852C215.277 69.3487 217.819 67.5457 220.636 66.8947C220.773 66.8627 221.673 67.3142 222.636 67.8982ZM257.663 69.9087C258.796 70.5457 260.021 71.8217 260.666 73.0372C261.695 74.9772 261.714 75.2147 261.008 77.3367C260.022 80.2992 257.84 81.8332 254.612 81.8332C252.55 81.8332 251.997 81.5947 250.436 80.0332C248.876 78.4737 248.638 77.9227 248.653 75.9082C248.677 72.8487 249.541 71.4127 252.198 70.0232C254.932 68.5927 255.307 68.5847 257.663 69.9087ZM264.479 102.73C263.751 103.534 263.636 104.942 263.636 112.998C263.636 119.182 263.459 122.333 263.111 122.333C262.822 122.333 261.882 121.969 261.021 121.524C258.879 120.416 251.415 120.405 249.285 121.506C247.838 122.254 244.665 125.093 243.232 126.921C241.965 128.537 240.636 133.101 240.636 135.833C240.636 138.565 241.964 143.126 243.232 144.747C248.179 151.073 256.17 152.702 262.36 148.646C263.772 147.721 263.798 147.723 264.605 148.793C265.353 149.784 265.802 149.863 269.904 149.729L274.386 149.583V125.833V102.083L269.854 101.941C265.956 101.818 265.205 101.928 264.479 102.73ZM157.868 104.45C157.734 104.798 157.684 115.096 157.755 127.333L157.886 149.583H163.136H168.386L168.636 140.833L168.886 132.083L176.136 131.833L183.386 131.583V126.833V122.083L176.136 121.833L168.886 121.583V117.833V114.083L176.636 113.833L184.386 113.583V108.833V104.083L171.248 103.95C161.009 103.846 158.057 103.956 157.868 104.45ZM190.436 105.633C188.877 107.192 188.638 107.745 188.652 109.758C188.66 111.037 188.946 112.449 189.285 112.895C190.265 114.182 193.269 115.83 194.636 115.83C197.425 115.83 200.638 112.564 200.634 109.733C200.632 108.449 198.944 105.432 197.697 104.483C197.251 104.143 195.839 103.858 194.561 103.849C192.548 103.835 191.994 104.075 190.436 105.633ZM291.136 120.786C286.5 121.513 282.188 124.789 279.886 129.333C278.914 131.251 278.637 132.555 278.643 135.192C278.659 142.18 281.328 146.129 288.491 149.765C292.351 151.724 301.164 150.885 304.55 148.237C305.792 147.265 308.636 144.187 308.636 143.813C308.636 142.989 303.511 139.833 302.173 139.833C301.897 139.833 300.606 140.508 299.305 141.333C296.691 142.991 295.75 143.119 293.069 142.185C290.354 141.239 289.563 140.394 289.735 138.626L289.886 137.083L299.636 136.833L309.386 136.583L309.538 134.481C309.695 132.329 308.697 128.688 307.306 126.333C306.101 124.293 300.311 120.833 298.101 120.833C297.089 120.833 295.614 120.743 294.823 120.633C294.033 120.523 292.373 120.591 291.136 120.786ZM189.869 121.446C189.732 121.805 189.679 128.282 189.752 135.84L189.886 149.583H194.636H199.386V135.333V121.083L194.752 120.939C191.302 120.832 190.055 120.962 189.869 121.446ZM206.455 121.757C205.71 122.58 205.634 124.145 205.752 136.132L205.886 149.583H211.136H216.386L216.522 140.515C216.657 131.485 216.663 131.442 217.965 130.14C219.006 129.1 219.754 128.833 221.636 128.833C223.518 128.833 224.266 129.1 225.307 130.14C226.608 131.442 226.614 131.485 226.75 140.515L226.886 149.583H231.636H236.386L236.521 138.669C236.649 128.262 236.605 127.665 235.57 125.823C234.814 124.478 233.614 123.428 231.615 122.363C229.085 121.014 228.26 120.833 224.643 120.833C221.297 120.833 220.272 121.024 219.088 121.867L217.636 122.901L216.184 121.867C214.172 120.435 207.718 120.361 206.455 121.757ZM314.455 121.757C313.71 122.58 313.634 124.145 313.752 136.132L313.886 149.583H319.136H324.386L324.522 141.015C324.659 132.461 324.661 132.444 326.003 131.102C327.223 129.882 327.628 129.775 330.367 129.948C332.027 130.053 333.767 130.314 334.233 130.529C334.921 130.845 335.415 130.254 336.858 127.389C338.896 123.342 338.978 122.798 337.721 121.661C337.046 121.049 335.851 120.833 333.14 120.833C330.104 120.833 329.096 121.054 327.28 122.119L325.086 123.405L324.075 122.119C323.143 120.935 322.755 120.833 319.177 120.833C316.033 120.833 315.131 121.01 314.455 121.757ZM296.636 127.898C298.357 128.942 299.113 129.718 299.128 130.458C299.141 131.068 290.237 130.902 289.856 130.285C289.277 129.349 291.819 127.546 294.636 126.895C294.773 126.863 295.673 127.314 296.636 127.898ZM260.663 129.909C261.796 130.546 263.021 131.822 263.666 133.037C264.695 134.977 264.714 135.215 264.008 137.337C263.022 140.299 260.84 141.833 257.612 141.833C255.55 141.833 254.997 141.595 253.436 140.033C251.876 138.474 251.638 137.923 251.653 135.908C251.677 132.849 252.541 131.413 255.198 130.023C257.932 128.593 258.307 128.585 260.663 129.909Z"
    fill="#6585B2"
  />
</svg>
