<svg
  width="200"
  height="115"
  viewBox="0 0 1387 796"
  fill="none"
  xmlns="http://www.w3.org/2000/svg"
>
  <path
    d="M0 568.64H41.933L74.263 711.418L103.392 607.376C107.02 594.784 112.355 584.967 119.397 577.924C126.653 570.668 136.682 567.573 149.486 568.64L190.139 711.418L213.506 607.056C216.707 593.184 222.255 582.833 230.151 576.003C238.047 569.174 249.357 566.719 264.082 568.64L213.186 792.091H172.533L131.561 647.712L91.2282 792.091H50.8957L0 568.64Z"
    fill="#210309"
  />
  <path
    d="M399.446 728.065C387.923 731.053 377.359 732.12 367.756 731.266C358.367 730.413 350.578 728.172 344.389 724.544C338.414 720.702 334.359 715.687 332.225 709.497C330.305 703.095 330.945 695.945 334.146 688.049C340.761 693.598 348.444 696.692 357.193 697.333C365.942 697.759 374.372 697.546 382.481 696.692C389.31 696.052 394.431 694.558 397.846 692.21C401.473 689.863 403.714 687.195 404.568 684.207C405.421 681.006 405.101 677.698 403.607 674.283C402.114 670.868 399.659 667.774 396.245 664.999C393.044 662.225 388.99 659.984 384.081 658.277C379.387 656.569 374.158 655.822 368.396 656.036C362.208 656.463 356.339 657.957 350.791 660.518C345.243 663.079 340.334 666.6 336.066 671.082C331.798 675.564 328.384 680.792 325.823 686.768C323.263 692.744 321.875 699.36 321.662 706.616C321.449 712.592 322.089 718.461 323.583 724.223C325.29 729.986 327.744 735.321 330.945 740.23C334.146 744.925 337.987 748.98 342.468 752.395C346.95 755.596 352.071 757.624 357.833 758.477C365.942 759.971 374.265 759.438 382.801 756.877C391.337 754.316 398.913 749.62 405.528 742.791L439.138 759.118C430.389 772.136 420.039 781.527 408.089 787.289C396.138 792.838 382.481 795.612 367.116 795.612C352.818 795.612 340.228 793.158 329.344 788.249C318.674 783.127 309.712 776.405 302.456 768.081C295.414 759.758 290.079 750.367 286.451 739.91C283.037 729.239 281.436 718.461 281.65 707.577C281.863 696.479 283.997 685.701 288.052 675.244C292.106 664.573 297.975 655.182 305.657 647.072C314.193 637.895 324.116 631.386 335.426 627.544C346.95 623.703 358.687 621.782 370.637 621.782C383.868 621.782 395.285 624.023 404.888 628.505C414.491 632.986 422.28 638.749 428.255 645.792C434.23 652.621 438.178 660.304 440.099 668.841C442.019 677.164 441.806 685.274 439.458 693.171C437.324 701.067 432.95 708.217 426.334 714.62C419.719 720.809 410.756 725.291 399.446 728.065Z"
    fill="#210309"
  />
  <path
    d="M548.392 568C557.995 568 566.531 569.281 574 571.842C581.682 574.403 588.618 577.284 594.807 580.485C607.397 586.888 617.747 595.851 625.856 607.376C633.965 618.687 639.834 631.279 643.462 645.151C647.089 659.024 648.476 673.43 647.623 688.369C646.983 703.095 643.995 717.074 638.66 730.306C633.539 743.325 626.176 754.956 616.573 765.2C606.97 775.231 595.233 782.38 581.362 786.649C575.814 788.356 568.238 789.637 558.635 790.49C549.246 791.131 539.216 791.664 528.546 792.091C517.876 792.304 507.206 792.304 496.536 792.091C486.08 792.091 476.903 792.091 469.008 792.091V606.095C469.008 600.76 469.648 595.745 470.928 591.049C472.209 586.354 474.236 582.299 477.01 578.884C479.998 575.47 483.839 572.802 488.534 570.881C493.442 568.96 499.417 568 506.459 568H548.392ZM511.581 750.474C520.97 750.474 529.826 750.474 538.149 750.474C546.472 750.474 554.047 749.727 560.876 748.233C567.918 746.526 574.32 743.645 580.082 739.59C585.844 735.535 590.859 729.452 595.127 721.342C598.541 714.726 601.102 707.15 602.809 698.613C604.516 690.076 605.05 681.433 604.409 672.683C603.983 663.932 602.275 655.609 599.288 647.712C596.514 639.602 592.246 632.666 586.484 626.904C581.576 621.995 575.707 618.047 568.879 615.059C562.05 612.071 554.901 610.577 547.432 610.577H511.581V750.474Z"
    fill="#210309"
  />
  <path
    d="M803.881 773.844C795.772 781.74 786.916 787.503 777.313 791.131C767.923 794.759 758.427 796.359 748.824 795.933C739.221 795.719 729.832 793.585 720.655 789.53C711.693 785.475 703.69 779.713 696.648 772.243C689.819 764.56 684.271 755.49 680.003 745.032C675.948 734.361 673.921 722.303 673.921 708.857C673.921 696.052 676.162 684.207 680.643 673.323C685.124 662.438 691.1 653.155 698.569 645.471C706.251 637.788 714.894 631.919 724.497 627.864C734.313 623.596 744.45 621.675 754.906 622.102C765.149 622.529 773.365 624.876 779.554 629.145C785.742 633.2 790.224 638.002 792.998 643.551C795.985 649.1 797.479 654.755 797.479 660.518C797.693 666.067 796.839 670.548 794.918 673.963C791.291 668.628 786.169 665.106 779.554 663.399C772.938 661.478 766.536 660.518 760.348 660.518C750.531 660.518 742.315 662.972 735.7 667.881C729.085 672.576 724.07 678.552 720.655 685.808C717.241 693.064 715.427 700.961 715.214 709.497C715.214 717.821 716.814 725.611 720.015 732.867C723.43 740.123 728.445 746.206 735.06 751.114C741.889 755.81 750.318 758.157 760.348 758.157C768.884 758.157 775.926 756.236 781.474 752.395C787.023 748.553 791.397 743.645 794.598 737.669C798.013 731.48 800.36 724.65 801.641 717.181C803.134 709.497 803.881 701.921 803.881 694.451V626.264H845.494V792.091H803.881V773.844Z"
    fill="#210309"
  />
  <path
    d="M918.864 645.471C920.571 641.63 923.132 638.322 926.547 635.547C930.174 632.773 934.122 630.425 938.39 628.505C942.658 626.584 947.033 625.09 951.514 624.023C955.996 622.956 960.157 622.315 963.998 622.102C972.107 621.675 980.11 622.849 988.006 625.623C995.901 628.184 1003.16 632.773 1009.77 639.389C1019.38 649.42 1024.18 663.826 1024.18 682.607V792.091H983.204C983.204 788.463 983.204 783.554 983.204 777.365C983.418 771.176 983.524 764.453 983.524 757.197C983.524 749.727 983.524 742.044 983.524 734.148C983.524 726.251 983.418 718.781 983.204 711.738C982.991 704.696 982.671 698.4 982.244 692.851C981.817 687.302 981.284 683.247 980.643 680.686C978.936 673.856 975.629 668.734 970.72 665.32C966.026 661.905 960.904 660.197 955.356 660.197C948.1 660.197 942.445 662.225 938.39 666.28C934.336 670.121 932.308 675.244 932.308 681.646C929.748 680.792 927.187 679.085 924.626 676.524C922.065 673.75 920.145 670.868 918.864 667.881V792.091H877.571V626.264H918.864V645.471Z"
    fill="#210309"
  />
  <path
    d="M1185.06 687.729C1183.36 681.753 1180.05 676.738 1175.14 672.683C1170.45 668.628 1164.9 665.64 1158.5 663.719C1152.09 661.585 1145.27 660.624 1138.01 660.838C1130.75 660.838 1123.82 662.225 1117.2 664.999C1110.8 667.774 1105.15 671.936 1100.24 677.484C1095.33 682.82 1091.92 689.649 1089.99 697.973C1088.5 704.802 1088.29 711.738 1089.35 718.781C1090.42 725.824 1092.88 732.227 1096.72 737.989C1100.56 743.538 1105.68 748.127 1112.08 751.755C1118.7 755.383 1126.59 757.197 1135.77 757.197C1153.05 757.197 1166.5 750.901 1176.1 738.309L1206.51 760.398C1190.29 783.234 1166.93 794.652 1136.41 794.652C1120.4 794.652 1106.53 791.664 1094.8 785.688C1083.27 779.499 1073.88 771.603 1066.63 761.999C1059.37 752.182 1054.46 741.297 1051.9 729.346C1049.34 717.181 1049.02 705.229 1050.94 693.491C1053.08 681.539 1057.56 670.335 1064.39 659.877C1071.22 649.206 1080.5 640.563 1092.24 633.947C1100.98 629.038 1110.27 625.73 1120.08 624.023C1130.11 622.102 1140.14 621.889 1150.17 623.383C1163.4 625.303 1173.65 629.252 1180.9 635.227C1188.37 641.203 1193.28 647.712 1195.63 654.755C1197.97 661.585 1198.08 668.201 1195.95 674.603C1194.03 680.792 1190.4 685.168 1185.06 687.729Z"
    fill="#210309"
  />
  <path
    d="M1345.05 728.065C1333.53 731.053 1322.96 732.12 1313.36 731.266C1303.97 730.413 1296.18 728.172 1289.99 724.544C1284.02 720.702 1279.96 715.687 1277.83 709.497C1275.91 703.095 1276.55 695.945 1279.75 688.049C1286.37 693.598 1294.05 696.692 1302.8 697.333C1311.55 697.759 1319.98 697.546 1328.09 696.692C1334.91 696.052 1340.04 694.558 1343.45 692.21C1347.08 689.863 1349.32 687.195 1350.17 684.207C1351.03 681.006 1350.71 677.698 1349.21 674.283C1347.72 670.868 1345.26 667.774 1341.85 664.999C1338.65 662.225 1334.59 659.984 1329.69 658.277C1324.99 656.569 1319.76 655.822 1314 656.036C1307.81 656.463 1301.94 657.957 1296.4 660.518C1290.85 663.079 1285.94 666.6 1281.67 671.082C1277.4 675.564 1273.99 680.792 1271.43 686.768C1268.87 692.744 1267.48 699.36 1267.27 706.616C1267.05 712.592 1267.69 718.461 1269.19 724.223C1270.89 729.986 1273.35 735.321 1276.55 740.23C1279.75 744.925 1283.59 748.98 1288.07 752.395C1292.55 755.596 1297.68 757.624 1303.44 758.477C1311.55 759.971 1319.87 759.438 1328.41 756.877C1336.94 754.316 1344.52 749.62 1351.13 742.791L1384.74 759.118C1375.99 772.136 1365.64 781.527 1353.69 787.289C1341.74 792.838 1328.09 795.612 1312.72 795.612C1298.42 795.612 1285.83 793.158 1274.95 788.249C1264.28 783.127 1255.32 776.405 1248.06 768.081C1241.02 759.758 1235.68 750.367 1232.06 739.91C1228.64 729.239 1227.04 718.461 1227.25 707.577C1227.47 696.479 1229.6 685.701 1233.66 675.244C1237.71 664.573 1243.58 655.182 1251.26 647.072C1259.8 637.895 1269.72 631.386 1281.03 627.544C1292.55 623.703 1304.29 621.782 1316.24 621.782C1329.47 621.782 1340.89 624.023 1350.49 628.505C1360.1 632.986 1367.88 638.749 1373.86 645.792C1379.84 652.621 1383.78 660.304 1385.7 668.841C1387.62 677.164 1387.41 685.274 1385.06 693.171C1382.93 701.067 1378.55 708.217 1371.94 714.62C1365.32 720.809 1356.36 725.291 1345.05 728.065Z"
    fill="#210309"
  />
  <path
    d="M903.956 181.677C888.09 111.578 841.957 65.1912 791.769 43C854.174 98.0139 911.662 204.478 840.141 301.48C810.472 341.738 751.14 357.647 726.285 346.422C726.285 346.422 764.712 338.256 788.613 317.345C835.092 273.319 850.623 202.397 813.419 137.921C808.218 128.895 802.04 120.469 794.996 112.797C794.897 112.682 794.814 112.566 794.716 112.457C768.57 81.2484 732.662 62.6212 694.08 56.9045C643.99 47.4866 579.401 59.7326 531.029 104.494C478.294 153.302 461.215 216.471 467.109 271.068C483.513 189.475 546.917 86.4323 666.629 99.892C716.313 105.488 759.735 148.942 762.457 176.098C762.457 176.098 733.496 130.623 661.668 130.623C660.35 130.644 657.568 130.754 657.491 130.754L656.575 130.809C609.871 132.638 564.468 157.081 536.769 205.087C531.556 214.107 527.352 223.674 524.234 233.616L524.081 234.022C510.146 272.287 511.98 312.715 526.314 349.003C543.212 397.125 586.113 446.977 649.034 466.505C717.646 487.801 780.858 471.008 825.158 438.614C746.333 465.176 625.452 461.766 577.244 351.304C557.24 305.45 573.133 246.092 595.283 230.156C595.283 230.156 570.4 277.987 606.326 340.228C630.923 381.326 675.569 409.739 732.272 409.739C735.005 409.739 756.903 408.032 764.795 406.263L765.234 406.203C805.313 399.141 839.389 377.34 863.624 346.774C896.827 308.081 918.522 245.972 903.956 181.677V181.677Z"
    fill="#F1023D"
  />
</svg>
