<svg
  width="300"
  height="300"
  viewBox="0 0 300 300"
  fill="none"
  xmlns="http://www.w3.org/2000/svg"
>
  <path d="M300 0H0V300H300V0Z" fill="white" />
  <path
    d="M29.5573 222.39L20 180.518H27.843L33.9289 207.304L39.3718 187.804C40.0576 185.432 41.0719 183.575 42.4148 182.232C43.7576 180.889 45.6291 180.318 48.0292 180.518L55.6579 207.304L60.0294 187.718C60.6294 185.118 61.6723 183.175 63.1581 181.889C64.6152 180.632 66.7296 180.175 69.5011 180.518L59.9437 222.39H52.3578L44.6434 195.347L37.1004 222.39H29.5573ZM94.873 210.39C92.7301 210.962 90.7586 211.162 88.9586 210.99C87.1871 210.847 85.73 210.419 84.5871 209.704C83.4442 209.019 82.687 208.09 82.3156 206.919C81.9442 205.719 82.0585 204.376 82.6585 202.89C83.8871 203.947 85.3157 204.519 86.9443 204.604C88.6015 204.719 90.1872 204.69 91.7015 204.519C92.9873 204.404 93.9587 204.133 94.6159 203.704C95.273 203.247 95.6873 202.733 95.8588 202.161C96.0016 201.59 95.9302 200.976 95.6445 200.318C95.3873 199.69 94.9444 199.118 94.3159 198.604C93.6873 198.061 92.9301 197.633 92.0444 197.318C91.1301 197.004 90.1301 196.861 89.0443 196.89C87.9014 196.976 86.8014 197.261 85.7443 197.747C84.7157 198.233 83.8014 198.89 83.0013 199.718C82.2013 200.576 81.5584 201.561 81.0727 202.676C80.587 203.79 80.3299 205.033 80.3013 206.404C80.2727 207.519 80.4013 208.619 80.687 209.704C81.0013 210.762 81.4584 211.747 82.0585 212.662C82.6585 213.547 83.3728 214.304 84.2014 214.933C85.03 215.562 85.9871 215.947 87.0729 216.09C88.5872 216.376 90.1443 216.276 91.7444 215.79C93.3444 215.333 94.773 214.462 96.0302 213.176L102.33 216.219C100.673 218.676 98.7302 220.433 96.5016 221.49C94.273 222.547 91.7158 223.076 88.83 223.076C86.1443 223.076 83.7871 222.605 81.7585 221.662C79.7584 220.719 78.0869 219.462 76.7441 217.89C75.4012 216.347 74.4012 214.59 73.744 212.619C73.0868 210.619 72.7726 208.59 72.8011 206.533C72.8297 204.476 73.2297 202.461 74.0011 200.49C74.7726 198.49 75.8726 196.733 77.3012 195.218C78.9012 193.504 80.7727 192.29 82.9156 191.575C85.0585 190.861 87.2443 190.504 89.4729 190.504C91.9587 190.504 94.1016 190.918 95.9016 191.747C97.7017 192.575 99.1588 193.647 100.273 194.961C101.387 196.247 102.13 197.69 102.502 199.29C102.873 200.861 102.845 202.39 102.416 203.876C101.987 205.361 101.159 206.69 99.9303 207.861C98.6731 209.033 96.9873 209.876 94.873 210.39ZM114.931 180.389H122.774C124.574 180.389 126.188 180.632 127.617 181.118C129.045 181.604 130.331 182.147 131.474 182.747C133.845 183.947 135.788 185.618 137.302 187.761C138.817 189.904 139.917 192.275 140.603 194.875C141.288 197.476 141.56 200.161 141.417 202.933C141.274 205.704 140.717 208.333 139.745 210.819C138.745 213.276 137.345 215.447 135.545 217.333C133.745 219.247 131.545 220.605 128.945 221.405C127.917 221.719 126.517 221.947 124.745 222.09C122.945 222.233 121.045 222.333 119.045 222.39C117.045 222.447 115.059 222.462 113.088 222.433C111.116 222.405 109.388 222.39 107.902 222.39V187.547C107.902 186.547 108.016 185.604 108.245 184.718C108.502 183.832 108.902 183.075 109.445 182.447C109.988 181.818 110.702 181.318 111.588 180.947C112.502 180.575 113.616 180.389 114.931 180.389ZM115.873 188.404V214.59C117.645 214.59 119.302 214.59 120.845 214.59C122.416 214.59 123.859 214.447 125.174 214.162C126.459 213.847 127.645 213.319 128.731 212.576C129.817 211.804 130.759 210.662 131.56 209.147C132.188 207.919 132.66 206.504 132.974 204.904C133.288 203.304 133.402 201.676 133.317 200.018C133.202 198.39 132.888 196.818 132.374 195.304C131.831 193.818 131.017 192.533 129.931 191.447C129.017 190.533 127.917 189.79 126.631 189.218C125.345 188.675 124.002 188.404 122.602 188.404H115.873ZM170.646 222.39V219.005C169.132 220.462 167.489 221.533 165.717 222.219C163.946 222.905 162.16 223.219 160.36 223.162C158.56 223.105 156.803 222.69 155.089 221.919C153.403 221.176 151.903 220.09 150.588 218.662C149.303 217.233 148.26 215.533 147.46 213.562C146.688 211.59 146.303 209.333 146.303 206.79C146.303 204.39 146.717 202.176 147.546 200.147C148.403 198.118 149.531 196.376 150.931 194.918C152.36 193.49 153.989 192.39 155.817 191.618C157.646 190.818 159.532 190.461 161.474 190.547C163.389 190.633 164.932 191.061 166.103 191.833C167.275 192.604 168.117 193.518 168.632 194.575C169.175 195.604 169.46 196.647 169.489 197.704C169.517 198.761 169.346 199.618 168.975 200.276C168.289 199.276 167.332 198.604 166.103 198.261C164.875 197.918 163.674 197.747 162.503 197.747C160.674 197.747 159.132 198.204 157.874 199.118C156.646 200.004 155.703 201.133 155.046 202.504C154.417 203.847 154.089 205.319 154.06 206.919C154.06 208.49 154.36 209.947 154.96 211.29C155.589 212.662 156.531 213.804 157.789 214.719C159.046 215.604 160.617 216.047 162.503 216.047C164.103 216.047 165.417 215.69 166.446 214.976C167.503 214.262 168.332 213.333 168.932 212.19C169.56 211.047 170.003 209.762 170.26 208.333C170.517 206.904 170.646 205.49 170.646 204.09V194.618V191.318H178.446V222.39H170.646ZM192.204 191.318V194.918C192.518 194.204 193.004 193.59 193.661 193.075C194.318 192.561 195.047 192.118 195.847 191.747C196.647 191.375 197.475 191.09 198.332 190.89C199.161 190.69 199.932 190.575 200.647 190.547C202.19 190.461 203.69 190.675 205.147 191.19C206.633 191.675 208.004 192.547 209.261 193.804C211.061 195.661 211.961 198.361 211.961 201.904V222.39H204.247C204.247 221.733 204.261 220.819 204.29 219.647C204.318 218.476 204.332 217.205 204.332 215.833C204.332 214.462 204.332 213.033 204.332 211.547C204.332 210.062 204.304 208.661 204.247 207.347C204.218 206.033 204.161 204.847 204.075 203.79C203.99 202.761 203.89 202.004 203.775 201.518C203.461 200.233 202.861 199.276 201.975 198.647C201.061 198.018 200.09 197.704 199.061 197.704C197.689 197.704 196.618 198.076 195.847 198.818C195.104 199.533 194.732 200.49 194.732 201.69C194.247 201.547 193.761 201.218 193.275 200.704C192.789 200.218 192.432 199.69 192.204 199.118V200.747V222.39H184.446V191.318H192.204ZM242.133 202.847C241.819 201.733 241.205 200.79 240.29 200.018C239.405 199.276 238.362 198.704 237.162 198.304C235.962 197.933 234.676 197.761 233.305 197.79C231.933 197.79 230.647 198.061 229.447 198.604C228.219 199.118 227.147 199.89 226.233 200.918C225.319 201.918 224.676 203.204 224.304 204.776C224.019 206.061 223.976 207.361 224.176 208.676C224.376 209.99 224.833 211.176 225.547 212.233C226.29 213.29 227.262 214.162 228.462 214.847C229.69 215.533 231.162 215.876 232.876 215.876C236.133 215.876 238.662 214.69 240.462 212.319L246.162 216.476C243.105 220.762 238.719 222.905 233.005 222.905C230.004 222.905 227.419 222.333 225.247 221.19C223.047 220.047 221.276 218.562 219.933 216.733C218.561 214.904 217.633 212.862 217.147 210.604C216.69 208.347 216.647 206.119 217.018 203.919C217.39 201.69 218.218 199.59 219.504 197.618C220.79 195.618 222.533 194.004 224.733 192.775C226.362 191.861 228.104 191.233 229.962 190.89C231.819 190.547 233.69 190.518 235.576 190.804C238.062 191.147 239.99 191.875 241.362 192.99C242.762 194.133 243.676 195.347 244.105 196.633C244.533 197.947 244.562 199.19 244.19 200.361C243.819 201.533 243.133 202.361 242.133 202.847ZM272.134 210.39C269.962 210.962 267.991 211.162 266.219 210.99C264.448 210.847 262.991 210.419 261.848 209.704C260.705 209.019 259.948 208.09 259.577 206.919C259.176 205.719 259.276 204.376 259.877 202.89C261.134 203.947 262.577 204.519 264.205 204.604C265.834 204.719 267.42 204.69 268.962 204.519C270.22 204.404 271.191 204.133 271.877 203.704C272.534 203.247 272.934 202.733 273.077 202.161C273.248 201.59 273.191 200.976 272.905 200.318C272.62 199.69 272.177 199.118 271.577 198.604C270.948 198.061 270.177 197.633 269.262 197.318C268.377 197.004 267.391 196.861 266.305 196.89C265.134 196.976 264.034 197.261 263.005 197.747C261.977 198.233 261.062 198.89 260.262 199.718C259.462 200.576 258.819 201.561 258.334 202.676C257.848 203.79 257.591 205.033 257.562 206.404C257.505 207.519 257.634 208.619 257.948 209.704C258.234 210.762 258.676 211.747 259.276 212.662C259.877 213.547 260.605 214.304 261.462 214.933C262.291 215.562 263.248 215.947 264.334 216.09C265.848 216.376 267.405 216.276 269.005 215.79C270.605 215.333 272.02 214.462 273.248 213.176L279.548 216.219C277.92 218.676 275.991 220.433 273.763 221.49C271.505 222.547 268.934 223.076 266.048 223.076C263.391 223.076 261.048 222.605 259.019 221.662C256.991 220.719 255.305 219.462 253.962 217.89C252.619 216.347 251.619 214.59 250.962 212.619C250.305 210.619 250.005 208.59 250.062 206.533C250.091 204.476 250.491 202.461 251.262 200.49C252.005 198.49 253.105 196.733 254.562 195.218C256.162 193.504 258.034 192.29 260.177 191.575C262.291 190.861 264.477 190.504 266.734 190.504C269.22 190.504 271.362 190.918 273.163 191.747C274.963 192.575 276.42 193.647 277.534 194.961C278.648 196.247 279.391 197.69 279.763 199.29C280.106 200.861 280.077 202.39 279.677 203.876C279.248 205.361 278.405 206.69 277.148 207.861C275.92 209.033 274.248 209.876 272.134 210.39Z"
    fill="black"
  />
  <path
    d="M192.839 104.233C189.702 90.3821 180.581 81.2164 170.658 76.8316C182.997 87.702 194.363 108.739 180.222 127.905C174.356 135.86 162.625 139.004 157.711 136.786C157.711 136.786 165.309 135.172 170.034 131.04C179.224 122.341 182.295 108.327 174.939 95.5873C173.911 93.8038 172.689 92.139 171.296 90.623C171.277 90.6003 171.26 90.5775 171.241 90.5558C166.071 84.3892 158.972 80.7086 151.344 79.579C141.44 77.7181 128.67 80.1379 119.106 88.9824C108.679 98.6266 105.302 111.108 106.468 121.896C109.711 105.774 122.247 85.4135 145.916 88.0731C155.739 89.1788 164.325 97.7651 164.863 103.131C164.863 103.131 159.137 94.1452 144.935 94.1452C144.675 94.1496 144.125 94.1713 144.109 94.1713L143.928 94.1821C134.694 94.5434 125.717 99.3732 120.241 108.859C119.21 110.641 118.379 112.532 117.762 114.496L117.732 114.576C114.977 122.137 115.339 130.126 118.174 137.296C121.515 146.804 129.997 156.655 142.437 160.513C156.003 164.721 168.501 161.403 177.26 155.002C161.675 160.251 137.775 159.577 128.243 137.75C124.288 128.69 127.431 116.961 131.81 113.812C131.81 113.812 126.89 123.263 133.993 135.562C138.856 143.683 147.684 149.297 158.895 149.297C159.435 149.297 163.765 148.959 165.325 148.61L165.412 148.598C173.336 147.203 180.073 142.895 184.865 136.855C191.43 129.21 195.719 116.937 192.839 104.233V104.233Z"
    fill="url(#paint0_linear)"
  />
  <defs>
    <linearGradient
      id="paint0_linear"
      x1="100.546"
      y1="80.0611"
      x2="179.851"
      y2="117.041"
      gradientUnits="userSpaceOnUse"
    >
      <stop stop-color="#EA1F59" />
      <stop offset="1" stop-color="#FA9169" />
    </linearGradient>
  </defs>
</svg>
