<svg viewBox="0 0 300 157" fill="none" xmlns="http://www.w3.org/2000/svg">
  <path
    d="M29.5573 149.001L20 107.129H27.843L33.9289 133.915L39.3718 114.414C40.0576 112.043 41.0719 110.186 42.4148 108.843C43.7576 107.5 45.6291 106.929 48.0292 107.129L55.6579 133.915L60.0294 114.329C60.6294 111.729 61.6723 109.786 63.1581 108.5C64.6152 107.243 66.7296 106.786 69.5011 107.129L59.9437 149.001H52.3578L44.6434 121.957L37.1004 149.001H29.5573ZM94.873 137.001C92.7301 137.572 90.7586 137.772 88.9586 137.601C87.1871 137.458 85.73 137.029 84.5871 136.315C83.4442 135.629 82.687 134.701 82.3156 133.529C81.9442 132.329 82.0585 130.986 82.6585 129.5C83.8871 130.558 85.3157 131.129 86.9443 131.215C88.6015 131.329 90.1872 131.301 91.7015 131.129C92.9873 131.015 93.9587 130.743 94.6159 130.315C95.273 129.858 95.6873 129.343 95.8588 128.772C96.0016 128.2 95.9302 127.586 95.6445 126.929C95.3873 126.3 94.9444 125.729 94.3159 125.215C93.6873 124.672 92.9301 124.243 92.0444 123.929C91.1301 123.615 90.1301 123.472 89.0443 123.5C87.9014 123.586 86.8014 123.872 85.7443 124.358C84.7157 124.843 83.8014 125.5 83.0013 126.329C82.2013 127.186 81.5584 128.172 81.0727 129.286C80.587 130.4 80.3299 131.643 80.3013 133.015C80.2727 134.129 80.4013 135.229 80.687 136.315C81.0013 137.372 81.4584 138.358 82.0585 139.272C82.6585 140.158 83.3728 140.915 84.2014 141.544C85.03 142.172 85.9871 142.558 87.0729 142.701C88.5872 142.986 90.1443 142.886 91.7444 142.401C93.3444 141.944 94.773 141.072 96.0302 139.786L102.33 142.829C100.673 145.287 98.7302 147.044 96.5016 148.101C94.273 149.158 91.7158 149.687 88.83 149.687C86.1443 149.687 83.7871 149.215 81.7585 148.272C79.7584 147.329 78.0869 146.072 76.7441 144.501C75.4012 142.958 74.4012 141.201 73.744 139.229C73.0868 137.229 72.7726 135.201 72.8011 133.143C72.8297 131.086 73.2297 129.072 74.0011 127.1C74.7726 125.1 75.8726 123.343 77.3012 121.829C78.9012 120.115 80.7727 118.9 82.9156 118.186C85.0585 117.472 87.2443 117.114 89.4729 117.114C91.9587 117.114 94.1016 117.529 95.9016 118.357C97.7017 119.186 99.1588 120.257 100.273 121.572C101.387 122.857 102.13 124.3 102.502 125.9C102.873 127.472 102.845 129 102.416 130.486C101.987 131.972 101.159 133.301 99.9303 134.472C98.6731 135.643 96.9873 136.486 94.873 137.001ZM114.931 107H122.774C124.574 107 126.188 107.243 127.617 107.729C129.045 108.214 130.331 108.757 131.474 109.357C133.845 110.557 135.788 112.229 137.302 114.372C138.817 116.514 139.917 118.886 140.603 121.486C141.288 124.086 141.56 126.772 141.417 129.543C141.274 132.315 140.717 134.943 139.745 137.429C138.745 139.886 137.345 142.058 135.545 143.944C133.745 145.858 131.545 147.215 128.945 148.015C127.917 148.329 126.517 148.558 124.745 148.701C122.945 148.844 121.045 148.944 119.045 149.001C117.045 149.058 115.059 149.072 113.088 149.044C111.116 149.015 109.388 149.001 107.902 149.001V114.157C107.902 113.157 108.016 112.214 108.245 111.329C108.502 110.443 108.902 109.686 109.445 109.057C109.988 108.429 110.702 107.929 111.588 107.557C112.502 107.186 113.616 107 114.931 107ZM115.873 115.014V141.201C117.645 141.201 119.302 141.201 120.845 141.201C122.416 141.201 123.859 141.058 125.174 140.772C126.459 140.458 127.645 139.929 128.731 139.186C129.817 138.415 130.759 137.272 131.56 135.758C132.188 134.529 132.66 133.115 132.974 131.515C133.288 129.915 133.402 128.286 133.317 126.629C133.202 125 132.888 123.429 132.374 121.915C131.831 120.429 131.017 119.143 129.931 118.057C129.017 117.143 127.917 116.4 126.631 115.829C125.345 115.286 124.002 115.014 122.602 115.014H115.873ZM170.646 149.001V145.615C169.132 147.072 167.489 148.144 165.717 148.829C163.946 149.515 162.16 149.829 160.36 149.772C158.56 149.715 156.803 149.301 155.089 148.529C153.403 147.787 151.903 146.701 150.588 145.272C149.303 143.844 148.26 142.144 147.46 140.172C146.688 138.201 146.303 135.943 146.303 133.401C146.303 131.001 146.717 128.786 147.546 126.758C148.403 124.729 149.531 122.986 150.931 121.529C152.36 120.1 153.989 119 155.817 118.229C157.646 117.429 159.532 117.072 161.474 117.157C163.389 117.243 164.932 117.672 166.103 118.443C167.275 119.215 168.117 120.129 168.632 121.186C169.175 122.215 169.46 123.257 169.489 124.315C169.517 125.372 169.346 126.229 168.975 126.886C168.289 125.886 167.332 125.215 166.103 124.872C164.875 124.529 163.674 124.358 162.503 124.358C160.674 124.358 159.132 124.815 157.874 125.729C156.646 126.615 155.703 127.743 155.046 129.115C154.417 130.458 154.089 131.929 154.06 133.529C154.06 135.101 154.36 136.558 154.96 137.901C155.589 139.272 156.531 140.415 157.789 141.329C159.046 142.215 160.617 142.658 162.503 142.658C164.103 142.658 165.417 142.301 166.446 141.586C167.503 140.872 168.332 139.944 168.932 138.801C169.56 137.658 170.003 136.372 170.26 134.943C170.517 133.515 170.646 132.101 170.646 130.7V121.229V117.929H178.446V149.001H170.646ZM192.204 117.929V121.529C192.518 120.815 193.004 120.2 193.661 119.686C194.318 119.172 195.047 118.729 195.847 118.357C196.647 117.986 197.475 117.7 198.332 117.5C199.161 117.3 199.932 117.186 200.647 117.157C202.19 117.072 203.69 117.286 205.147 117.8C206.633 118.286 208.004 119.157 209.261 120.415C211.061 122.272 211.961 124.972 211.961 128.515V149.001H204.247C204.247 148.344 204.261 147.429 204.29 146.258C204.318 145.087 204.332 143.815 204.332 142.444C204.332 141.072 204.332 139.644 204.332 138.158C204.332 136.672 204.304 135.272 204.247 133.958C204.218 132.643 204.161 131.458 204.075 130.4C203.99 129.372 203.89 128.615 203.775 128.129C203.461 126.843 202.861 125.886 201.975 125.258C201.061 124.629 200.09 124.315 199.061 124.315C197.689 124.315 196.618 124.686 195.847 125.429C195.104 126.143 194.732 127.1 194.732 128.3C194.247 128.158 193.761 127.829 193.275 127.315C192.789 126.829 192.432 126.3 192.204 125.729V127.358V149.001H184.446V117.929H192.204ZM242.133 129.458C241.819 128.343 241.205 127.4 240.29 126.629C239.405 125.886 238.362 125.315 237.162 124.915C235.962 124.543 234.676 124.372 233.305 124.4C231.933 124.4 230.647 124.672 229.447 125.215C228.219 125.729 227.147 126.5 226.233 127.529C225.319 128.529 224.676 129.815 224.304 131.386C224.019 132.672 223.976 133.972 224.176 135.286C224.376 136.601 224.833 137.786 225.547 138.844C226.29 139.901 227.262 140.772 228.462 141.458C229.69 142.144 231.162 142.486 232.876 142.486C236.133 142.486 238.662 141.301 240.462 138.929L246.162 143.086C243.105 147.372 238.719 149.515 233.005 149.515C230.004 149.515 227.419 148.944 225.247 147.801C223.047 146.658 221.276 145.172 219.933 143.344C218.561 141.515 217.633 139.472 217.147 137.215C216.69 134.958 216.647 132.729 217.018 130.529C217.39 128.3 218.218 126.2 219.504 124.229C220.79 122.229 222.533 120.615 224.733 119.386C226.362 118.472 228.104 117.843 229.962 117.5C231.819 117.157 233.69 117.129 235.576 117.415C238.062 117.757 239.99 118.486 241.362 119.6C242.762 120.743 243.676 121.957 244.105 123.243C244.533 124.558 244.562 125.8 244.19 126.972C243.819 128.143 243.133 128.972 242.133 129.458ZM272.134 137.001C269.962 137.572 267.991 137.772 266.219 137.601C264.448 137.458 262.991 137.029 261.848 136.315C260.705 135.629 259.948 134.701 259.577 133.529C259.176 132.329 259.276 130.986 259.877 129.5C261.134 130.558 262.577 131.129 264.205 131.215C265.834 131.329 267.42 131.301 268.962 131.129C270.22 131.015 271.191 130.743 271.877 130.315C272.534 129.858 272.934 129.343 273.077 128.772C273.248 128.2 273.191 127.586 272.905 126.929C272.62 126.3 272.177 125.729 271.577 125.215C270.948 124.672 270.177 124.243 269.262 123.929C268.377 123.615 267.391 123.472 266.305 123.5C265.134 123.586 264.034 123.872 263.005 124.358C261.977 124.843 261.062 125.5 260.262 126.329C259.462 127.186 258.819 128.172 258.334 129.286C257.848 130.4 257.591 131.643 257.562 133.015C257.505 134.129 257.634 135.229 257.948 136.315C258.234 137.372 258.676 138.358 259.276 139.272C259.877 140.158 260.605 140.915 261.462 141.544C262.291 142.172 263.248 142.558 264.334 142.701C265.848 142.986 267.405 142.886 269.005 142.401C270.605 141.944 272.02 141.072 273.248 139.786L279.548 142.829C277.92 145.287 275.991 147.044 273.763 148.101C271.505 149.158 268.934 149.687 266.048 149.687C263.391 149.687 261.048 149.215 259.019 148.272C256.991 147.329 255.305 146.072 253.962 144.501C252.619 142.958 251.619 141.201 250.962 139.229C250.305 137.229 250.005 135.201 250.062 133.143C250.091 131.086 250.491 129.072 251.262 127.1C252.005 125.1 253.105 123.343 254.562 121.829C256.162 120.115 258.034 118.9 260.177 118.186C262.291 117.472 264.477 117.114 266.734 117.114C269.22 117.114 271.362 117.529 273.163 118.357C274.963 119.186 276.42 120.257 277.534 121.572C278.648 122.857 279.391 124.3 279.763 125.9C280.106 127.472 280.077 129 279.677 130.486C279.248 131.972 278.405 133.301 277.148 134.472C275.92 135.643 274.248 136.486 272.134 137.001Z"
    fill="black"
  />
  <path
    d="M192.591 31.4016C189.454 17.5505 180.333 8.38483 170.41 4C182.748 14.8704 194.114 35.9069 179.974 55.0739C174.108 63.0286 162.377 66.1721 157.462 63.9542C157.462 63.9542 165.06 62.3407 169.786 58.2087C178.975 49.5095 182.046 35.4957 174.69 22.7557C173.662 20.9722 172.44 19.3074 171.048 17.7914C171.028 17.7686 171.012 17.7459 170.992 17.7241C165.823 11.5576 158.723 7.87701 151.095 6.74743C141.191 4.88651 128.421 7.30625 118.857 16.1508C108.431 25.795 105.054 38.2767 106.219 49.0646C109.463 32.9425 121.999 12.5819 145.667 15.2415C155.491 16.3472 164.076 24.9335 164.614 30.2992C164.614 30.2992 158.888 21.3136 144.687 21.3136C144.426 21.318 143.876 21.3397 143.861 21.3397L143.68 21.3505C134.446 21.7118 125.469 26.5416 119.992 36.0274C118.961 37.8096 118.13 39.7 117.514 41.6644L117.483 41.7447C114.728 49.3055 115.091 57.2939 117.925 64.4642C121.266 73.9728 129.748 83.8232 142.189 87.6817C155.754 91.8897 168.252 88.5715 177.011 82.1706C161.426 87.4191 137.526 86.7453 127.995 64.9188C124.04 55.8584 127.182 44.1297 131.561 40.9808C131.561 40.9808 126.642 50.4319 133.745 62.7302C138.608 70.851 147.435 76.4652 158.646 76.4652C159.187 76.4652 163.516 76.1278 165.076 75.7784L165.163 75.7664C173.088 74.371 179.825 70.0632 184.617 64.0236C191.181 56.3781 195.471 44.1058 192.591 31.4016V31.4016Z"
    fill="url(#paint0_linear)"
  />
  <defs>
    <linearGradient
      id="paint0_linear"
      x1="100.298"
      y1="7.22945"
      x2="179.602"
      y2="44.2098"
      gradientUnits="userSpaceOnUse"
    >
      <stop stop-color="#EA1F59" />
      <stop offset="1" stop-color="#FA9169" />
    </linearGradient>
  </defs>
</svg>
