<svg
  viewBox="0 0 260 43"
  class="fill-current"
  xmlns="http://www.w3.org/2000/svg"
>
  <path
    d="M9.55735 42.0009L0 0.128574H7.84302L13.9289 26.9149L19.3718 7.41444C20.0576 5.04296 21.0719 3.18578 22.4148 1.8429C23.7576 0.500011 25.6291 -0.0714302 28.0292 0.128574L35.6579 26.9149L40.0294 7.32873C40.6294 4.72867 41.6723 2.78577 43.1581 1.50003C44.6152 0.242863 46.7296 -0.21429 49.5011 0.128574L39.9437 42.0009H32.3578L24.6434 14.9575L17.1004 42.0009H9.55735ZM74.873 30.0006C72.7301 30.5721 70.7586 30.7721 68.9586 30.6006C67.1871 30.4578 65.73 30.0292 64.5871 29.3149C63.4442 28.6292 62.687 27.7006 62.3156 26.5291C61.9442 25.3291 62.0585 23.9862 62.6585 22.5005C63.8871 23.5576 65.3157 24.1291 66.9443 24.2148C68.6015 24.3291 70.1872 24.3005 71.7015 24.1291C72.9873 24.0148 73.9587 23.7434 74.6159 23.3148C75.273 22.8576 75.6873 22.3433 75.8588 21.7719C76.0016 21.2004 75.9302 20.5861 75.6445 19.929C75.3873 19.3004 74.9444 18.729 74.3159 18.2147C73.6873 17.6718 72.9301 17.2432 72.0444 16.9289C71.1301 16.6146 70.1301 16.4718 69.0443 16.5003C67.9014 16.5861 66.8014 16.8718 65.7443 17.3575C64.7157 17.8432 63.8014 18.5004 63.0013 19.329C62.2013 20.1861 61.5584 21.1719 61.0727 22.2862C60.587 23.4005 60.3299 24.6434 60.3013 26.0148C60.2727 27.1291 60.4013 28.2292 60.687 29.3149C61.0013 30.3721 61.4584 31.3578 62.0585 32.2721C62.6585 33.1578 63.3728 33.915 64.2014 34.5436C65.03 35.1722 65.9871 35.5579 67.0729 35.7008C68.5872 35.9865 70.1443 35.8865 71.7444 35.4007C73.3444 34.9436 74.773 34.0721 76.0302 32.7864L82.3303 35.8293C80.6731 38.2865 78.7302 40.0437 76.5016 41.1009C74.273 42.158 71.7158 42.6866 68.83 42.6866C66.1443 42.6866 63.7871 42.2152 61.7585 41.2723C59.7584 40.3294 58.0869 39.0723 56.7441 37.5008C55.4012 35.9579 54.4012 34.2007 53.744 32.2292C53.0868 30.2292 52.7726 28.2006 52.8011 26.1434C52.8297 24.0862 53.2297 22.0719 54.0011 20.1004C54.7726 18.1004 55.8726 16.3432 57.3012 14.8289C58.9012 13.1146 60.7727 11.9003 62.9156 11.1859C65.0585 10.4716 67.2443 10.1145 69.4729 10.1145C71.9587 10.1145 74.1016 10.5288 75.9016 11.3574C77.7017 12.186 79.1588 13.2574 80.2731 14.5717C81.3874 15.8575 82.1303 17.3004 82.5018 18.9004C82.8732 20.4719 82.8446 22.0005 82.416 23.4862C81.9875 24.972 81.1589 26.3006 79.9303 27.472C78.6731 28.6435 76.9873 29.4863 74.873 30.0006ZM94.9306 0H102.774C104.574 0 106.188 0.242863 107.617 0.728587C109.045 1.21431 110.331 1.75718 111.474 2.35719C113.845 3.55722 115.788 5.22868 117.302 7.37158C118.817 9.51449 119.917 11.886 120.603 14.486C121.288 17.0861 121.56 19.7718 121.417 22.5433C121.274 25.3148 120.717 27.9434 119.745 30.4292C118.745 32.8864 117.345 35.0579 115.545 36.9436C113.745 38.858 111.545 40.2151 108.945 41.0152C107.917 41.3294 106.517 41.558 104.745 41.7009C102.945 41.8437 101.045 41.9437 99.045 42.0009C97.0449 42.058 95.0592 42.0723 93.0877 42.0437C91.1162 42.0152 89.3876 42.0009 87.9019 42.0009V7.15729C87.9019 6.15727 88.0162 5.2144 88.2447 4.32866C88.5019 3.44293 88.9019 2.68577 89.4448 2.05719C89.9876 1.4286 90.7019 0.92859 91.5877 0.557154C92.502 0.185718 93.6163 0 94.9306 0ZM95.8735 8.01446V34.2007C97.6449 34.2007 99.3021 34.2007 100.845 34.2007C102.416 34.2007 103.859 34.0579 105.174 33.7721C106.459 33.4578 107.645 32.9293 108.731 32.1864C109.817 31.4149 110.759 30.2721 111.56 28.7578C112.188 27.5292 112.66 26.1148 112.974 24.5148C113.288 22.9148 113.402 21.2862 113.317 19.629C113.202 18.0004 112.888 16.4289 112.374 14.9146C111.831 13.4289 111.017 12.1431 109.931 11.0574C109.017 10.1431 107.917 9.4002 106.631 8.82876C105.345 8.28589 104.002 8.01446 102.602 8.01446H95.8735ZM150.646 42.0009V38.6151C149.132 40.0723 147.489 41.1437 145.717 41.8295C143.946 42.5152 142.16 42.8295 140.36 42.7723C138.56 42.7152 136.803 42.3009 135.089 41.5294C133.403 40.7866 131.903 39.7008 130.588 38.2722C129.303 36.8436 128.26 35.1436 127.46 33.1721C126.688 31.2007 126.303 28.9435 126.303 26.4006C126.303 24.0005 126.717 21.7862 127.546 19.7576C128.403 17.7289 129.531 15.9861 130.931 14.5289C132.36 13.1003 133.989 12.0003 135.817 11.2288C137.646 10.4288 139.532 10.0716 141.474 10.1574C143.389 10.2431 144.932 10.6717 146.103 11.4431C147.275 12.2145 148.117 13.1288 148.632 14.186C149.175 15.2146 149.46 16.2575 149.489 17.3147C149.517 18.3718 149.346 19.229 148.975 19.8861C148.289 18.8861 147.332 18.2147 146.103 17.8718C144.875 17.5289 143.674 17.3575 142.503 17.3575C140.674 17.3575 139.132 17.8147 137.874 18.729C136.646 19.6147 135.703 20.7433 135.046 22.1148C134.417 23.4576 134.089 24.9291 134.06 26.5291C134.06 28.1006 134.36 29.5578 134.96 30.9007C135.589 32.2721 136.531 33.415 137.789 34.3293C139.046 35.215 140.617 35.6579 142.503 35.6579C144.103 35.6579 145.417 35.3007 146.446 34.5864C147.503 33.8721 148.332 32.9436 148.932 31.8007C149.56 30.6578 150.003 29.372 150.26 27.9434C150.517 26.5148 150.646 25.1005 150.646 23.7005V14.2289V10.9288H158.446V42.0009H150.646ZM172.204 10.9288V14.5289C172.518 13.8146 173.004 13.2003 173.661 12.686C174.318 12.1717 175.047 11.7288 175.847 11.3574C176.647 10.9859 177.475 10.7002 178.332 10.5002C179.161 10.3002 179.932 10.1859 180.647 10.1574C182.19 10.0716 183.69 10.2859 185.147 10.8002C186.633 11.286 188.004 12.1574 189.261 13.4146C191.061 15.2718 191.961 17.9718 191.961 21.5147V42.0009H184.247C184.247 41.3437 184.261 40.4294 184.29 39.258C184.318 38.0865 184.332 36.8151 184.332 35.4436C184.332 34.0721 184.332 32.6435 184.332 31.1578C184.332 29.6721 184.304 28.272 184.247 26.9577C184.218 25.6434 184.161 24.4577 184.075 23.4005C183.99 22.3719 183.89 21.6147 183.775 21.129C183.461 19.8433 182.861 18.8861 181.975 18.2575C181.061 17.6289 180.09 17.3147 179.061 17.3147C177.689 17.3147 176.618 17.6861 175.847 18.429C175.104 19.1433 174.732 20.1004 174.732 21.3004C174.247 21.1576 173.761 20.829 173.275 20.3147C172.789 19.829 172.432 19.3004 172.204 18.729V20.3576V42.0009H164.446V10.9288H172.204ZM222.133 22.4576C221.819 21.3433 221.205 20.4004 220.29 19.629C219.405 18.8861 218.362 18.3147 217.162 17.9147C215.962 17.5432 214.676 17.3718 213.305 17.4004C211.933 17.4004 210.647 17.6718 209.447 18.2147C208.219 18.729 207.147 19.5004 206.233 20.529C205.319 21.529 204.676 22.8148 204.304 24.3862C204.019 25.672 203.976 26.972 204.176 28.2863C204.376 29.6006 204.833 30.7864 205.547 31.8435C206.29 32.9007 207.262 33.7721 208.462 34.4579C209.69 35.1436 211.162 35.4865 212.876 35.4865C216.133 35.4865 218.662 34.3007 220.462 31.9292L226.162 36.0865C223.105 40.3723 218.719 42.5152 213.005 42.5152C210.004 42.5152 207.419 41.9437 205.247 40.8009C203.047 39.658 201.276 38.1722 199.933 36.3436C198.561 34.515 197.633 32.4721 197.147 30.2149C196.69 27.9577 196.647 25.7291 197.018 23.5291C197.39 21.3004 198.218 19.2004 199.504 17.2289C200.79 15.2289 202.533 13.6146 204.733 12.386C206.362 11.4717 208.104 10.8431 209.962 10.5002C211.819 10.1574 213.69 10.1288 215.576 10.4145C218.062 10.7574 219.99 11.486 221.362 12.6003C222.762 13.7431 223.676 14.9575 224.105 16.2432C224.533 17.5575 224.562 18.8004 224.19 19.9718C223.819 21.1433 223.133 21.9719 222.133 22.4576ZM252.134 30.0006C249.962 30.5721 247.991 30.7721 246.219 30.6006C244.448 30.4578 242.991 30.0292 241.848 29.3149C240.705 28.6292 239.948 27.7006 239.577 26.5291C239.176 25.3291 239.276 23.9862 239.877 22.5005C241.134 23.5576 242.577 24.1291 244.205 24.2148C245.834 24.3291 247.42 24.3005 248.962 24.1291C250.22 24.0148 251.191 23.7434 251.877 23.3148C252.534 22.8576 252.934 22.3433 253.077 21.7719C253.248 21.2004 253.191 20.5861 252.905 19.929C252.62 19.3004 252.177 18.729 251.577 18.2147C250.948 17.6718 250.177 17.2432 249.262 16.9289C248.377 16.6146 247.391 16.4718 246.305 16.5003C245.134 16.5861 244.034 16.8718 243.005 17.3575C241.977 17.8432 241.062 18.5004 240.262 19.329C239.462 20.1861 238.819 21.1719 238.334 22.2862C237.848 23.4005 237.591 24.6434 237.562 26.0148C237.505 27.1291 237.634 28.2292 237.948 29.3149C238.234 30.3721 238.676 31.3578 239.276 32.2721C239.877 33.1578 240.605 33.915 241.462 34.5436C242.291 35.1722 243.248 35.5579 244.334 35.7008C245.848 35.9865 247.405 35.8865 249.005 35.4007C250.605 34.9436 252.02 34.0721 253.248 32.7864L259.548 35.8293C257.92 38.2865 255.991 40.0437 253.763 41.1009C251.505 42.158 248.934 42.6866 246.048 42.6866C243.391 42.6866 241.048 42.2152 239.019 41.2723C236.991 40.3294 235.305 39.0723 233.962 37.5008C232.619 35.9579 231.619 34.2007 230.962 32.2292C230.305 30.2292 230.005 28.2006 230.062 26.1434C230.091 24.0862 230.491 22.0719 231.262 20.1004C232.005 18.1004 233.105 16.3432 234.562 14.8289C236.162 13.1146 238.034 11.9003 240.177 11.1859C242.291 10.4716 244.477 10.1145 246.734 10.1145C249.22 10.1145 251.362 10.5288 253.163 11.3574C254.963 12.186 256.42 13.2574 257.534 14.5717C258.648 15.8575 259.391 17.3004 259.763 18.9004C260.106 20.4719 260.077 22.0005 259.677 23.4862C259.248 24.972 258.405 26.3006 257.148 27.472C255.92 28.6435 254.248 29.4863 252.134 30.0006Z"
  />
</svg>
