<svg width="86" height="87" viewBox="0 0 86 87" fill="none" xmlns="http://www.w3.org/2000/svg">
<g filter="url(#filter0_dd_4005_8068)">
<rect x="3" y="2.14844" width="80" height="80" rx="40" fill="white"/>
<path d="M59.9136 39.4894C59.9136 39.3521 59.9136 39.2147 59.9136 39.0773C59.9564 38.1816 59.8335 37.2969 58.7461 37.3243C57.6587 37.3518 57.5892 38.2668 57.5919 39.1405C57.5919 41.8881 57.5919 54.4006 57.5919 57.1454V58.8215H36.0062C35.6054 58.8215 33.8688 58.6758 33.8688 59.9452C33.8688 61.3822 35.6028 61.1679 36.049 61.1679C42.6395 61.1679 49.23 61.1679 55.8205 61.1679H57.4716C57.4716 62.2532 57.5518 63.2698 57.517 64.2507C57.517 64.2644 57.517 64.2754 57.517 64.2919C57.2311 65.9954 56.6353 66.9681 55.5078 67.4187C55.0288 67.5772 54.5282 67.656 54.025 67.6522C47.6126 67.6522 41.064 67.7264 34.6436 67.7319H32.271C29.6259 67.7319 28.4076 66.5037 28.3969 63.8276C28.3969 62.8256 28.3969 61.8227 28.3969 60.819C28.4289 60.7997 28.4289 58.0164 28.3969 58.0357C28.3969 57.4861 28.3969 56.9119 28.3969 56.3514L28.4931 41.6985V41.4704L28.5599 31.3044L28.5892 31.2851C28.5892 27.6821 28.5892 24.0782 28.5892 20.4734C28.5892 17.8 29.8183 16.5746 32.4634 16.5718C39.5473 16.5718 46.6294 16.5718 53.7097 16.5718C56.1945 16.5718 57.2873 17.495 57.7174 20.0118C57.8537 20.8223 58.1823 21.3141 59.0026 21.2345C59.8736 21.1493 60.0125 20.4844 59.9992 19.7315C59.9474 18.4615 59.4881 17.2448 58.6929 16.2716C57.8978 15.2983 56.8116 14.6232 55.604 14.3518C54.9035 14.219 54.1923 14.1546 53.48 14.1594C46.5332 14.1448 39.5865 14.1448 32.6398 14.1594C28.4316 14.1594 26.2274 16.4482 26.2274 20.7701C26.2274 23.2045 26.2274 25.6416 26.2274 28.076L26.1926 33.0793L26.174 35.8709L26.1445 40.3275C26.1018 40.3549 26.0644 52.2218 26.0644 52.2218C26.0501 53.4142 26.0422 54.6048 26.0404 55.7936V56.3019C26.0404 57.3488 26.0404 58.3983 26.0404 59.4452C25.9495 59.5001 26.0404 63.105 26.0404 63.5363C26.0404 67.8555 28.25 70.1305 32.4527 70.147C39.3995 70.147 46.3462 70.147 53.2929 70.147H53.4773C53.9496 70.1562 54.4218 70.1212 54.888 70.0426C55.067 70.0179 55.2407 69.9877 55.4224 69.9519C56.3694 69.7499 57.245 69.2863 57.9552 68.6111C59.2912 67.4379 60.0473 65.6657 59.9698 63.5446C59.7801 58.7802 59.9136 44.2483 59.9136 39.4894Z" fill="#F1023D"/>
<path d="M44.9988 65.0785C44.9987 64.8177 44.9448 64.5596 44.8403 64.3198C44.7358 64.08 44.5829 63.8634 44.3908 63.6832C44.1987 63.503 43.9714 63.3629 43.7226 63.2714C43.4739 63.1798 43.2088 63.1386 42.9434 63.1504C42.6785 63.1581 42.4176 63.2174 42.1762 63.3248C41.9347 63.4322 41.7174 63.5856 41.5368 63.7761C41.3561 63.9666 41.2158 64.1904 41.124 64.4346C41.0322 64.6787 40.9906 64.9383 41.0018 65.1984C41.0149 65.7242 41.2385 66.2239 41.6243 66.5889C42.0101 66.9539 42.527 67.1549 43.0627 67.1483C43.5974 67.1214 44.0999 66.8895 44.4621 66.5023C44.8242 66.1152 45.017 65.6039 44.9988 65.0785Z" fill="#F1023D"/>
<path d="M45.91 22.148C47.3633 22.1136 47.3633 20.1808 45.91 20.1488H41.1527C41.0028 20.1452 40.8536 20.1684 40.7139 20.2171C40.5742 20.2658 40.4469 20.3389 40.3394 20.4322C40.2319 20.5255 40.1466 20.6371 40.0883 20.7603C40.03 20.8835 39.9999 21.0159 40 21.1496C39.9999 21.2833 40.0299 21.4155 40.0883 21.5386C40.1466 21.6617 40.232 21.7731 40.3395 21.8662C40.447 21.9593 40.5744 22.0322 40.7141 22.0806C40.8538 22.129 41.0029 22.152 41.1527 22.148H45.91Z" fill="#F1023D"/>
<path d="M36.2435 42.4692C34.762 44.2856 34.0092 46.3462 34.0065 48.0264C33.9739 48.9173 34.0638 49.8084 34.2735 50.6716C34.5125 51.5469 35.0259 52.309 35.7283 52.8315C37.2018 53.9015 39.3373 54.1484 43.0024 54.1484C46.6675 54.1484 48.8031 53.9015 50.2713 52.8315C50.9738 52.3092 51.4872 51.547 51.7261 50.6716C51.937 49.8087 52.027 48.9173 51.993 48.0264C51.993 46.3462 51.2375 44.2856 49.7587 42.4692C48.931 41.433 47.9021 40.5997 46.7428 40.0265C45.5834 39.4533 44.3211 39.1537 43.0425 39.1484H42.9997C41.7144 39.1474 40.4442 39.4439 39.2775 40.0173C38.1108 40.5908 37.0755 41.4274 36.2435 42.4692ZM43.0051 41.4531C43.9813 41.4404 44.9478 41.6602 45.8337 42.0963C46.7196 42.5324 47.5026 43.1738 48.125 43.9734C49.2782 45.3925 49.8308 47.1976 49.8308 48.0264C49.8544 48.6942 49.7943 49.3623 49.6519 50.0132C49.6144 50.2004 49.5416 50.3777 49.4379 50.5343C49.3342 50.6908 49.2018 50.8235 49.0486 50.9242C48.3653 51.4266 46.5447 51.8381 43.0051 51.8381C39.4654 51.8381 37.6396 51.4266 36.9616 50.9242C36.8079 50.8238 36.675 50.6913 36.5708 50.5347C36.4667 50.3781 36.3935 50.2007 36.3556 50.0132C36.2134 49.3622 36.1524 48.6942 36.1741 48.0264C36.1741 47.1976 36.732 45.3897 37.8852 43.9734C38.508 43.1743 39.291 42.5332 40.1768 42.0971C41.0627 41.6611 42.029 41.441 43.0051 41.4531Z" fill="#F1023D"/>
<path d="M38 31.549C38.033 33.0923 38.507 34.5867 39.3568 35.827C40.1961 37.0909 41.4483 38.1484 42.9987 38.1484C44.549 38.1484 45.8039 37.0881 46.6458 35.827C47.4938 34.5859 47.9667 33.0918 48 31.549C47.9945 30.1171 47.4655 28.7456 46.5286 27.7338C45.5916 26.7221 44.3227 26.1522 42.9987 26.1484C41.6751 26.1529 40.4069 26.7231 39.4705 27.7348C38.5341 28.7465 38.0055 30.1175 38 31.549ZM42.9987 28.4387C43.377 28.4361 43.7521 28.5148 44.1021 28.6701C44.4521 28.8255 44.7701 29.0545 45.0376 29.3438C45.3052 29.6332 45.5169 29.9771 45.6605 30.3556C45.8042 30.7342 45.8769 31.1398 45.8745 31.549C45.8227 32.6046 45.4925 33.6221 44.9229 34.4811C44.3425 35.3577 43.6157 35.8497 43.0039 35.8497C42.3921 35.8497 41.6628 35.3577 41.0824 34.4811C40.5123 33.6226 40.1828 32.6046 40.1333 31.549C40.1309 31.1408 40.2033 30.7361 40.3463 30.3583C40.4893 29.9805 40.7001 29.6371 40.9665 29.3479C41.2329 29.0587 41.5497 28.8295 41.8985 28.6734C42.2473 28.5174 42.6212 28.4376 42.9987 28.4387Z" fill="#F1023D"/>
<path d="M61.2181 28.193H60.2975V27.1389C60.3014 27.0105 60.2837 26.8825 60.2455 26.7625C60.2073 26.6425 60.1493 26.533 60.075 26.4405C60.0007 26.3481 59.9116 26.2746 59.8131 26.2244C59.7146 26.1742 59.6087 26.1484 59.5017 26.1484C59.3946 26.1484 59.2887 26.1742 59.1902 26.2244C59.0917 26.2746 59.0026 26.3481 58.9283 26.4405C58.854 26.533 58.796 26.6425 58.7578 26.7625C58.7196 26.8825 58.7019 27.0105 58.7058 27.1389V28.193H57.825C57.7181 28.1883 57.6115 28.2095 57.5115 28.2554C57.4116 28.3013 57.3204 28.371 57.2433 28.4602C57.1663 28.5494 57.105 28.6563 57.0632 28.7745C57.0214 28.8928 56.9999 29.02 57 29.1484C56.9999 29.2769 57.0214 29.4041 57.0632 29.5223C57.105 29.6406 57.1663 29.7475 57.2433 29.8367C57.3204 29.9259 57.4116 29.9955 57.5115 30.0414C57.6115 30.0873 57.7181 30.1086 57.825 30.1038H58.7058V31.2121C58.7323 32.4605 60.2789 32.4605 60.2975 31.2121V30.1198H61.2181C62.2606 30.0879 62.2606 28.2312 61.2181 28.193Z" fill="#F1023D"/>
<path d="M59.511 22.1484C57.7858 22.1477 56.131 22.8319 54.9101 24.0508C53.6892 25.2696 53.0022 26.9233 53 28.6484C53.0022 30.3717 53.6877 32.0237 54.9062 33.2422C56.1248 34.4607 57.7767 35.1463 59.5 35.1484C61.2232 35.1463 62.8752 34.4607 64.0938 33.2422C65.3123 32.0237 65.9978 30.3717 66 28.6484C65.9978 26.9271 65.3138 25.2767 64.0977 24.0585C62.8815 22.8403 61.2323 22.1535 59.511 22.1484ZM59.511 33.498C58.8734 33.4987 58.2419 33.3739 57.6526 33.1305C57.0633 32.8872 56.5277 32.5302 56.0763 32.0799C55.625 31.6296 55.2667 31.0947 55.0221 30.506C54.7774 29.9172 54.6512 29.286 54.6504 28.6484C54.6519 27.3627 55.1633 26.13 56.0724 25.2209C56.9816 24.3117 58.2142 23.8003 59.5 23.7989C60.7857 23.8003 62.0184 24.3117 62.9275 25.2209C63.8367 26.13 64.3481 27.3627 64.3496 28.6484C64.3481 29.9323 63.8382 31.1633 62.9314 32.0721C62.0246 32.9809 60.7948 33.4936 59.511 33.498Z" fill="#F1023D"/>
</g>
<defs>
<filter id="filter0_dd_4005_8068" x="0" y="0.148438" width="86" height="86" filterUnits="userSpaceOnUse" color-interpolation-filters="sRGB">
<feFlood flood-opacity="0" result="BackgroundImageFix"/>
<feColorMatrix in="SourceAlpha" type="matrix" values="0 0 0 0 0 0 0 0 0 0 0 0 0 0 0 0 0 0 127 0" result="hardAlpha"/>
<feOffset dy="1"/>
<feGaussianBlur stdDeviation="1"/>
<feColorMatrix type="matrix" values="0 0 0 0 0 0 0 0 0 0 0 0 0 0 0 0 0 0 0.06 0"/>
<feBlend mode="normal" in2="BackgroundImageFix" result="effect1_dropShadow_4005_8068"/>
<feColorMatrix in="SourceAlpha" type="matrix" values="0 0 0 0 0 0 0 0 0 0 0 0 0 0 0 0 0 0 127 0" result="hardAlpha"/>
<feOffset dy="1"/>
<feGaussianBlur stdDeviation="1.5"/>
<feColorMatrix type="matrix" values="0 0 0 0 0 0 0 0 0 0 0 0 0 0 0 0 0 0 0.1 0"/>
<feBlend mode="normal" in2="effect1_dropShadow_4005_8068" result="effect2_dropShadow_4005_8068"/>
<feBlend mode="normal" in="SourceGraphic" in2="effect2_dropShadow_4005_8068" result="shape"/>
</filter>
</defs>
</svg>
