<svg
  xmlns="http://www.w3.org/2000/svg"
  viewBox="0 0 60.044 60.044"
  class="fill-current"
>
  <g>
    <path
      d="M53.617,48.444c-4.327-6.949-8.654-13.899-12.982-20.849l-9.476,8.312c7.106,6.234,14.213,12.467,21.319,18.701
		c1.606,1.408,3.211,2.817,4.817,4.226c0.333,0.292,0.666,0.584,1,0.876c0.879,0.771,2.202-0.215,1.549-1.264
		C57.769,55.112,55.693,51.778,53.617,48.444z"
    />
    <path
      d="M2.009,10.336c0.642,0.645,1.367,1.199,2.051,1.799c2.168,1.902,4.336,3.803,6.504,5.705
		c2.835,2.487,5.671,4.975,8.507,7.462L29.138,9.13c-0.623-1.001-1.247-2.002-1.87-3.003C26.663,5.155,26.28,4.139,25.4,3.345
		c-1.929-1.74-4.655-2.526-7.16-2.949c-3.282-0.555-6.729-0.531-9.999,0.101C5.835,0.962,3.202,1.785,1.412,3.548
		C0.774,4.176,0.26,4.954,0.087,5.844c-0.105,0.541-0.081,1.103,0.072,1.632C0.335,8.089,0.991,9.314,2.009,10.336z M10.654,2.164
		c0.952-0.101,1.91-0.147,2.868-0.147c2.637,0,5.349,0.324,7.827,1.265c1.29,0.491,3.135,1.31,3.596,2.759
		c0.413,1.298-0.942,2.347-1.909,2.916c-1.99,1.169-4.375,1.673-6.646,1.913c-4.502,0.475-10.418,0.183-13.872-3.13
		C-0.362,4.138,8.879,2.352,10.654,2.164z"
    />
    <path
      d="M55.762,12.33l1.964-1.723c0.713-0.625,1.281-1.39,1.758-2.21c0.002-0.004,0.005-0.008,0.007-0.013
		c0.332-0.566,0.531-1.208,0.531-1.867c0-4.33-6.452-5.955-9.706-6.26c-4.903-0.459-10.763-0.349-14.829,2.428
		c-1.334,0.911-1.897,2.134-2.702,3.426C32.063,7.27,31.341,8.43,30.62,9.589C24.39,19.594,18.16,29.599,11.931,39.604
		c-2.881,4.628-5.763,9.255-8.644,13.883c-0.823,1.321-1.645,2.642-2.467,3.963c-0.187,0.3-0.373,0.6-0.56,0.9
		c-0.587,0.943,0.441,2.276,1.422,1.419c1.667-1.136,3.15-2.763,4.663-4.09c3.838-3.366,7.675-6.733,11.513-10.099
		c9.575-8.399,19.151-16.799,28.726-25.198C49.643,17.698,52.702,15.014,55.762,12.33z M35.141,7.113
		c-0.501-1.267,0.731-2.332,1.689-2.928c1.921-1.196,4.267-1.717,6.487-1.982c1.063-0.127,2.134-0.186,3.205-0.186
		c2.62,0,5.312,0.32,7.776,1.248c1.299,0.489,3.122,1.295,3.621,2.73c0.709,2.039-2.576,3.404-3.985,3.899
		c-2.241,0.787-4.652,1.083-7.018,1.12c-2.681,0.042-5.443-0.261-7.978-1.173C37.587,9.356,35.716,8.563,35.141,7.113z"
    />
  </g>
</svg>
