<svg
  width="24"
  height="24"
  viewBox="0 0 24 24"
  class="fill-current"
  xmlns="http://www.w3.org/2000/svg"
>
  <path
    d="M21.8946 8.89L20.8446 4.52C20.6246 3.62 19.8446 3 18.9346 3H5.04464C4.14464 3 3.35464 3.63 3.14464 4.52L2.09464 8.89C1.85464 9.91 2.07464 10.95 2.71464 11.77C2.79464 11.88 2.90464 11.96 2.99464 12.06V19C2.99464 20.1 3.89464 21 4.99464 21H18.9946C20.0946 21 20.9946 20.1 20.9946 19V12.06C21.0846 11.97 21.1946 11.88 21.2746 11.78C21.9146 10.96 22.1446 9.91 21.8946 8.89ZM18.9046 4.99L19.9546 9.36C20.0546 9.78 19.9646 10.2 19.7046 10.53C19.5646 10.71 19.2646 11 18.7646 11C18.1546 11 17.6246 10.51 17.5546 9.86L16.9746 5L18.9046 4.99ZM12.9946 5H14.9546L15.4946 9.52C15.5446 9.91 15.4246 10.3 15.1646 10.59C14.9446 10.85 14.6246 11 14.2146 11C13.5446 11 12.9946 10.41 12.9946 9.69V5ZM8.48464 9.52L9.03464 5H10.9946V9.69C10.9946 10.41 10.4446 11 9.70464 11C9.36464 11 9.05464 10.85 8.81464 10.59C8.56464 10.3 8.44464 9.91 8.48464 9.52ZM4.03464 9.36L5.04464 5H7.01464L6.43464 9.86C6.35464 10.51 5.83464 11 5.22464 11C4.73464 11 4.42464 10.71 4.29464 10.53C4.02464 10.21 3.93464 9.78 4.03464 9.36ZM4.99464 19V12.97C5.07464 12.98 5.14464 13 5.22464 13C6.09464 13 6.88464 12.64 7.46464 12.05C8.06464 12.65 8.86464 13 9.77464 13C10.6446 13 11.4246 12.64 12.0046 12.07C12.5946 12.64 13.3946 13 14.2946 13C15.1346 13 15.9346 12.65 16.5346 12.05C17.1146 12.64 17.9046 13 18.7746 13C18.8546 13 18.9246 12.98 19.0046 12.97V19H4.99464Z"
  />
</svg>
