<svg width="86" height="87" viewBox="0 0 86 87" fill="none" xmlns="http://www.w3.org/2000/svg">
<g filter="url(#filter0_dd_4005_8056)">
<rect x="3" y="2.14844" width="80" height="80" rx="40" fill="white"/>
<path d="M69.6566 60.4375C69.2315 59.1344 68.876 57.8095 68.5914 56.4687C68.1951 54.7452 67.9011 52.9962 67.4835 51.2791C67.3612 50.7597 67.1288 50.2726 66.802 49.8507C66.4753 49.4288 66.0619 49.0819 65.5897 48.8335C64.6971 48.335 63.8854 47.6703 63.078 47.0418C62.3537 46.4837 61.2331 45.9639 61.0861 45.2587C60.9391 44.5536 61.7827 43.6546 62.2258 42.8578C63.2463 41.0172 62.8372 39.2362 61.0584 38.0773C60.5194 37.7215 52.9843 33.4033 51.638 32.6278L50.2404 31.8183L50.2128 27.9389C50.2128 26.0514 50.2128 24.1618 50.2128 22.2743C50.2128 18.9232 48.4509 17.1508 45.0999 17.1486C39.561 17.1486 34.022 17.1486 28.4831 17.1486C27.9151 17.1449 27.348 17.1948 26.7894 17.2978C25.8276 17.5107 24.963 18.0352 24.3297 18.7898C23.6965 19.5444 23.33 20.4869 23.2871 21.4711C23.2871 22.0548 23.3894 22.5704 24.0817 22.6364C24.7379 22.6982 24.9999 22.3169 25.1064 21.6884C25.4452 19.737 26.3165 19.0233 28.302 19.0212C33.9489 19.0212 39.5957 19.0212 45.2426 19.0212C47.3517 19.0212 48.3231 19.9735 48.3316 22.0463C48.3423 24.8414 48.3316 27.6364 48.3316 30.4293L48.353 30.4442L48.4062 38.3265V38.514L48.4829 49.8752C48.4829 50.3013 48.4829 50.7465 48.4829 51.1811L48.4019 51.1343V53.2944L48.4807 53.3392C48.4807 54.1161 48.4807 54.8936 48.4807 55.6719C48.4807 57.7469 47.5008 58.697 45.3917 58.6992H43.5C38.3871 58.6992 33.155 58.6438 28.0464 58.6374C27.6451 58.6401 27.246 58.579 26.864 58.4563C25.9671 58.1069 25.492 57.3528 25.2641 56.032C25.2641 56.0192 25.2641 56.0107 25.2641 56C25.2364 55.2395 25.3003 54.4512 25.3003 53.6097H26.6169C31.8718 53.6097 37.1267 53.6097 42.3816 53.6097C42.7352 53.6097 44.1071 53.7674 44.1199 52.6617C44.1199 51.7734 42.7394 51.7904 42.4156 51.7904H25.2023V50.4909C25.2023 48.3605 25.2023 35.1736 25.2023 33.0432C25.2023 32.3679 25.132 31.6585 24.2799 31.6372C23.4277 31.6159 23.3148 32.3019 23.3489 32.9942C23.3489 33.1008 23.3489 33.2073 23.3489 33.3138C23.3489 37.0057 23.4554 51.7585 23.317 55.4461C23.2552 57.0908 23.8644 58.4648 24.9253 59.3745C25.4911 59.8988 26.1895 60.2583 26.945 60.4141C27.0834 60.4418 27.224 60.4652 27.371 60.4844C27.7428 60.5454 28.1192 60.5724 28.4958 60.5654H28.6429C34.1818 60.5753 39.7207 60.5753 45.2597 60.5654C48.6129 60.5654 50.3725 58.7886 50.3725 55.4397C50.3725 55.1053 50.3725 54.7687 50.3725 54.4342C51.8233 55.2586 53.2528 55.804 54.9315 54.9817C55.1211 55.6698 55.2596 56.2599 55.4385 56.8245C56.2523 59.4192 58.2826 60.9297 60.9775 60.968C61.6059 60.9787 62.164 60.8104 62.2152 60.0967C62.2663 59.383 61.7891 59.1529 61.1181 59.1061C58.5169 58.9229 57.8181 58.2539 57.0405 55.7294C56.5593 54.2604 55.9777 52.8262 55.3 51.4368C54.8527 50.4781 54.1986 49.6174 53.7193 48.6673C53.5574 48.3478 53.6512 47.8982 53.6277 47.5084C53.9878 47.6362 54.4202 47.6788 54.6929 47.9089C55.21 48.3952 55.6993 48.9101 56.1586 49.4513C57.3154 50.6848 58.3699 52.0077 60.153 52.4743C60.7751 52.6404 61.3098 53.254 61.8062 53.7525C62.2429 54.1785 62.7371 54.4917 63.1526 53.9911C63.3997 53.695 63.4764 52.8939 63.2569 52.6383C62.6178 51.9033 61.8956 51.0107 61.0371 50.7636C59.3988 50.2949 58.4338 49.1445 57.3771 48.0154C56.8211 47.421 56.3333 46.701 55.6728 46.2813C55.0337 45.8829 54.1624 45.5335 53.4637 45.6422C51.7594 45.9 51.0649 47.6256 51.9255 49.2809C52.6051 50.5868 53.3934 51.8373 54.1283 53.0985C53.3827 53.827 52.6882 53.5884 52.0129 53.2071C51.4675 52.9003 50.9243 52.5872 50.381 52.274C50.381 51.4623 50.381 50.6485 50.381 49.8369V49.4428C50.381 48.5196 50.3747 47.5964 50.3619 46.6733L50.3129 39.6154C51.9447 40.5584 53.578 41.5015 55.2127 42.4445C55.7943 42.7811 56.444 43.0836 56.8786 42.3337C57.3132 41.5839 56.7679 41.1663 56.165 40.8255C55.0529 40.1991 53.9494 39.5579 52.8437 38.9188L50.3001 37.451L50.2766 33.9955L53.8982 36.0918C55.8944 37.2443 57.9012 38.3798 59.8824 39.5558C61.0733 40.263 61.2139 40.9043 60.5215 42.0994C60.0124 42.992 59.516 43.8953 58.9728 44.7666C58.5595 45.427 58.6085 45.9404 59.2433 46.4198C60.6856 47.5127 62.0128 48.793 63.5701 49.6878C65.3085 50.6911 65.9732 52.1547 66.2948 53.9719C66.755 56.5752 66.8253 59.2595 68.0588 61.7072C68.2377 62.063 67.8926 62.9024 67.5347 63.2688C66.8588 63.979 66.0288 64.5246 65.1087 64.8633C64.1886 65.202 63.203 65.3248 62.228 65.2223C61.4781 65.1563 60.5003 64.6748 60.1189 64.0719C59.2433 62.6915 57.9885 61.9118 56.6208 61.2386C56.4488 61.1754 56.2657 61.1477 56.0826 61.1572C55.8995 61.1667 55.7203 61.2132 55.5557 61.2939C55.4391 61.3903 55.3491 61.5149 55.2943 61.6558C55.2395 61.7968 55.2217 61.9494 55.2425 62.0992C55.3701 62.4573 55.6198 62.759 55.9477 62.9514C57.0705 63.5479 58.0392 64.3976 58.7768 65.4332C59.3136 66.1831 60.3959 66.7839 61.3332 66.9671C64.1027 67.5103 66.6059 66.6774 68.6979 64.7813C70.1124 63.4818 70.2786 62.2398 69.6566 60.4375Z" fill="#F1023D"/>
<path d="M21.4064 24.296C22.086 24.0425 22.6058 23.6995 22.2735 22.9091C21.9603 22.155 21.3212 22.3467 20.7247 22.547C19.3213 23.0276 18.1073 23.9423 17.2583 25.1587C16.4092 26.375 15.9691 27.83 16.0017 29.313C16.0379 29.7028 16.0528 30.0948 16.121 30.4783C16.2403 31.1515 16.481 31.7778 17.3417 31.5925C18.1576 31.4199 18.0745 30.7616 17.9808 30.1438C17.5505 27.417 18.7861 25.2823 21.4064 24.296Z" fill="#F1023D"/>
<path d="M23.4357 26.0069C23.0096 25.4104 22.4728 25.5701 21.9444 25.9323C20.8004 26.7269 20.1209 27.7921 19.8013 29.326C19.74 29.5962 19.7538 29.878 19.8413 30.1409C19.9288 30.4038 20.0866 30.6377 20.2977 30.8172C20.3957 30.9023 20.5125 30.9629 20.6386 30.994C21.3075 31.1346 21.5865 30.5339 21.6228 29.9033C21.6423 29.4075 21.7832 28.924 22.0332 28.4954C22.2832 28.0667 22.6346 27.706 23.0565 27.4449C23.6211 27.0699 23.8319 26.5693 23.4357 26.0069Z" fill="#F1023D"/>
<path d="M35.2353 56.096C35.2214 56.5076 35.37 56.9082 35.649 57.2112C35.9281 57.5141 36.3151 57.6951 36.7265 57.715C37.138 57.7202 37.5349 57.563 37.8312 57.2774C38.1275 56.9919 38.2993 56.6011 38.3094 56.1897C38.3179 55.9863 38.286 55.7832 38.2155 55.5922C38.1449 55.4012 38.0371 55.2262 37.8984 55.0771C37.7597 54.9281 37.5928 54.8081 37.4073 54.7241C37.2219 54.6401 37.0216 54.5937 36.8181 54.5877C36.6139 54.5779 36.4099 54.6096 36.2183 54.681C36.0268 54.7524 35.8517 54.8619 35.7037 55.0029C35.5557 55.1439 35.4379 55.3135 35.3574 55.5014C35.2769 55.6893 35.2353 55.8915 35.2353 56.096Z" fill="#F1023D"/>
<path d="M38.6293 23.2323C39.7541 23.2025 39.7541 21.528 38.6293 21.5003H34.9608C34.845 21.4972 34.7297 21.5173 34.6218 21.5595C34.5139 21.6016 34.4155 21.665 34.3325 21.7458C34.2495 21.8267 34.1835 21.9233 34.1384 22.0301C34.0934 22.1368 34.0703 22.2515 34.0703 22.3674C34.0703 22.4831 34.0934 22.5977 34.1385 22.7044C34.1836 22.811 34.2496 22.9075 34.3326 22.9882C34.4156 23.0688 34.514 23.132 34.6219 23.1739C34.7298 23.2159 34.8451 23.2357 34.9608 23.2323H38.6293Z" fill="#F1023D"/>
</g>
<defs>
<filter id="filter0_dd_4005_8056" x="0" y="0.148438" width="86" height="86" filterUnits="userSpaceOnUse" color-interpolation-filters="sRGB">
<feFlood flood-opacity="0" result="BackgroundImageFix"/>
<feColorMatrix in="SourceAlpha" type="matrix" values="0 0 0 0 0 0 0 0 0 0 0 0 0 0 0 0 0 0 127 0" result="hardAlpha"/>
<feOffset dy="1"/>
<feGaussianBlur stdDeviation="1"/>
<feColorMatrix type="matrix" values="0 0 0 0 0 0 0 0 0 0 0 0 0 0 0 0 0 0 0.06 0"/>
<feBlend mode="normal" in2="BackgroundImageFix" result="effect1_dropShadow_4005_8056"/>
<feColorMatrix in="SourceAlpha" type="matrix" values="0 0 0 0 0 0 0 0 0 0 0 0 0 0 0 0 0 0 127 0" result="hardAlpha"/>
<feOffset dy="1"/>
<feGaussianBlur stdDeviation="1.5"/>
<feColorMatrix type="matrix" values="0 0 0 0 0 0 0 0 0 0 0 0 0 0 0 0 0 0 0.1 0"/>
<feBlend mode="normal" in2="effect1_dropShadow_4005_8056" result="effect2_dropShadow_4005_8056"/>
<feBlend mode="normal" in="SourceGraphic" in2="effect2_dropShadow_4005_8056" result="shape"/>
</filter>
</defs>
</svg>
