<svg
  viewBox="0 0 150 150"
  xmlns="http://www.w3.org/2000/svg">
  <path
    d="M110.42 69.5221C109.773 69.2124 109.117 68.9144 108.452 68.629C107.295 47.2955 95.6375 35.082 76.064 34.957C75.9753 34.9565 75.8871 34.9565 75.7984 34.9565C64.0909 34.9565 54.354 39.9538 48.3609 49.0474L59.1258 56.4319C63.6028 49.6393 70.6291 48.1912 75.8036 48.1912C75.8634 48.1912 75.9234 48.1913 75.9825 48.1918C82.4273 48.2329 87.2906 50.1067 90.4383 53.7609C92.7289 56.4213 94.2609 60.0977 95.0195 64.7373C89.3055 63.7662 83.1258 63.4676 76.5195 63.8463C57.9099 64.9183 45.9462 75.7718 46.7497 90.8531C47.1574 98.5031 50.9685 105.084 57.4805 109.384C62.9863 113.018 70.0773 114.795 77.4471 114.393C87.1797 113.859 94.8148 110.146 100.141 103.356C104.187 98.2 106.745 91.518 107.875 83.0984C112.513 85.8977 115.951 89.5813 117.849 94.0094C121.077 101.537 121.266 113.906 111.173 123.991C102.33 132.825 91.7 136.647 75.6355 136.765C57.8158 136.633 44.3389 130.918 35.5766 119.779C27.3715 109.348 23.131 94.2828 22.9728 75C23.131 55.717 27.3715 40.6513 35.5766 30.2209C44.3389 19.082 57.8155 13.3672 75.6353 13.2348C93.5844 13.3682 107.296 19.1105 116.394 30.3031C120.855 35.7919 124.218 42.6944 126.435 50.7424L139.05 47.3767C136.363 37.4705 132.134 28.9341 126.379 21.8547C114.716 7.50522 97.6578 0.152459 75.6793 0H75.5913C53.6575 0.15193 36.7907 7.53266 25.4596 21.937C15.3765 34.755 10.1753 52.5904 10.0005 74.9473L10 75L10.0005 75.0527C10.1753 97.4094 15.3765 115.245 25.4596 128.063C36.7907 142.467 53.6575 149.848 75.5913 150H75.6793C95.1797 149.865 108.925 144.759 120.248 133.446C135.063 118.645 134.617 100.093 129.734 88.7039C126.231 80.5367 119.552 73.9033 110.42 69.5221ZM76.7504 101.177C68.5941 101.637 60.1206 97.9758 59.7028 90.1344C59.3931 84.3203 63.8405 77.8328 77.2509 77.06C78.7867 76.9714 80.2938 76.9281 81.7742 76.9281C86.6453 76.9281 91.2023 77.4013 95.3453 78.307C93.8 97.6055 84.7359 100.739 76.7504 101.177Z"
    class="fill-current" />
</svg>
