<svg
  viewBox="0 0 24 24"
  class="fill-current"
  xmlns="http://www.w3.org/2000/svg"
>
  <path
    d="M0.462439 18.0002C1.47632 17.8764 2.50443 18.0098 3.51831 17.8432C4.02759 17.7623 4.49408 17.5909 4.95579 17.41C3.81345 16.6771 2.78524 15.8393 1.82858 14.835C1.48587 14.4779 1.73335 13.8782 2.23317 13.864C2.64255 13.883 3.04237 13.8498 3.43263 13.7688C2.43776 12.5074 1.66668 11.1508 1.06695 9.62766C0.905149 9.21829 1.38109 8.80424 1.76668 8.92793C1.99037 9.01838 2.21884 9.08027 2.45209 9.12784C1.7429 7.42377 1.59533 5.70548 1.99037 3.82051C2.08083 3.38736 2.652 3.28268 2.94236 3.56826C5.2176 5.80528 8.09256 6.88106 11.1674 7.39511C10.8961 5.29123 12.3908 3.0541 14.3518 2.32103C15.9797 1.71653 18.1645 2.13068 19.2593 3.50149C19.9923 3.03977 21.0061 2.88743 21.8201 2.74463C22.2485 2.67319 22.6626 3.09211 22.4104 3.51571C22.1152 4.01076 21.8344 4.53905 21.5251 5.04365C22.1533 4.85797 22.8007 4.74373 23.448 4.66283C23.9145 4.60094 24.1953 5.31968 23.8384 5.60527C23.0816 6.20977 22.3295 6.89996 21.5251 7.45212C21.5013 12.7975 19.94 17.2814 15.1658 20.3229C11.1864 22.8648 3.78956 22.4364 0.3292 18.976H0.324423C0.172076 18.9379 0.0911777 18.8236 0.0626192 18.6999C-0.0706196 18.5 0.0245065 18.2526 0.200635 18.1573C0.267306 18.0763 0.352982 18.0144 0.462439 18.0002Z"
  />
</svg>
