<svg
  id="af67dbb9-cf76-4b83-a563-de2d0aa0e246"
  data-name="Layer 1"
  xmlns="http://www.w3.org/2000/svg"
  viewBox="0 0 865.13515 739.08708"
>
  <path
    d="M781.3159,253.40371h-3.99878V143.85838a63.40184,63.40184,0,0,0-63.40179-63.40192H481.8286a63.40185,63.40185,0,0,0-63.402,63.40172V744.83259a63.40187,63.40187,0,0,0,63.4018,63.40192H713.915a63.40187,63.40187,0,0,0,63.402-63.40168V331.38h3.99884Z"
    transform="translate(-167.43243 -80.45646)"
    fill="#3f3d56"
  />
  <path
    d="M716.47337,96.95144h-30.295A22.49487,22.49487,0,0,1,665.35124,127.942H532.39177A22.49483,22.49483,0,0,1,511.56462,96.9514H483.269a47.34781,47.34781,0,0,0-47.34784,47.34774V744.39173A47.3478,47.3478,0,0,0,483.269,791.73957h233.2044a47.3478,47.3478,0,0,0,47.34784-47.34778h0V144.29919A47.34777,47.34777,0,0,0,716.47337,96.95144Z"
    transform="translate(-167.43243 -80.45646)"
    fill="#fff"
  />
  <path
    d="M1004.15016,389.49176c-4.90176,14.51295-12.418,27.73643-27.73645,27.73643s-26.87333-12.44237-27.73645-27.73643c-1.10289-19.54278,12.06465-27.81737,27.73645-27.73644C994.92736,361.85094,1009.96744,372.2684,1004.15016,389.49176Z"
    transform="translate(-167.43243 -80.45646)"
    fill="#2f2e41"
  />
  <rect
    x="781.24488"
    y="308.41158"
    width="54.74298"
    height="69.34109"
    fill="#2f2e41"
  />
  <path
    d="M1005.02766,440.52744h4.65624a41.45129,41.45129,0,0,1,6.20834,34.1457c-5.17359,19.65963-1.03475,23.28113-1.03475,23.28113s6.73525,21.28974-.50775,53.366,6.71608,40.79335,6.71608,40.79335l-12.934-25.86795-7.243-68.29139Z"
    transform="translate(-167.43243 -80.45646)"
    fill="#e6e6e6"
  />
  <path
    d="M988.73087,415.43553S984.592,431.991,986.66141,431.991s9.31246,8.79508,9.31246,8.79508l4.65625,17.07283-3.6215,12.41662L984.592,467.68876l-15.52079-17.07284-4.65625-4.65623-4.13887-15.00341s5.17358-6.20831,1.55208-11.3819S988.73087,415.43553,988.73087,415.43553Z"
    transform="translate(-167.43243 -80.45646)"
    fill="#fbbebe"
  />
  <path
    d="M863.53,461.4805l-11.38187-18.62493s-12.28618-27.18433-21.08126-17.35448,13.32089,29.77112,13.32089,29.77112l11.38191,15.00341Z"
    transform="translate(-167.43243 -80.45646)"
    fill="#fbbebe"
  />
  <path
    d="M1014.59882,623.41387l-8.27775,60.531s1.03475,4.65625-9.31245,21.72907-38.28457,54.32269-38.28457,54.32269l-8.27775-15.52079s9.82983-49.14915,26.90266-59.49631l-2.06946-74.4997Z"
    transform="translate(-167.43243 -80.45646)"
    fill="#fbbebe"
  />
  <path
    d="M950.4463,738.26758l11.38192,21.72907s-9.31246,13.07432-5.691,15.66111,8.27775,25.86795-1.55208,23.28111-17.59021-12.934-17.59021-14.486,5.691-9.97011,2.5868-15.14373-5.17359-6.72567-5.17359-6.72567l-6.19437,8.236-2.58679-1.55208,11.368-17.03107s1.55208-4.13887,7.76037-6.72566Z"
    transform="translate(-167.43243 -80.45646)"
    fill="#2f2e41"
  />
  <path
    d="M975.40026,614.82578s4.01816,57.21986-4.777,72.22328v74.49967l-11.89924,1.55209s-24.03021-39.442-15.23509-78.24385-9.08082-74.37707-9.08082-74.37707Z"
    transform="translate(-167.43243 -80.45646)"
    fill="#fbbebe"
  />
  <circle cx="805.00166" cy="325.92529" r="21.72908" fill="#fbbebe" />
  <path
    d="M994.42183,463.55l-21.72908-27.42-12.41662-8.27774-5.17358,6.72567-14.486,4.13887s-9.31246,2.06944-19.14229,13.45134-27.42,18.10758-27.42,18.10758-31.55886-10.34718-31.55886-12.41662-15.00341,13.9687-11.38191,20.177,20.88238,25.17569,46.23295,21.55417,34.99243-7.06811,34.99243-7.06811,4.65625,23.79851,18.10758,28.45474,57.42685,7.76039,57.42685,7.76039l9.3125-31.04153s10.34716-13.45135-3.6215-33.111c0,0-.26817-10.99508-1.76993-18.31155-.58412-2.8458-1.35486-5.13506-2.369-6.00433-3.6215-3.10416-22.76378-8.27775-22.76378-8.27775s3.10417,10.34719,4.65625,10.86454S996.49129,460.96314,994.42183,463.55Z"
    transform="translate(-167.43243 -80.45646)"
    fill="#e6e6e6"
  />
  <path
    d="M927.969,678.27264c26.05414-1.81075,41.22312,2.45745,47.99024,5.71164,1.25807.56933,5.95117,1.76346,5.95117,1.96,0,1.55209,34.046,5.45317,46.98,2.349s-11.96346-129.808-17.65446-135.499-2.623-26.51984-2.623-26.51984-52.217-7.10848-56.87324-8.14319c-2.07981-.46045-3.13005.31559-3.65264,1.31926a8.94552,8.94552,0,0,1-3.53867,3.57493c-10.98352,6.32733-19.79935,50.0752-26.43709,74.26174C910.86836,623.67256,927.969,678.27264,927.969,678.27264Z"
    transform="translate(-167.43243 -80.45646)"
    fill="#2f2e41"
  />
  <path
    d="M972.69275,756.89253s6.08568,22.22885,9.82983,39.83665c0,0,2.58679,6.11082,11.89925,10.76707s-1.57992,12.38878-10.375,11.87141-17.07283.51737-18.10758-2.06942-4.111-13.8434-4.111-13.8434l-1.69851,15.57132-5.17358.51738,1.69851-20.22757s-4.13887-7.76037,1.55208-20.69437l-1.43628-19.8534S971.14067,762.06611,972.69275,756.89253Z"
    transform="translate(-167.43243 -80.45646)"
    fill="#2f2e41"
  />
  <path
    d="M972.82726,623.69324a17.15337,17.15337,0,0,1,3.5284,2.14187c.27412-4.889,1.85726-34.45613-.04141-33.98014Z"
    transform="translate(-167.43243 -80.45646)"
    opacity="0.1"
    style="isolation:isolate"
  />
  <path
    d="M963.43877,376.45963s-.24063-1.33959-9.65212,2.18972-15.05306,29.57408-10.34729,44.86774c1.89637,6.16329.35371,10.607-2.16417,13.71623-9.44862,11.66759-5.7291,29.192,8.03355,35.19189q.58271.254,1.18924.50223l5.88216,3.52931s-7.49852-9.86647-3.746-22.48753a64.70959,64.70959,0,0,0,1.16769-33.12686c-.43052-1.84826-.91955-3.75347-1.47507-5.69775-4.70573-16.47009-2.417-14.568,14.0531-31.03815,0,0,9.41149,7.05862,17.64655,10.58794s15.29369,7.05861,9.41149,18.823-19.99941,22.35234-10.58792,37.646,10.58792,9.41149,9.41149,15.29368h0l-1.17643,5.88216,7.05863-7.05863-4.70577,9.41149s15.29365,0,19.99946-11.76437l2.35286,2.35288s9.41153-16.47012-8.23506-31.7638c0,0-5.8822-3.52931,2.35286-15.29368s1.91047-37.05777-8.67746-41.76351S963.43877,376.45963,963.43877,376.45963Z"
    transform="translate(-167.43243 -80.45646)"
    fill="#2f2e41"
  />
  <rect
    x="228.65823"
    y="408.53538"
    width="22.39168"
    height="17.41575"
    transform="translate(-353.80232 560.29302) rotate(-87.7793)"
    fill="#6c63ff"
  />
  <path
    d="M310.08993,484.08008s24.09994-11.51461,23.71432-1.57023-24.29275,16.48681-24.29275,16.48681Z"
    transform="translate(-167.43243 -80.45646)"
    fill="#ffb9b9"
  />
  <path
    d="M296.86773,568.22168s11.37,27.82906,15.57095,47.91067,10.59876,47.71782,2.36922,67.3174S283.181,760.65309,282.94,766.8683s2.00406,12.52691-2.96813,12.33408-32.03-8.71155-33.12846-12.48892,9.23157-13.336,9.23157-13.336L281.583,673.447l-26.61376-52.07371-19.19641,77.68539L232.013,796.01638s-18.4529-5.69525-21.1318-.81946c0,0-8.2675-11.52484-9.31774-16.54524s3.90445-100.68686,3.90445-100.68686-16.93815-108.96461-3.26462-108.43437S269.43452,537.27985,296.86773,568.22168Z"
    transform="translate(-167.43243 -80.45646)"
    fill="#2f2e41"
  />
  <path
    d="M280.16468,774.23015s12.61305,27.87728,13.80791,29.16853,9.41414,14.05917,3.19891,13.81812-20.89079-7.03468-31.69261-17.41292-25.04352-28.3593-23.75227-29.55416,10.13719-4.58655,10.13719-4.58655Z"
    transform="translate(-167.43243 -80.45646)"
    fill="#2f2e41"
  />
  <path
    d="M229.76794,789.70473s.761,12.47869,3.05429,17.54726,2.00407,12.52686-4.21117,12.28585-22.27845-.22175-22.27845-.22175-.95383-7.50651.33742-8.70132,6.79368-17.80757,4.4522-21.63311S229.76794,789.70473,229.76794,789.70473Z"
    transform="translate(-167.43243 -80.45646)"
    fill="#2f2e41"
  />
  <path
    d="M220.573,384.75017S207.32306,405.4,202.15806,410.17933s9.36594,15.30218,9.36594,15.30218l26.0076,3.49836s-.32719-23.66611,1.01227-26.104S220.573,384.75017,220.573,384.75017Z"
    transform="translate(-167.43243 -80.45646)"
    fill="#ffb9b9"
  />
  <path
    d="M243.17863,411.77s-5.35781,9.75158-10.33,9.55875-30.69056-11.14945-31.789-14.9268-8.51875,27.05783-8.51875,27.05783l62.931,110.74811,15.3504-10.609-7.43782-65.02409-6.1086-35.09455Z"
    transform="translate(-167.43243 -80.45646)"
    fill="#fff"
  />
  <path
    d="M198.73842,510.885a34.82483,34.82483,0,0,1,3.86074,16.33364c-.00964.24863-.01928.49721-.04136.74531-.59552,11.50486-4.83378,24.81052-6.35431,34.48681-1.10331,6.94118-.78933,12.00772,3.27271,13.19854,9.848,2.87173-1.43587,4.924,36.66478,17.60573s44.74971,1.7353,44.84613-.75079-5.39578-21.37282-4.10454-22.56763,18.06728,15.63965,23.13587,13.34634.57843-14.91658.57843-14.91658-11.41821-26.586-11.17719-32.80126-17.296-35.52838-17.296-35.52838l-11.928-77.64747S255.60907,412.25206,249.442,410.768a15.27719,15.27719,0,0,0-11.28381,2.05225L248.478,435.629l10.888,40.25954-1.82149,14.8684s-12.66126-26.63422-20.977-36.916S210.522,419.21812,210.522,419.21812s-4.1393-13.96667-1.01453-18.14049c3.12524-4.18616-13.03439-4.81282-19.92447,12.34884-3.65177,9.09566-9.58064,22.65944-13.29473,35.28826-3.30961,11.18791-4.873,21.64683-1.5941,27.62512C179.70555,485.47267,192.31169,497.477,198.73842,510.885Z"
    transform="translate(-167.43243 -80.45646)"
    fill="#3f3d56"
  />
  <path
    d="M174.69414,476.33982c5.01143,9.13283,17.61756,21.13714,24.04428,34.54514,1.67858-6.04749,3.72636-12.30466,3.72636-12.30466s7.85414-42.02261-15.37812-52.88285a15.54867,15.54867,0,0,0-10.79841,3.01723C172.97863,459.90262,171.41529,470.36156,174.69414,476.33982Z"
    transform="translate(-167.43243 -80.45646)"
    opacity="0.1"
    style="isolation:isolate"
  />
  <path
    d="M266.92068,473.69163l19.69595,5.74344,27.34707,1.06048L316.777,504.258,271.83443,507.495S260.60906,475.93671,266.92068,473.69163Z"
    transform="translate(-167.43243 -80.45646)"
    fill="#3f3d56"
  />
  <path
    d="M234.80373,553.58862S261.153,557.96021,255.139,565.8894s-29.35621-.407-29.35621-.407Z"
    transform="translate(-167.43243 -80.45646)"
    fill="#ffb9b9"
  />
  <path
    d="M202.5578,527.96392c-.59553,11.50486-4.83378,24.81051-6.35432,34.48679,8.39389,7.94439,16.376,14.95156,19.38412,15.06822,6.21524.241,16.20783-.61641,19.88877.77124s5.83985-22.18206,5.83985-22.18206-2.19689-7.55468-11.99666-11.66945C222.70493,541.655,210.02567,534.10465,202.5578,527.96392Z"
    transform="translate(-167.43243 -80.45646)"
    opacity="0.1"
    style="isolation:isolate"
  />
  <path
    d="M187.37587,438.23919s-21.03541-3.30556-19.899,31.59619-2.21734,57.18018,6.243,63.73287,35.94174,36.25143,42.157,36.49243,16.20783-.6164,19.88876.77125,5.83986-22.182,5.83986-22.182-2.1969-7.5547-11.99666-11.66949-32.88744-18.70415-32.69465-23.67638S202.754,491.122,202.754,491.122,210.60815,449.09942,187.37587,438.23919Z"
    transform="translate(-167.43243 -80.45646)"
    fill="#3f3d56"
  />
  <circle cx="71.68987" cy="307.50285" r="27.3676" fill="#ffb9b9" />
  <path
    d="M257.54959,348.73357a5.28451,5.28451,0,0,0,2.30109,1.15475,1.64208,1.64208,0,0,0,1.90292-1.31814,6.82276,6.82276,0,0,0,2.611,3.3488c1.27839.6663,3.25518.10759,3.43945-1.32221a6.03374,6.03374,0,0,0,1.38876,2.9315,2.08,2.08,0,0,0,2.924.09773c-.55984,3.05954-.2143,6.206-.39011,9.31132s-1.00389,6.39749-3.35005,8.43949c-3.42161,2.978-8.56687,2.243-13.06771,1.67883a3.96645,3.96645,0,0,0-2.04785.112c-1.68526.718-1.60881,3.064-1.63154,4.89566a13.60286,13.60286,0,0,1-11.91116,12.91753,6.81884,6.81884,0,0,1-5.06792-1.23685c-1.27791-1.08318-1.93066-2.84861-3.395-3.66229-2.38194-1.32358-5.2708.60671-7.0123,2.70259s-3.45788,4.674-6.15573,5.05765c-3.56806.50738-6.28566-3.12887-7.619-6.47711a37.75868,37.75868,0,0,1,.7504-29.33885C218.66915,341.78573,244.11922,339.217,257.54959,348.73357Z"
    transform="translate(-167.43243 -80.45646)"
    fill="#2f2e41"
  />
  <path
    d="M337.2124,468.93011c8.96308-10.09491,23.98467-9.34093,35.58352-4.81523,14.35375,5.60063,24.73962,18.059,36.33,27.67628a78.97544,78.97544,0,0,0,19.86048,12.47029,70.3616,70.3616,0,0,0,22.57867,5.24586,68.15658,68.15658,0,0,0,42.68982-11.50026,70.762,70.762,0,0,0,26.03776-32.67154c.62722-1.61831,1.18423-3.26156,1.68319-4.92373.55628-1.85309-2.33826-2.645-2.89283-.79752a67.03482,67.03482,0,0,1-23.6264,33.85094A65.36986,65.36986,0,0,1,453.811,506.61653a67.89059,67.89059,0,0,1-22.51343-4.63348,73.56338,73.56338,0,0,1-19.88892-12.17972c-11.63669-9.62814-21.98332-21.87238-36.15056-27.899-11.48882-4.88725-26.30747-6.37648-36.76011,1.71761a25.05551,25.05551,0,0,0-3.40686,3.18687c-1.278,1.43937.83631,3.5686,2.12132,2.12132Z"
    transform="translate(-167.43243 -80.45646)"
    fill="#2f2e41"
  />
  <path
    d="M822.82945,415.24623c-1.88034-12.4507-12.828-20.61721-24.1523-24.23993-15.02567-4.80683-30.62586-1.16453-45.75623,1.15331-8.14554,1.24783-16.40627,2.07067-24.63036,1.12452a66.79241,66.79241,0,0,1-51.20442-35.40741,67.34188,67.34188,0,0,1-5.96983-43.3609c.373-1.84578.83127-3.67164,1.359-5.47907a1.50128,1.50128,0,0,0-2.89283-.79752,70.11007,70.11007,0,0,0,1.83089,44.15944,68.23063,68.23063,0,0,0,27.30425,33.40359,70.46857,70.46857,0,0,0,42.45926,10.72145c8.68481-.57176,17.23067-2.31686,25.8259-3.59139,7.63511-1.13216,15.56363-2.02005,23.24765-.8289,11.45242,1.77533,24.51409,7.84639,28.61533,19.55535a24.14149,24.14149,0,0,1,1.07087,4.385c.28733,1.90261,3.17853,1.09421,2.89283-.79751Z"
    transform="translate(-167.43243 -80.45646)"
    fill="#2f2e41"
  />
  <path
    d="M599.8712,610.08552a32.9983,32.9983,0,1,0-46.66665,46.66665l46.66665,46.66666,46.66666-46.66666a32.99831,32.99831,0,1,0-46.66666-46.66665Z"
    transform="translate(-167.43243 -80.45646)"
    fill="#6c63ff"
  />
  <rect
    x="395.58859"
    y="151.46238"
    width="287.49233"
    height="56.7613"
    fill="#e6e6e6"
  />
  <path
    d="M569.14978,282.5511H844.3847V238.04774H569.14978Z"
    transform="translate(-167.43243 -80.45646)"
    fill="#fff"
  />
  <circle cx="425.81213" cy="179.47445" r="16.95467" fill="#6c63ff" />
  <rect
    x="466.35592"
    y="172.84001"
    width="167.33524"
    height="3.6858"
    fill="#e6e6e6"
  />
  <rect
    x="466.35592"
    y="182.42308"
    width="167.33524"
    height="3.6858"
    fill="#e6e6e6"
  />
  <rect
    x="213.58859"
    y="299.46238"
    width="287.49233"
    height="56.7613"
    fill="#e6e6e6"
  />
  <path
    d="M387.14978,430.5511H662.3847V386.04774H387.14978Z"
    transform="translate(-167.43243 -80.45646)"
    fill="#fff"
  />
  <circle cx="243.81213" cy="327.47445" r="16.95467" fill="#6c63ff" />
  <rect
    x="284.35592"
    y="320.84001"
    width="167.33524"
    height="3.6858"
    fill="#e6e6e6"
  />
  <rect
    x="284.35592"
    y="330.42308"
    width="167.33524"
    height="3.6858"
    fill="#e6e6e6"
  />
</svg>
